<svg width="119" height="119" viewBox="0 0 119 119" fill="none" xmlns="http://www.w3.org/2000/svg">
<path opacity="0.05" d="M43.3738 112.105C28.951 102.217 16.4807 89.7479 6.59117 75.3271C2.41346 71.0508 0.0516923 65.3246 7.16885e-05 59.3469C-0.00741101 56.3808 0.570948 53.4424 1.70202 50.7004C2.83309 47.9584 4.49461 45.4666 6.59117 43.3682C17.143 29.5124 29.5153 17.1426 43.3738 6.59333C47.6498 2.41542 53.3761 0.0528779 59.3545 7.13195e-05C62.321 -0.00739364 65.2598 0.571227 68.002 1.7027C70.7443 2.83418 73.2359 4.49621 75.3338 6.59333C88.9983 17.3628 101.344 29.7064 112.116 43.3682C116.296 47.643 118.659 53.369 118.711 59.3469C118.718 62.3135 118.139 65.2523 117.008 67.9946C115.876 70.737 114.214 73.2288 112.116 75.3271C101.355 88.9994 89.0079 101.345 75.3338 112.105C72.6108 114.784 69.2705 116.753 65.6073 117.837C63.5725 118.428 61.463 118.722 59.3441 118.71C56.6828 118.65 54.0513 118.135 51.5634 117.189C48.5293 116.042 45.7475 114.315 43.3738 112.105Z" fill="url(#paint0_linear_2690_9051)"/>
<g filter="url(#filter0_d_2690_9051)">
<path d="M59.5 86.9998C66.2627 86.9998 72.7488 84.3131 77.5311 79.531C82.3133 74.7488 85 68.2628 85 61.4999C85 54.737 82.3133 48.2512 77.5311 43.4688C72.749 38.6867 66.2629 36 59.5 36C52.7371 36 46.2512 38.6867 41.4689 43.4688C36.6867 48.251 34 54.737 34 61.4999C34.0081 68.2605 36.6968 74.7419 41.4777 79.5223C46.2578 84.303 52.739 86.9917 59.5 86.9998Z" fill="white"/>
</g>
<path d="M59.7916 68.4154C59.3562 68.4153 58.9385 68.2426 58.6302 67.935L50.4817 59.8079C50.1733 59.4994 50 59.081 50 58.6448C50 58.2086 50.1733 57.7902 50.4817 57.4817C50.7902 57.1733 51.2086 57 51.6448 57C52.081 57 52.4994 57.1733 52.8079 57.4817L59.7884 64.444L66.6405 57.5722C66.7931 57.4192 66.9744 57.2978 67.1739 57.2149C67.3735 57.132 67.5874 57.0892 67.8035 57.089C68.0196 57.0888 68.2336 57.1311 68.4333 57.2136C68.6331 57.2961 68.8146 57.4171 68.9675 57.5697C69.1205 57.7223 69.2419 57.9036 69.3248 58.1032C69.4077 58.3027 69.4505 58.5167 69.4507 58.7327C69.451 58.9488 69.4086 59.1628 69.3261 59.3626C69.2437 59.5623 69.1226 59.7438 68.97 59.8968L60.9564 67.9318C60.8036 68.085 60.6221 68.2066 60.4222 68.2896C60.2224 68.3726 60.0081 68.4154 59.7916 68.4154Z" fill="#1778F2"/>
<defs>
<filter id="filter0_d_2690_9051" x="28" y="30" width="63" height="63" filterUnits="userSpaceOnUse" color-interpolation-filters="sRGB">
<feFlood flood-opacity="0" result="BackgroundImageFix"/>
<feColorMatrix in="SourceAlpha" type="matrix" values="0 0 0 0 0 0 0 0 0 0 0 0 0 0 0 0 0 0 127 0" result="hardAlpha"/>
<feOffset/>
<feGaussianBlur stdDeviation="3"/>
<feComposite in2="hardAlpha" operator="out"/>
<feColorMatrix type="matrix" values="0 0 0 0 0 0 0 0 0 0 0 0 0 0 0 0 0 0 0.1 0"/>
<feBlend mode="normal" in2="BackgroundImageFix" result="effect1_dropShadow_2690_9051"/>
<feBlend mode="normal" in="SourceGraphic" in2="effect1_dropShadow_2690_9051" result="shape"/>
</filter>
<linearGradient id="paint0_linear_2690_9051" x1="59.3553" y1="0" x2="59.3553" y2="118.711" gradientUnits="userSpaceOnUse">
<stop stop-color="#1778F2"/>
<stop offset="1" stop-color="#F40009"/>
</linearGradient>
</defs>
</svg>
