<svg xmlns="http://www.w3.org/2000/svg" width="110.531" height="116.46" viewBox="0 0 110.531 116.46"> <defs> <linearGradient id="linear-gradient" x1=".5" x2=".5" y2="1" gradientUnits="objectBoundingBox"> <stop offset="0" stop-color="#c7dcff"/> <stop offset="1" stop-color="#ffabaf"/> </linearGradient> <style>.cls-6,.cls-7{stroke:#2d2d2d;stroke-miterlimit:10}.cls-6{fill:#1778f2}.cls-7{fill:#fff}</style> </defs> <g id="Group_125730" transform="translate(-585 -6231)"> <g id="Group_125729"> <g id="Group_125728"> <path id="Path_229005" fill="url(#linear-gradient)" d="M271.877 251.117a126.59 126.59 0 0 1-32.807-32.807 20.66 20.66 0 0 1-5.879-14.256 20.1 20.1 0 0 1 5.879-14.254 172.816 172.816 0 0 1 32.807-32.8 20.652 20.652 0 0 1 14.256-5.882A20.089 20.089 0 0 1 300.389 157a197.348 197.348 0 0 1 32.811 32.8 20.651 20.651 0 0 1 5.882 14.256 20.1 20.1 0 0 1-5.882 14.254 196.077 196.077 0 0 1-32.807 32.807 20.773 20.773 0 0 1-8.672 5.1 19.628 19.628 0 0 1-5.584.779 20.836 20.836 0 0 1-6.94-1.358 22.274 22.274 0 0 1-7.32-4.521z" opacity="0.2" transform="translate(353.809 6083.246)"/> <g id="Group_88224" transform="translate(-549.855 2728.295)"> <g id="Group_88223"> <path id="Path_179785" fill="none" stroke="#2d2d2d" stroke-miterlimit="10" d="M743.182 1719.131s9.633 39.094-22.293 44.155" transform="translate(469.255 1804.516)"/> <path id="Line_553" fill="#c4eaff" stroke="#2d2d2d" stroke-miterlimit="10" d="M0 0L0 104.345" transform="translate(1209.87 3510.699)"/> <path id="Path_179786" fill="#f40009" stroke="#2d2d2d" stroke-miterlimit="10" d="M733.778 1727.373a3.645 3.645 0 0 1-3.634-3.634c-.1-1.686-.165-3.472-.163-5.354 0-1.808.063-3.532.163-5.158a3.721 3.721 0 0 1 1.067-2.567 3.625 3.625 0 0 1 2.567-1.067 3.644 3.644 0 0 1 3.634 3.634c.1 1.664.163 3.43.163 5.288 0 1.834-.061 3.578-.163 5.224a3.717 3.717 0 0 1-.48 1.8 3.666 3.666 0 0 1-.587.764 4.059 4.059 0 0 1-2.567 1.07z" transform="translate(476.093 1797.342)"/> <path id="Path_179787" d="M774.1 1743.785a125.693 125.693 0 0 0-53.285 1.663 123.845 123.845 0 0 0-30.293 12.094l84.358.13z" class="cls-6" transform="translate(446.415 1821.486)"/> <ellipse id="Ellipse_13849" cx="8.76" cy="7.852" class="cls-6" rx="8.76" ry="7.852" transform="translate(1217.138 3561.248)"/> <path id="Path_179788" d="M700.143 1790.029a3.645 3.645 0 0 1-3.634-3.634q-.3-7.624-.324-15.768-.013-8.83.324-17.067a3.728 3.728 0 0 1 1.069-2.567 3.62 3.62 0 0 1 2.565-1.067 3.645 3.645 0 0 1 3.635 3.634q.331 8.381.324 17.391-.018 7.965-.324 15.444a3.754 3.754 0 0 1-.545 1.906 3.641 3.641 0 0 1-.524.661 4.1 4.1 0 0 1-2.566 1.067z" class="cls-7" transform="translate(450.676 1827.676)"/> <path id="Path_179789" d="M745.032 1790.029a3.645 3.645 0 0 1-3.634-3.634q-.3-7.624-.324-15.768-.013-8.83.324-17.067a3.729 3.729 0 0 1 1.069-2.567 3.617 3.617 0 0 1 2.565-1.067 3.644 3.644 0 0 1 3.634 3.634q.334 8.381.326 17.391-.021 7.965-.326 15.444a3.73 3.73 0 0 1-.543 1.906 3.63 3.63 0 0 1-.524.661 4.1 4.1 0 0 1-2.567 1.067z" class="cls-7" transform="translate(484.435 1827.676)"/> <path id="Path_179790" d="M791.732 1762.226q-26.557.25-53.665.217-20.436-.026-40.557-.217c-4.485 0-8.177-3.094-8.177-6.854 0-3.786 3.662-6.854 8.177-6.854q20.152-.189 40.621-.217 27.075-.037 53.6.217c4.485 0 8.175 3.094 8.175 6.854.001 3.785-3.659 6.854-8.174 6.854z" class="cls-7" transform="translate(445.523 1826.449)"/> <path id="Path_179791" d="M746.117 1773.247q-5.235.047-10.581.042-4.032-.005-8-.042a1.373 1.373 0 1 1 0-2.7q3.974-.037 8.01-.044 5.338-.005 10.568.044a1.373 1.373 0 1 1 0 2.7z" class="cls-6" transform="translate(473.043 1843.148)"/> </g> </g> </g> </g> </g></svg>