<svg xmlns="http://www.w3.org/2000/svg" width="58.832" height="76.406" viewBox="0 0 58.832 76.406">
    <g stroke="#2d2d2d" stroke-linecap="round" stroke-miterlimit="10" stroke-width="0.4px">
        <path fill="#ff8e93" d="M52.9 876.675c-5.616-2-34.641 32.713-22.647 54.848 3.208 5.919 10.445 12.966 19.637 12.917 9.632-.054 17.259-7.872 20.17-15.216 3.364-8.486.522-16.562 0-18.047a48.094 48.094 0 0 0-6.014-10.792c-2.6-3.818-3.5-4.35-5.132-6.725-6.052-8.825-3.628-16.133-6.014-16.985z" transform="translate(-292.373 -433.022) translate(279.268 -435.213)"/>
        <path fill="#fff" d="M39.016 876.644C42.5 875.4 60.5 896.93 53.059 910.656c-1.99 3.671-6.477 8.04-12.177 8.01-5.973-.034-10.7-4.882-12.508-9.436a16.39 16.39 0 0 1 0-11.191 29.823 29.823 0 0 1 3.729-6.692c1.613-2.367 2.173-2.7 3.183-4.17 3.75-5.477 2.248-10.005 3.73-10.533z" transform="translate(-292.373 -433.022) translate(265.242 -443.363)"/>
    </g>
</svg>
