<svg width="130" height="130" viewBox="0 0 130 130" fill="none" xmlns="http://www.w3.org/2000/svg">
<path d="M16.5409 27.6953C19.4859 32.4572 22.8834 36.9237 26.6863 41.0329C35.4956 50.5211 41.416 52.5453 51.8612 63.7668C56.7362 69.0029 59.1935 71.693 60.3166 75.4143C62.6187 83.0337 59.2152 88.6744 57.1244 97.7744C55.1252 106.791 54.9331 116.114 56.5592 125.205L85.3073 124.453C89.1856 113.259 92.246 104.39 94.1383 98.9046C101.245 78.2581 102.229 75.2142 101.843 70.3428C101.167 61.8765 97.0922 57.1388 83.4259 39.9084C78.0309 33.1033 69.162 21.8526 57.8719 7.21313C44.0967 14.0321 30.3197 20.8595 16.5409 27.6953Z" fill="white" stroke="white"/>
<path d="M55.3983 5.86597C72.2875 26.1171 81.1148 36.4216 83.323 39.2022C84.9968 41.3129 86.573 43.3224 86.573 43.3242C87.3982 44.3822 88.198 45.4148 89.3373 46.8881C97.3522 57.2611 101.664 63.3443 101.989 71.908C102.033 72.9033 102.01 73.9001 101.92 74.8923C101.448 79.6736 100.069 84.3211 97.856 88.5856C95.3823 93.4047 91.8561 102.83 86.5333 120.501" stroke="#2D2D2D" stroke-miterlimit="10" stroke-linecap="round"/>
<path d="M16.1036 34.4844C25.0461 43.7911 34.7557 52.329 45.1297 60.0077C53.3703 66.078 61.322 71.0219 62.102 79.2733C62.5028 83.5019 60.7641 85.9716 58.9422 90.7744C55.4222 100.524 54.3363 110.986 55.7789 121.251" stroke="#2D2D2D" stroke-miterlimit="10" stroke-linecap="round"/>
<path d="M29.7573 17.9966C36.9687 24.4424 44.2252 31.3111 51.5269 38.6031C53.5359 40.6205 55.5118 42.6352 57.4545 44.6466C57.4545 44.6466 67.3688 54.2161 67.5115 61.0068C67.5284 61.2604 67.532 61.5145 67.5223 61.7685C67.3977 65.5367 65.8973 69.8267 68.2265 71.7207C69.2916 72.4273 70.5677 72.7458 71.8399 72.6221C73.1122 72.4985 74.303 71.9404 75.2122 71.0418C76.5808 69.3085 75.4704 66.651 76.2955 66.3477C77.2922 65.9757 78.6554 70.0218 80.99 70.1536C83.2848 70.2818 86.3561 66.6362 85.7801 63.9549C85.2763 61.6077 82.3044 61.5269 76.6638 56.8667C76.6638 56.8667 75.5914 55.982 73.5745 54.0645C69.1742 49.8442 65.4356 44.9841 62.4848 39.6487C59.6429 34.7268 53.383 26.4284 38.2904 11.6445" fill="#86BCFF"/>
<path d="M29.7573 17.9966C36.9687 24.4424 44.2252 31.3111 51.5269 38.6031C53.5359 40.6205 55.5118 42.6352 57.4545 44.6466C57.4545 44.6466 67.3688 54.2161 67.5115 61.0068C67.5284 61.2604 67.532 61.5145 67.5223 61.7685C67.3977 65.5367 65.8973 69.8267 68.2265 71.7207C69.2916 72.4273 70.5677 72.7458 71.8399 72.6221C73.1122 72.4985 74.303 71.9404 75.2122 71.0418C76.5808 69.3085 75.4704 66.651 76.2955 66.3477C77.2922 65.9757 78.6554 70.0218 80.99 70.1536C83.2848 70.2818 86.3561 66.6362 85.7801 63.955C85.2763 61.6077 82.3044 61.5269 76.6638 56.8667C76.6638 56.8667 75.5913 55.982 73.5745 54.0645C69.1742 49.8442 65.4356 44.9841 62.4848 39.6487C59.6429 34.7268 53.383 26.4284 38.2904 11.6445" stroke="#2D2D2D" stroke-miterlimit="10" stroke-linecap="round"/>
<path d="M67.4587 121.157C69.7949 114.139 71.4918 106.925 72.5287 99.601C73.1553 94.995 73.455 92.6424 72.9548 90.158C71.9708 85.3101 69.3257 82.3943 70.8387 79.7311C71.4173 78.7869 72.3196 78.0854 73.3774 77.7576C74.1226 77.5427 74.9118 77.531 75.6629 77.7241C76.4141 77.9171 77.1 78.3077 77.6493 78.8552C78.9475 80.2852 78.3824 82.2731 79.0143 82.4086C79.7979 82.5765 80.2782 79.4365 82.7608 78.3152C83.3825 78.0542 84.0515 77.9247 84.7257 77.9343C85.4 77.944 86.0649 78.0925 86.679 78.3712C87.293 78.6499 87.8428 79.0527 88.2939 79.5539C88.745 80.055 89.0877 80.6438 89.3005 81.2836C89.9939 84.1292 86.018 85.8716 81.9754 92.433C80.6631 94.5626 79.574 96.8216 78.7254 99.1748C77.3728 103.172 76.6598 107.358 76.6129 111.577C76.4288 115.199 76.5702 118.83 77.0354 122.427" fill="#86BCFF"/>
<path d="M67.4587 121.157C69.7949 114.139 71.4918 106.925 72.5287 99.601C73.1553 94.995 73.455 92.6424 72.9548 90.158C71.9708 85.3101 69.3257 82.3943 70.8387 79.7311C71.4173 78.7869 72.3196 78.0854 73.3774 77.7576C74.1226 77.5427 74.9118 77.531 75.6629 77.7241C76.4141 77.9171 77.1 78.3077 77.6493 78.8552C78.9475 80.2852 78.3824 82.2731 79.0143 82.4086C79.7979 82.5765 80.2782 79.4365 82.7608 78.3152C83.3825 78.0542 84.0515 77.9247 84.7257 77.9343C85.4 77.944 86.0649 78.0925 86.679 78.3712C87.293 78.6499 87.8428 79.0527 88.2939 79.5539C88.745 80.055 89.0877 80.6438 89.3005 81.2836C89.9939 84.1292 86.018 85.8716 81.9754 92.433C80.6631 94.5626 79.574 96.8216 78.7254 99.1748C77.3728 103.172 76.6598 107.358 76.6129 111.577C76.4288 115.199 76.5702 118.83 77.0354 122.427" stroke="#2D2D2D" stroke-miterlimit="10" stroke-linecap="round"/>
</svg>
