<svg width="58" height="63" viewBox="0 0 58 63" fill="none" xmlns="http://www.w3.org/2000/svg">
<path d="M15.6626 6.30637C15.9257 8.91164 16.2299 12.6881 16.2965 17.265C16.6211 21.1465 16.4079 25.0548 15.6626 28.8768C14.48 33.2648 12.603 34.8169 8.71292 40.7187C5.95044 44.9197 3.48315 49.311 1.32903 53.8603C0.96894 54.484 0.748668 55.1798 0.683487 55.8986C0.618306 56.6174 0.709739 57.3418 0.951689 58.021C1.27122 58.7701 1.76526 59.4301 2.39178 59.945C3.01829 60.4599 3.75878 60.8145 4.55017 60.9784C7.45746 61.2184 11.5696 61.5354 16.5345 61.817C17.0989 61.849 21.4803 62.0922 27.3392 62.2042C31.6757 62.2371 36.0046 61.8264 40.259 60.9784C41.114 60.9243 41.9489 60.6938 42.7123 60.3013C43.4757 59.9088 44.1511 59.3626 44.6973 58.6963C45.0646 57.9036 45.261 57.0413 45.2736 56.1662C45.2862 55.2912 45.1148 54.4234 44.7705 53.6203C41.8346 44.4474 33.1414 39.2497 30.2848 29.0079C29.4448 25.4617 29.0766 21.8184 29.1907 18.1741C29.121 13.9607 29.464 9.75071 30.2148 5.60547L15.6626 6.30637Z" fill="white" stroke="#2D2D2D" stroke-width="0.4" stroke-miterlimit="10" stroke-linecap="round"/>
<path d="M12.8615 1.90357C12.554 2.46235 12.3996 3.09357 12.4141 3.7326C12.4286 4.37164 12.6115 4.99537 12.9439 5.53937C13.578 6.55395 14.8462 7.22603 22.636 7.21643C30.4258 7.20682 31.6335 6.55075 32.239 5.53937C32.5444 4.99741 32.7037 4.38403 32.7003 3.76054C32.697 3.13705 32.5312 2.52538 32.2201 1.98679C31.2879 0.501722 29.3667 0.66173 22.2935 0.645727C15.6165 0.636125 13.7461 0.485716 12.8615 1.90357Z" fill="#FF8E93" stroke="#2D2D2D" stroke-width="0.4" stroke-miterlimit="10" stroke-linecap="round"/>
<path d="M9.63623 54.0024C10.6349 56.422 15.2891 56.4508 24.2519 56.406C35.5482 56.3419 36.6896 54.8409 37.0447 54.0632C37.7137 52.5621 36.7657 50.7921 35.0632 47.6235C33.9054 44.7638 31.8025 42.397 29.1121 40.9249C27.3225 40.2158 25.3994 39.9162 23.4814 40.0478C21.7235 39.944 19.9634 40.2066 18.3104 40.8192C15.4804 42.2934 13.2408 44.708 11.9695 47.6556C10.0324 50.9746 9.0814 52.6454 9.63623 54.0024Z" fill="#E6F1FF" stroke="#2D2D2D" stroke-width="0.4" stroke-miterlimit="10"/>
<path d="M30.56 47.4409L41.1303 61.565C41.2843 61.7705 41.4834 61.9372 41.7119 62.052C41.9405 62.1667 42.1923 62.2265 42.4476 62.2265C42.7028 62.2265 42.9547 62.1667 43.1832 62.052C43.4118 61.9372 43.6109 61.7705 43.7649 61.565L54.3351 47.4409C56.006 45.2083 57.027 42.5496 57.2832 39.7634C57.5395 36.9773 57.0209 34.1742 55.7857 31.6693C54.5505 29.1643 52.6477 27.0569 50.2911 25.5837C47.9346 24.1105 45.2178 23.3301 42.446 23.3301C39.6742 23.3301 36.9574 24.1105 34.6008 25.5837C32.2443 27.0569 30.3415 29.1643 29.1063 31.6693C27.8711 34.1742 27.3525 36.9773 27.6087 39.7634C27.865 42.5496 28.8859 45.2083 30.5568 47.4409H30.56Z" fill="#86BCFF" stroke="#2D2D2D" stroke-width="0.4"/>
<path d="M42.1679 43.2005C45.8398 43.2005 48.8163 40.1956 48.8163 36.4889C48.8163 32.7822 45.8398 29.7773 42.1679 29.7773C38.4961 29.7773 35.5195 32.7822 35.5195 36.4889C35.5195 40.1956 38.4961 43.2005 42.1679 43.2005Z" fill="white"/>
<path d="M42.1686 42.5609C45.4902 42.5609 48.1829 39.8426 48.1829 36.4894C48.1829 33.1363 45.4902 30.418 42.1686 30.418C38.847 30.418 36.1543 33.1363 36.1543 36.4894C36.1543 39.8426 38.847 42.5609 42.1686 42.5609Z" stroke="black" stroke-width="0.4"/>
</svg>
