<svg width="72" height="72" viewBox="0 0 72 72" fill="none" xmlns="http://www.w3.org/2000/svg">
<path d="M24.7658 21.1011C26.5366 21.1011 27.9721 19.5709 27.9721 17.6834C27.9721 15.7958 26.5366 14.2656 24.7658 14.2656C22.9951 14.2656 21.5596 15.7958 21.5596 17.6834C21.5596 19.5709 22.9951 21.1011 24.7658 21.1011Z" fill="white" stroke="#2D2D2D" stroke-width="0.4" stroke-miterlimit="10" stroke-linecap="round"/>
<path d="M48.4436 21.1011C50.2143 21.1011 51.6498 19.5709 51.6498 17.6834C51.6498 15.7958 50.2143 14.2656 48.4436 14.2656C46.6728 14.2656 45.2373 15.7958 45.2373 17.6834C45.2373 19.5709 46.6728 21.1011 48.4436 21.1011Z" fill="white" stroke="#2D2D2D" stroke-width="0.4" stroke-miterlimit="10" stroke-linecap="round"/>
<path d="M31.2948 30.0034L31.0518 36.9783L41.4535 36.7668L41.0913 24.3086L31.2948 30.0034Z" fill="white" stroke="#2D2D2D" stroke-width="0.4" stroke-miterlimit="10" stroke-linecap="round"/>
<path d="M36.6369 30.788C43.0837 30.788 48.3099 24.6794 48.3099 17.144C48.3099 9.60863 43.0837 3.5 36.6369 3.5C30.19 3.5 24.9639 9.60863 24.9639 17.144C24.9639 24.6794 30.19 30.788 36.6369 30.788Z" fill="white" stroke="#2D2D2D" stroke-width="0.4" stroke-miterlimit="10" stroke-linecap="round"/>
<path d="M36.6347 68.4755C44.3067 68.4755 50.5262 60.8095 50.5262 51.353C50.5262 41.8965 44.3067 34.2305 36.6347 34.2305C28.9626 34.2305 22.7432 41.8965 22.7432 51.353C22.7432 60.8095 28.9626 68.4755 36.6347 68.4755Z" fill="#86BCFF" stroke="#2D2D2D" stroke-width="0.4" stroke-miterlimit="10" stroke-linecap="round"/>
<path d="M54.7244 33.3945H18.2947C15.7696 33.3945 13.7227 35.4415 13.7227 37.9665V57.9465C13.7227 60.4716 15.7696 62.5185 18.2947 62.5185H54.7244C57.2495 62.5185 59.2964 60.4716 59.2964 57.9465V37.9665C59.2964 35.4415 57.2495 33.3945 54.7244 33.3945Z" fill="#FF8E93" stroke="#2D2D2D" stroke-width="0.4" stroke-miterlimit="10" stroke-linecap="round"/>
<path d="M41.3417 40.4663C40.8788 40.4571 40.4169 40.4218 39.958 40.3605C39.0194 40.2463 38.0752 40.1853 37.1297 40.1782C36.2584 40.1745 35.3876 40.2228 34.522 40.3224C33.399 40.5515 32.2316 40.3987 31.2055 39.8881C29.9707 39.2216 28.9219 38.257 28.1545 37.0822C28.0514 36.9156 28.0162 36.7157 28.0561 36.5238C28.096 36.332 28.2081 36.1628 28.3691 36.0512C28.5301 35.9395 28.7278 35.8939 28.9215 35.9237C29.1152 35.9535 29.29 36.0566 29.41 36.2116C30.0346 37.1784 30.8897 37.9748 31.8985 38.5291C32.6666 38.9052 33.5419 39.0014 34.3735 38.8013C35.0665 38.7338 35.9485 38.6595 37.1365 38.6505C38.1368 38.656 39.136 38.7198 40.129 38.8417C41.0238 39.08 41.9755 38.9733 42.7952 38.5426C43.732 37.9748 44.5129 37.1829 45.0677 36.2385C45.176 36.0672 45.3479 35.946 45.5456 35.9015C45.7433 35.8569 45.9506 35.8929 46.1218 36.0012C46.2931 36.1095 46.4143 36.2814 46.4589 36.4791C46.5034 36.6768 46.4675 36.884 46.3592 37.0553C45.6694 38.2133 44.703 39.1818 43.5467 39.8744C42.8802 40.2709 42.1172 40.4758 41.3417 40.4663Z" fill="#FFEEF0"/>
<path d="M42.8244 43.8455C42.2664 43.8455 41.6814 43.796 41.0064 43.742C40.0276 43.661 38.8104 43.5596 37.1409 43.5574C35.5524 43.5574 34.4724 43.6385 33.5769 43.7038C32.1549 43.928 30.6993 43.7901 29.3446 43.3031C27.8078 42.709 26.4298 41.7663 25.3194 40.5491C25.1812 40.3999 25.108 40.2021 25.1158 39.9989C25.1236 39.7957 25.2118 39.604 25.361 39.4658C25.5102 39.3277 25.7081 39.2545 25.9113 39.2623C26.1145 39.2701 26.3062 39.3581 26.4444 39.5073C27.3962 40.5506 28.5758 41.3606 29.8914 41.8743C31.0383 42.2794 32.27 42.384 33.4689 42.1781C34.3914 42.1106 35.6289 42.032 37.1499 42.0297C38.8801 42.0297 40.1311 42.1355 41.1369 42.2187C42.4293 42.4665 43.7652 42.3503 44.9956 41.8833C46.2166 41.3583 47.296 40.5518 48.1456 39.5298C48.2772 39.3758 48.4645 39.2806 48.6665 39.2648C48.8684 39.2489 49.0683 39.3139 49.2222 39.4455C49.3762 39.5771 49.4716 39.7643 49.4874 39.9662C49.5032 40.1681 49.4382 40.3682 49.3066 40.5221C48.3039 41.7262 47.0301 42.6753 45.5896 43.2918C44.7173 43.6696 43.7749 43.8584 42.8244 43.8455Z" fill="#FFEEF0"/>
<path d="M42.8244 47.6853C42.2664 47.6853 41.6814 47.6358 41.0064 47.5818C40.0276 47.5008 38.8104 47.3995 37.1409 47.3972C35.5276 47.3972 34.4724 47.4759 33.5769 47.5434C32.155 47.7674 30.6997 47.6307 29.3446 47.1454C27.808 46.5499 26.4302 45.6062 25.3194 44.3889C25.1812 44.2397 25.108 44.0419 25.1158 43.8388C25.1236 43.6356 25.2118 43.4438 25.361 43.3057C25.5102 43.1675 25.7081 43.0943 25.9113 43.1021C26.1145 43.1099 26.3062 43.1979 26.4444 43.3471C27.3959 44.3919 28.5765 45.2021 29.8936 45.7141C31.0404 46.1202 32.2723 46.2248 33.4711 46.0179C34.3914 45.9504 35.5726 45.8763 37.1499 45.8696C38.8824 45.8696 40.1334 45.9753 41.1369 46.0585C42.4293 46.3071 43.7654 46.1909 44.9956 45.7232C46.2163 45.1977 47.2956 44.3913 48.1456 43.3696C48.2772 43.2157 48.4645 43.1204 48.6665 43.1046C48.8684 43.0888 49.0683 43.1537 49.2222 43.2853C49.3762 43.4169 49.4716 43.6042 49.4874 43.8061C49.5032 44.008 49.4382 44.208 49.3066 44.362C48.3036 45.5656 47.0298 46.5147 45.5896 47.1316C44.7174 47.5097 43.7749 47.6986 42.8244 47.6853Z" fill="#FFEEF0"/>
<path d="M41.7293 52.1917C41.2455 52.1917 40.7393 52.1422 40.1543 52.086C39.0743 51.9704 37.9891 51.9097 36.903 51.9039C35.6003 51.9039 34.653 51.9825 33.906 52.0478C32.6648 52.2756 31.384 52.1306 30.225 51.6314C28.867 50.9974 27.6839 50.0423 26.778 48.8483C26.6524 48.6896 26.595 48.4874 26.6184 48.2863C26.6418 48.0853 26.7442 47.9016 26.9029 47.776C27.0616 47.6504 27.2638 47.593 27.4648 47.6165C27.6659 47.6399 27.8494 47.7423 27.975 47.901C28.7295 48.9021 29.7165 49.7043 30.8505 50.2386C31.7734 50.6304 32.7937 50.7317 33.7755 50.5289C34.8169 50.4235 35.8631 50.3731 36.9098 50.3781C38.044 50.3833 39.1772 50.4467 40.305 50.5674C41.3613 50.8117 42.4687 50.6999 43.455 50.2499C44.5062 49.7019 45.4069 48.9047 46.0785 47.9279C46.1376 47.8467 46.2121 47.778 46.2978 47.7255C46.3835 47.673 46.4787 47.6379 46.5779 47.6222C46.6772 47.6066 46.7785 47.6105 46.8762 47.634C46.9739 47.6575 47.066 47.7002 47.1473 47.7593C47.2285 47.8184 47.2973 47.8928 47.3498 47.9785C47.4023 48.0641 47.4373 48.1594 47.453 48.2586C47.4687 48.3579 47.4646 48.4592 47.4411 48.5569C47.4176 48.6546 47.3751 48.7467 47.316 48.828C46.4996 50.0064 45.4074 50.9674 44.1345 51.627C43.3911 52.0094 42.5652 52.2033 41.7293 52.1917Z" fill="#FFEEF0"/>
<path d="M37.388 55.1495H37.3115C37.0249 55.1483 36.7503 55.0339 36.5476 54.8311C36.3449 54.6284 36.2305 54.354 36.2293 54.0673C36.0651 51.3336 35.975 48.4423 35.9818 45.3958C35.9818 42.6171 36.0808 39.9665 36.2293 37.4532C36.2337 37.1674 36.3482 36.8942 36.5488 36.6905C36.6489 36.5894 36.768 36.5092 36.8993 36.4543C37.0306 36.3995 37.1715 36.3712 37.3138 36.3711H37.3903C37.677 36.3723 37.9515 36.4867 38.1543 36.6894C38.357 36.8921 38.4714 37.1666 38.4725 37.4532C38.531 40.0632 38.6976 42.7881 38.6976 45.5016C38.6976 48.4266 38.531 51.2503 38.4725 54.0673V54.0874C38.4536 54.3662 38.3329 54.6285 38.1334 54.8243C37.9339 55.02 37.6695 55.1358 37.3903 55.1495H37.388Z" fill="#FFEEF0"/>
<path d="M45.9131 56.0367C45.6026 55.4112 44.1468 55.7489 37.5881 55.7489C30.6423 55.7489 29.0493 55.3685 28.7141 56.0367C28.0931 57.2742 32.2466 61.1533 37.1111 61.2275C42.1398 61.3018 46.5273 57.2765 45.9131 56.0367Z" fill="#FFEEF0"/>
<path d="M31.8073 15.7747C32.3578 15.7747 32.804 15.3285 32.804 14.778C32.804 14.2275 32.3578 13.7812 31.8073 13.7812C31.2568 13.7812 30.8105 14.2275 30.8105 14.778C30.8105 15.3285 31.2568 15.7747 31.8073 15.7747Z" fill="#2D2D2D"/>
<path d="M41.3473 15.7747C41.8978 15.7747 42.3441 15.3285 42.3441 14.778C42.3441 14.2275 41.8978 13.7812 41.3473 13.7812C40.7968 13.7812 40.3506 14.2275 40.3506 14.778C40.3506 15.3285 40.7968 15.7747 41.3473 15.7747Z" fill="#2D2D2D"/>
<path d="M34.1201 23.3945C34.4478 23.7661 34.8508 24.0638 35.3024 24.2677C35.7539 24.4715 36.2437 24.5769 36.7391 24.5769C37.2345 24.5769 37.7243 24.4715 38.1759 24.2677C38.6274 24.0638 39.0304 23.7661 39.3581 23.3945" fill="white"/>
<path d="M34.1201 23.3945C34.4478 23.7661 34.8508 24.0638 35.3024 24.2677C35.7539 24.4715 36.2437 24.5769 36.7391 24.5769C37.2345 24.5769 37.7243 24.4715 38.1759 24.2677C38.6274 24.0638 39.0304 23.7661 39.3581 23.3945" stroke="#2D2D2D" stroke-width="0.4" stroke-miterlimit="10" stroke-linecap="round"/>
</svg>
