<svg width="48" height="62" viewBox="0 0 48 62" fill="none" xmlns="http://www.w3.org/2000/svg">
<path d="M38.0908 52.9455C38.0908 52.9455 27.9941 53.5476 22.2301 53.5975C16.5183 53.643 7.39406 52.9455 7.39406 52.9455C6.03884 52.9733 4.72296 52.4891 3.70891 51.5896C2.69486 50.6901 2.05719 49.4414 1.92313 48.0925C1.92313 48.0925 0.800781 37.0575 0.800781 26.8268C0.800781 16.746 1.92313 5.55426 1.92313 5.55426C2.11746 4.23058 2.77281 3.01797 3.77367 2.13017C4.77453 1.24237 6.05665 0.736389 7.39406 0.701345C7.39406 0.701345 17.4816 0.199219 22.2369 0.199219C27.1603 0.199219 38.0953 0.701345 38.0953 0.701345C39.44 0.711398 40.7355 1.20871 41.7415 2.10109C42.7475 2.99346 43.3958 4.22033 43.5662 5.55426C43.5662 5.55426 44.5909 16.7438 44.5909 26.8268C44.5909 38.1685 43.5662 48.0925 43.5662 48.0925C43.3637 49.4134 42.7054 50.6218 41.7053 51.5082C40.7052 52.3946 39.4265 52.9031 38.0908 52.9455Z" fill="white" stroke="#2D2D2D" stroke-width="0.4" stroke-miterlimit="10"/>
<path d="M47.7445 53.1042C47.7445 50.3125 46.6355 47.6351 44.6615 45.6611C42.6875 43.6871 40.0101 42.5781 37.2184 42.5781C34.4268 42.5781 31.7494 43.6871 29.7754 45.6611C27.8014 47.6351 26.6924 50.3125 26.6924 53.1042V61.1606C30.1892 61.5303 33.7047 61.6941 37.2207 61.6514C40.7349 61.674 44.2477 61.5103 47.7445 61.1606V53.1042Z" fill="#86BCFF" stroke="#2D2D2D" stroke-width="0.4" stroke-linecap="round" stroke-linejoin="round"/>
<path d="M37.2158 42.5781C40.6476 42.5781 43.4297 39.7961 43.4297 36.3643C43.4297 32.9324 40.6476 30.1504 37.2158 30.1504C33.784 30.1504 31.002 32.9324 31.002 36.3643C31.002 39.7961 33.784 42.5781 37.2158 42.5781Z" fill="#86BCFF" stroke="#2D2D2D" stroke-width="0.4" stroke-linecap="round" stroke-linejoin="round"/>
<path d="M22.4696 14.3419C17.0301 14.9112 11.5447 14.883 6.11133 14.2578L22.4696 14.3419Z" fill="#007ABB"/>
<path d="M22.4696 14.3419C17.0301 14.9112 11.5447 14.883 6.11133 14.2578" stroke="#2D2D2D" stroke-width="0.4" stroke-linecap="round" stroke-linejoin="round"/>
<path d="M22.4696 23.0958C17.0301 23.6651 11.5447 23.6369 6.11133 23.0117L22.4696 23.0958Z" fill="#007ABB"/>
<path d="M22.4696 23.0958C17.0301 23.6651 11.5447 23.6369 6.11133 23.0117" stroke="#2D2D2D" stroke-width="0.4" stroke-linecap="round" stroke-linejoin="round"/>
<path d="M22.4696 31.8575C17.0301 32.4269 11.5447 32.3987 6.11133 31.7734L22.4696 31.8575Z" fill="#007ABB"/>
<path d="M22.4696 31.8575C17.0301 32.4269 11.5447 32.3987 6.11133 31.7734" stroke="#2D2D2D" stroke-width="0.4" stroke-linecap="round" stroke-linejoin="round"/>
<path d="M36.6645 12.0676H34.5129V9.91603C34.5129 9.32913 34.2798 8.76627 33.8648 8.35127C33.4498 7.93627 32.8869 7.70312 32.3 7.70312C31.7131 7.70312 31.1503 7.93627 30.7353 8.35127C30.3203 8.76627 30.0871 9.32913 30.0871 9.91603V12.0676H27.9356C27.3487 12.0676 26.7858 12.3008 26.3708 12.7158C25.9558 13.1308 25.7227 13.6936 25.7227 14.2805C25.7227 14.8674 25.9558 15.4303 26.3708 15.8453C26.7858 16.2603 27.3487 16.4934 27.9356 16.4934H30.0894V18.645C30.0894 19.2319 30.3226 19.7948 30.7376 20.2098C31.1526 20.6248 31.7154 20.8579 32.3023 20.8579C32.8892 20.8579 33.4521 20.6248 33.8671 20.2098C34.2821 19.7948 34.5152 19.2319 34.5152 18.645V16.4934H36.6668C37.2537 16.4934 37.8165 16.2603 38.2315 15.8453C38.6465 15.4303 38.8797 14.8674 38.8797 14.2805C38.8797 13.6936 38.6465 13.1308 38.2315 12.7158C37.8165 12.3008 37.2537 12.0676 36.6668 12.0676H36.6645Z" fill="#FF8E93" stroke="#2D2D2D" stroke-width="0.4" stroke-linecap="round" stroke-linejoin="round"/>
</svg>
