<svg width="49" height="65" viewBox="0 0 49 65" fill="none" xmlns="http://www.w3.org/2000/svg">
<path d="M30.7118 27.6767C33.6012 29.4595 35.7568 32.2592 36.7752 35.5517C37.6686 38.1895 37.5899 41.0706 36.554 43.6532C35.7524 45.2785 34.5941 46.6918 33.1699 47.7823C31.7456 48.8727 30.094 49.6107 28.3445 49.9385C26.6284 50.1947 24.8783 50.0629 23.2173 49.5525C21.5563 49.0421 20.0247 48.1654 18.7301 46.9841H10.0781C11.6978 50.2329 14.219 52.9194 17.3252 54.7061C19.7552 56.0817 22.4645 56.8595 25.2388 56.9782C30.042 57.1238 34.7292 55.4521 38.4042 52.2826C41.4218 49.7281 43.5066 46.2038 44.3197 42.2826C44.9319 38.6359 44.4418 34.8848 42.9148 31.5311C41.3792 27.7631 38.8741 24.4921 35.6663 22.0664L30.7118 27.6767Z" fill="white" stroke="#2D2D2D" stroke-width="0.4" stroke-miterlimit="10"/>
<path d="M37.0615 0.482318C35.9238 0.908789 35.7571 2.01319 34.5303 4.01172C32.6629 7.06319 30.8156 8.12938 28.6192 10.1632C21.7858 16.5014 23.9837 20.7338 16.9837 27.1132C14.3219 29.5397 12.499 30.2985 12.4372 32.2397C12.3452 35.2147 16.4593 38.6529 19.2691 37.9661C20.9426 37.5573 21.5431 35.8441 22.8761 33.4941C27.0793 26.0808 29.8761 27.6764 35.0863 19.6882C38.1187 15.0323 37.7596 13.5823 40.871 10.4073C42.7614 8.47791 44.0744 7.80731 44.1677 6.25143C44.3502 3.19261 39.65 -0.486799 37.0615 0.482318Z" fill="#86BCFF" stroke="#2D2D2D" stroke-width="0.4" stroke-miterlimit="10"/>
<path d="M32.9906 4.53787C33.7275 4.48787 34.1944 4.78492 38.3415 8.16286C41.0335 10.357 41.3179 10.6232 41.4802 11.182C41.9916 12.9349 40.4158 14.4423 37.3274 18.3158C31.1778 26.0261 28.1037 29.8835 27.3667 31.0585C26.5781 32.3187 25.643 33.932 24.0068 34.2085C22.668 34.4335 21.5432 33.6482 19.4603 32.1496C16.9493 30.3393 15.2327 29.1011 15.1063 27.2967C15.023 26.1099 15.6809 25.3187 17.3745 23.2011C20.8882 18.8158 23.4969 15.4555 23.9824 14.8187C25.0497 13.4364 25.9087 12.2437 28.6294 8.71139C31.1318 5.46728 31.8385 4.61581 32.9906 4.53787Z" fill="white" stroke="#2D2D2D" stroke-width="0.4" stroke-miterlimit="10"/>
<path d="M31.0806 16.5977C32.4159 16.5977 33.7212 17.003 34.8315 17.7625C35.9418 18.522 36.8071 19.6014 37.3181 20.8644C37.8292 22.1274 37.9629 23.5171 37.7023 24.8578C37.4418 26.1986 36.7988 27.4302 35.8546 28.3968C34.9104 29.3634 33.7074 30.0217 32.3977 30.2884C31.0881 30.5551 29.7306 30.4182 28.4969 29.8951C27.2632 29.3719 26.2088 28.486 25.4669 27.3494C24.7251 26.2128 24.3291 24.8764 24.3291 23.5094C24.3291 21.6763 25.0404 19.9183 26.3066 18.6221C27.5727 17.3259 29.29 16.5977 31.0806 16.5977V16.5977Z" fill="#FF8E93" stroke="#2D2D2D" stroke-width="0.4"/>
<path d="M16.7051 64.4402C17.2057 62.2664 18.1301 60.2186 19.4229 58.4196C20.8594 56.4314 22.8446 53.552 25.4202 53.6799C27.6138 53.7887 29.1336 56.0078 30.6088 58.1623C31.9041 60.0648 32.8337 62.2024 33.3482 64.4608L16.7051 64.4402Z" fill="#86BCFF" stroke="#2D2D2D" stroke-width="0.4" stroke-miterlimit="10"/>
<path d="M0.291992 64.4434C11.0197 64.6331 10.9981 64.7242 22.0691 64.7037C31.0635 64.688 39.9438 64.6012 48.7102 64.4434" fill="white"/>
<path d="M0.291992 64.4434C11.0197 64.6331 10.9981 64.7242 22.0691 64.7037C31.0635 64.688 39.9438 64.6012 48.7102 64.4434" stroke="#2D2D2D" stroke-width="0.4" stroke-miterlimit="10" stroke-linecap="round"/>
<path d="M3.40234 46.4805C7.41014 46.6442 11.4802 46.7187 15.6125 46.704C18.97 46.6903 22.2864 46.6158 25.5616 46.4805" fill="white"/>
<path d="M3.40234 46.4805C7.41014 46.6442 11.4802 46.7187 15.6125 46.704C18.97 46.6903 22.2864 46.6158 25.5616 46.4805" stroke="#2D2D2D" stroke-width="0.4" stroke-miterlimit="10" stroke-linecap="round"/>
</svg>
