<svg width="86" height="112" viewBox="0 0 86 112" fill="none" xmlns="http://www.w3.org/2000/svg">
<path d="M30.9038 79.2312L20.9809 81.161L20.3613 90.6707L28.6985 93.8411L30.9038 79.2312Z" fill="white"/>
<path d="M21.5449 104.714L28.7427 84.7849L51.0721 88.0666C51.0721 88.0666 52.6812 105.339 51.9588 105.771C51.2364 106.202 21.5449 104.714 21.5449 104.714Z" fill="white"/>
<path d="M33.4784 60.4294C26.0917 62.2413 19.1363 65.4964 13.0126 70.0072C11.7845 71.5445 10.7224 73.2073 9.84391 74.9679C8.58017 77.808 7.58824 80.7613 6.88118 83.7883C5.92527 86.8747 4.70284 89.8721 3.22754 92.7466L13.011 99.8431L17.9735 100.049L18.3173 84.8214L31.9608 76.0009L37.4727 65.7323L33.4784 60.4294Z" fill="white"/>
<path d="M29.1592 31.0667C28.8487 31.0999 25.6482 31.4951 24.8577 33.5495C24.0273 35.7085 25.9174 39.5383 30.3699 41.1742C29.295 37.9197 28.8828 34.483 29.1576 31.0667H29.1592Z" fill="white"/>
<path d="M31.0675 41.8954L30.2188 41.5832C27.8372 40.7926 25.8662 39.0898 24.7382 36.8483C24.4643 36.3201 24.2972 35.7431 24.2467 35.1504C24.1963 34.5576 24.2635 33.9607 24.4442 33.3938C25.2995 31.1767 28.475 30.7067 29.0945 30.6369L29.6208 30.5771L29.5778 31.1036C29.4421 32.8047 29.4781 34.5151 29.6856 36.2089C29.8871 37.8505 30.2505 39.4682 30.7702 41.0384L31.0675 41.8954ZM28.6858 31.5803C27.7275 31.7663 25.8042 32.301 25.2628 33.7061C24.9915 34.6343 25.0909 35.6315 25.5402 36.4879C26.4122 38.2455 27.8783 39.6376 29.6787 40.4173C29.2877 39.0748 29.0058 37.703 28.8354 36.3152C28.6432 34.7446 28.593 33.1598 28.6858 31.5803Z" fill="#2D2D2D"/>
<path d="M58.773 29.2102C59.0852 29.2102 62.3057 29.2434 63.2972 31.2032C64.3418 33.2575 62.842 37.2783 58.5771 39.4041C59.3221 36.0555 59.3886 32.5916 58.773 29.2169V29.2102Z" fill="white"/>
<path d="M57.957 40.1931L58.1545 39.3012C58.8858 36.0098 58.9507 32.6053 58.3455 29.2884L58.2542 28.7769H58.789C59.2408 28.7769 62.5955 28.8483 63.6866 31.0007C64.1614 32.0926 64.1842 33.3282 63.7499 34.4368C62.8565 36.8053 61.0667 38.727 58.7676 39.7862L57.957 40.1931ZM59.2938 29.6687C59.768 32.6172 59.7337 35.6252 59.1925 38.5622C60.9132 37.5791 62.2336 36.0225 62.9228 34.1644C63.2763 33.2735 63.272 32.2805 62.911 31.3926C62.2334 30.0623 60.2488 29.7451 59.2938 29.6687Z" fill="#2D2D2D"/>
<path d="M45.1535 55.1072C53.7056 54.7279 60.1973 44.4733 59.6532 32.2028C59.1091 19.9323 51.7352 10.2925 43.1831 10.6718C34.6311 11.051 28.1393 21.3056 28.6834 33.5761C29.2276 45.8466 36.6014 55.4864 45.1535 55.1072Z" fill="white"/>
<path d="M44.6542 55.5534C41.402 55.484 38.2946 54.196 35.9468 51.9445C31.4959 47.947 28.6194 41.1494 28.2507 33.7806C27.6263 21.2965 34.253 10.7389 43.0319 10.244C44.7523 10.1846 46.4669 10.4721 48.0739 11.0892C49.6808 11.7064 51.1468 12.6406 52.3852 13.8362C56.8344 17.8371 59.711 24.6313 60.0797 31.9985C60.7058 44.4843 54.0778 55.0435 45.2989 55.5351C45.0896 55.5468 44.8734 55.5534 44.6542 55.5534ZM43.6677 11.0959C43.4684 11.0959 43.2725 11.0959 43.0749 11.1125C34.7793 11.5792 28.5216 21.7266 29.1245 33.7357C29.4832 40.8771 32.2517 47.4488 36.5315 51.2968C37.6876 52.4107 39.0545 53.2824 40.5521 53.8607C42.0496 54.4391 43.6476 54.7125 45.2522 54.6649C53.5561 54.1999 59.8072 44.0508 59.2026 32.0417C58.8439 24.9004 56.0754 18.3303 51.7972 14.4806C49.6072 12.3767 46.709 11.1692 43.673 11.0959H43.6677Z" fill="#2D2D2D"/>
<path d="M48.6843 1.17602C44.1384 0.00719112 39.3235 0.516036 35.1224 2.60927C32.7889 3.71617 30.7067 5.28924 29.0043 7.23152C27.302 9.17379 26.0156 11.4441 25.2242 13.9026C22.9256 21.9574 26.8846 30.615 28.7497 30.4921C30.4105 30.3825 29.3346 23.3375 33.7539 20.3282C36.7433 18.2887 38.5437 20.6155 44.0093 18.6076C48.2377 17.0548 49.2504 14.8957 51.7732 15.467C54.1165 15.9985 55.5349 18.3834 56.6128 20.197C59.3963 24.882 58.7718 28.755 59.6238 28.853C60.9524 29.0041 65.6025 19.9229 62.535 11.805C59.4858 3.73695 50.7088 1.65432 48.6843 1.17602Z" fill="#474747"/>
<path d="M28.7116 30.9357C28.394 30.8913 28.0901 30.7778 27.8212 30.603C27.5523 30.4282 27.325 30.1965 27.1554 29.9243C24.9964 27.2571 22.9868 20.1656 24.807 13.7898C25.5856 11.2615 26.8877 8.92531 28.6285 6.93325C30.3693 4.94119 32.5099 3.33784 34.9112 2.22746C39.2023 0.0640162 44.135 -0.460899 48.7853 0.751025L48.684 1.17453L48.787 0.751025C57.8997 2.91004 61.5118 7.87744 62.9401 11.6574C63.8741 14.4255 64.1764 17.3678 63.824 20.2679C63.4717 23.168 62.4739 25.9524 60.9043 28.4163C60.406 29.0508 59.9758 29.3381 59.5756 29.2916C58.9113 29.2152 58.7899 28.4728 58.5789 27.2455C58.2533 24.8413 57.4588 22.5244 56.2406 20.4263C55.1694 18.6244 53.8394 16.3873 51.6804 15.8974C50.38 15.6017 49.5561 16.1166 48.1926 16.9719C46.931 17.803 45.5806 18.4909 44.1667 19.023C42.1692 19.7865 40.0242 20.0847 37.8942 19.8949C36.5444 19.6607 35.1558 19.9461 34.0078 20.6937C31.4851 22.4126 30.8522 25.5681 30.3805 27.8733C30.0301 29.6121 29.776 30.8627 28.7878 30.9324L28.7116 30.9357ZM43.6587 1.00014C39.6787 1.0426 35.81 2.3183 32.5854 4.65144C29.3608 6.98458 26.939 10.2603 25.654 14.0273C24.9392 16.5988 24.7648 19.2904 25.1415 21.9326C25.5182 24.5748 26.4382 27.1104 27.8431 29.3796C28.2633 29.9011 28.5853 30.1004 28.7315 30.0655C29.0636 30.0439 29.3193 28.7369 29.5302 27.7022C30.0285 25.2525 30.703 21.8895 33.5164 19.9746C34.8204 19.1201 36.3957 18.7821 37.9355 19.0263C39.9485 19.213 41.9776 18.9328 43.8646 18.2075C45.2218 17.6935 46.5182 17.0319 47.7307 16.2345C48.2951 15.7471 48.9591 15.3885 49.6762 15.1837C50.3932 14.9789 51.146 14.9328 51.8827 15.0487C54.4087 15.62 55.9052 18.1411 56.9996 19.9779C58.2689 22.171 59.101 24.5895 59.4495 27.0993C59.508 27.5376 59.6023 27.9703 59.7317 28.3931C60.253 27.943 60.6689 27.384 60.9505 26.7556C62.1254 24.4959 62.836 22.0239 63.0403 19.4853C63.2445 16.9468 62.9383 14.393 62.1397 11.9746C60.7862 8.39063 57.3403 3.68231 48.6013 1.60633L48.6974 1.18283L48.596 1.60633C46.9766 1.21267 45.3167 1.00978 43.6501 1.0018L43.6587 1.00014Z" fill="#2D2D2D"/>
<path d="M36.7874 52.436C36.8851 54.7594 36.653 57.085 36.0981 59.3432C32.8911 72.2973 19.8707 78.3907 17.0108 79.6529C16.1384 85.9462 15.266 92.2395 14.3936 98.5327L27.072 110.246L62.4897 108.585L70.895 92.6004L61.7522 67.4163L51.605 58.3102L51.1067 53.5903C48.9377 55.0331 46.3462 55.7038 43.7496 55.4944C41.1529 55.285 38.7025 54.2077 36.7926 52.436H36.7874Z" fill="white"/>
<path d="M13.4134 102.602C11.5584 102.601 9.70497 102.49 7.86303 102.27C3.85058 101.793 1.52866 101.439 0.447487 99.7271C-0.673541 97.9501 0.447798 95.8293 2.30289 92.3167C2.99876 90.9981 3.78581 89.5067 4.62782 87.733C6.11051 84.7067 7.28719 81.5399 8.14036 78.2798C8.42962 77.0814 8.8184 75.9092 9.30283 74.7756C9.30283 74.7656 9.45402 74.4666 9.69816 74.0182C9.71809 73.985 10.1649 73.1696 10.6798 72.384C14.8749 65.9784 25.7097 62.3346 26.1697 62.1835C27.9003 61.6105 29.3387 61.2468 30.4879 60.9529C32.9592 60.3267 34.321 59.9813 35.3657 58.4733C36.455 56.6827 36.8056 54.5389 36.3437 52.4945C36.3344 52.438 36.3365 52.3802 36.3497 52.3245C36.363 52.2688 36.3874 52.2162 36.4211 52.1699C36.4548 52.1236 36.4971 52.0844 36.546 52.0546C36.5949 52.0248 36.6491 52.0049 36.7057 51.9963C36.7625 51.9856 36.8209 51.9867 36.8772 51.9995C36.9336 52.0122 36.9871 52.0364 37.0338 52.0705C37.0804 52.1045 37.1196 52.1478 37.1489 52.1976C37.1782 52.2474 37.1969 52.3026 37.204 52.36C37.703 54.6231 37.3008 56.9916 36.0829 58.9632C34.8523 60.7403 33.2895 61.1372 30.702 61.7866C29.5611 62.0755 28.138 62.4359 26.439 62.9989C26.3277 63.0355 15.433 66.7008 11.4039 72.849C10.9057 73.6064 10.4621 74.4185 10.4588 74.4251C10.2263 74.8503 10.087 75.1343 10.0854 75.1376C9.62007 76.2243 9.24654 77.3482 8.96913 78.4974C8.10281 81.8067 6.90837 85.0213 5.40348 88.0934C4.55648 89.8853 3.76439 91.3883 3.06354 92.712C1.29647 96.0568 0.321653 97.9003 1.1753 99.2522C2.00569 100.561 3.8774 100.913 7.95628 101.393C11.8812 101.859 15.8494 101.82 19.7642 101.275C19.8208 101.267 19.8784 101.27 19.9337 101.285C19.989 101.299 20.0409 101.324 20.0866 101.358C20.1322 101.393 20.1707 101.436 20.1997 101.485C20.2287 101.534 20.2477 101.589 20.2556 101.645C20.2636 101.702 20.2606 101.76 20.2463 101.815C20.232 101.87 20.2069 101.922 20.1725 101.968C20.1381 102.013 20.0948 102.052 20.0456 102.081C19.9964 102.11 19.942 102.129 19.8854 102.137C17.7414 102.441 15.5789 102.596 13.4134 102.602Z" fill="#2D2D2D"/>
<path d="M67.1051 99.9814C70.6135 100.367 74.1569 100.298 77.6476 99.7755C81.5272 99.1942 83.7679 98.7939 84.6763 97.1564C85.7442 95.2299 84.2575 92.8268 81.3677 87.6468C75.5218 77.1639 74.8908 74.7375 73.4409 72.8658C73.4409 72.8658 72.8249 72.1467 72.1373 71.4874C69.1695 68.6375 59.6316 63.7365 59.6316 63.7365C54.1244 60.9132 52.5582 59.9981 51.6598 57.9487C51.084 56.5724 50.8933 55.0654 51.1083 53.5891" fill="white"/>
<path d="M71.572 100.662C70.0629 100.662 68.5549 100.579 67.0548 100.415C66.94 100.402 66.8347 100.345 66.7624 100.255C66.6902 100.165 66.6566 100.049 66.6692 99.9348C66.6817 99.82 66.7393 99.715 66.8293 99.6427C66.9193 99.5704 67.0345 99.5369 67.1492 99.5494C70.6208 99.9284 74.1266 99.8598 77.5806 99.3452C81.329 98.7838 83.4863 98.3969 84.2935 96.9453C85.1787 95.351 83.9612 93.1621 81.5116 88.8075L80.9853 87.8659C77.9178 82.367 76.2934 79.0936 75.2172 76.9296C74.6328 75.6028 73.9223 74.3353 73.095 73.1447L73.0864 73.1331C72.9337 72.967 72.4041 72.3591 71.8328 71.8044C68.9447 69.0326 59.5247 64.1765 59.4284 64.1266C53.996 61.3349 52.232 60.3467 51.2538 58.1262C50.6429 56.6795 50.441 55.0929 50.6695 53.5391C50.6766 53.4824 50.6948 53.4277 50.7231 53.378C50.7513 53.3283 50.789 53.2847 50.8342 53.2496C50.8793 53.2145 50.9307 53.1887 50.9858 53.1735C51.0409 53.1584 51.0986 53.1542 51.1553 53.1613C51.212 53.1684 51.2666 53.1866 51.3163 53.2148C51.3659 53.2431 51.4097 53.2808 51.4448 53.326C51.4799 53.3711 51.5055 53.4226 51.5206 53.4777C51.5358 53.5328 51.5399 53.5904 51.5328 53.6471C51.3235 55.0443 51.5028 56.4721 52.051 57.7741C52.8813 59.6425 54.1653 60.4414 59.827 63.351C60.2172 63.552 69.4596 68.3135 72.4357 71.175C73.1299 71.8393 73.7424 72.5551 73.764 72.5866L73.869 72.7228C74.69 73.9299 75.4006 75.2083 75.9928 76.5426C77.0657 78.7017 78.6869 81.9601 81.7427 87.4407L82.2674 88.3824C84.8665 93.0325 86.1703 95.3576 85.0509 97.3738C84.0544 99.1841 81.7292 99.6109 77.7051 100.212C75.6746 100.514 73.6248 100.664 71.572 100.662Z" fill="#2D2D2D"/>
<path d="M19.0088 110.889C18.9823 110.891 18.9555 110.891 18.929 110.889C18.8156 110.867 18.7157 110.802 18.6504 110.707C18.5851 110.611 18.5598 110.494 18.5803 110.381C19.915 103.122 19.915 95.6797 18.5803 88.4204C18.5693 88.3641 18.5696 88.3062 18.5811 88.2501C18.5925 88.1939 18.6151 88.1406 18.6472 88.0931C18.6792 88.0456 18.7202 88.0049 18.768 87.9732C18.8158 87.9416 18.8694 87.9198 18.9257 87.9089C18.982 87.8979 19.0398 87.8982 19.096 87.9097C19.1522 87.9211 19.2054 87.9435 19.2529 87.9756C19.3004 88.0077 19.3413 88.0488 19.3729 88.0966C19.4045 88.1444 19.4265 88.198 19.4374 88.2543C20.7892 95.6181 20.7892 103.167 19.4374 110.53C19.4195 110.631 19.3665 110.722 19.2882 110.788C19.2099 110.853 19.111 110.889 19.0088 110.889Z" fill="#211F20"/>
<path d="M67.8366 110.889C67.7347 110.889 67.6358 110.854 67.5573 110.789C67.4787 110.724 67.4254 110.634 67.4064 110.534C66.0546 103.17 66.0546 95.6214 67.4064 88.2576C67.4284 88.1437 67.4948 88.0432 67.5909 87.9783C67.687 87.9134 67.8047 87.8893 67.9185 87.9113C68.0324 87.9333 68.1329 87.9997 68.1979 88.0957C68.2628 88.1918 68.2868 88.3098 68.2648 88.4236C66.9301 95.683 66.9301 103.125 68.2648 110.384C68.2852 110.498 68.2603 110.615 68.195 110.71C68.1298 110.805 68.0294 110.871 67.9161 110.892C67.8895 110.893 67.8631 110.892 67.8366 110.889Z" fill="#211F20"/>
<path d="M7.29456 110.957H7.2832C7.16808 110.954 7.05889 110.906 6.97951 110.822C6.90013 110.739 6.85681 110.627 6.85949 110.512L7.06547 101.899C7.06465 101.841 7.07584 101.784 7.09831 101.731C7.12078 101.677 7.15405 101.629 7.19603 101.59C7.23801 101.55 7.28798 101.519 7.3424 101.5C7.39682 101.48 7.45458 101.472 7.51229 101.476C7.56936 101.477 7.62559 101.49 7.67772 101.513C7.72985 101.537 7.77679 101.57 7.81598 101.612C7.85518 101.653 7.88573 101.702 7.906 101.755C7.92626 101.809 7.93574 101.866 7.93397 101.923L7.728 110.535C7.72539 110.648 7.67849 110.756 7.59744 110.835C7.51638 110.914 7.40766 110.958 7.29456 110.957Z" fill="#2D2D2D"/>
<path d="M77.3015 111.027C77.1875 111.026 77.0784 110.981 76.9974 110.901C76.9163 110.821 76.8698 110.712 76.868 110.598L76.7286 99.9179C76.7277 99.8608 76.7383 99.8042 76.7594 99.7511C76.7805 99.6981 76.8116 99.6497 76.8514 99.6088C76.8912 99.5679 76.9389 99.5353 76.9913 99.5128C77.0438 99.4903 77.1001 99.4784 77.1571 99.4778C77.2714 99.4778 77.381 99.5227 77.4625 99.6029C77.5439 99.683 77.5905 99.792 77.5922 99.9063L77.7301 110.587C77.7312 110.644 77.721 110.701 77.7001 110.754C77.6791 110.807 77.6479 110.856 77.608 110.897C77.5682 110.938 77.5207 110.971 77.4681 110.993C77.4156 111.016 77.3587 111.028 77.3015 111.029V111.027Z" fill="#2D2D2D"/>
<path d="M54.8806 92.2068C54.5174 92.5446 54.1288 92.8538 53.7181 93.1318C51.393 94.781 50.4082 94.9454 50.3284 95.8157C50.2687 96.4949 50.8464 96.6593 51.9126 98.6124C52.6782 100.014 52.6734 100.466 53.0122 100.526C53.8526 100.68 54.3625 98.0212 56.2774 95.2776C56.4817 94.9836 56.6843 94.7162 56.8986 94.4571" fill="#FFA6AB"/>
<path d="M53.1044 100.971C53.0487 100.971 52.9929 100.966 52.9381 100.956C52.5113 100.881 52.3652 100.552 52.1426 100.056C52.0147 99.7701 51.837 99.3715 51.5381 98.8218C51.2152 98.2265 50.849 97.6559 50.4421 97.1145C50.2658 96.9401 50.1269 96.7316 50.0338 96.5018C49.9407 96.2719 49.8956 96.0255 49.9008 95.7776C49.9739 94.9887 50.5302 94.6499 51.545 94.0338C52.0432 93.7249 52.6774 93.3412 53.4729 92.7782C53.8652 92.5112 54.2365 92.2147 54.5839 91.8914L55.1803 92.5225C54.8055 92.8747 54.4032 93.1967 53.9777 93.4857C53.1573 94.067 52.5148 94.4606 51.9983 94.7745C51.0865 95.3292 50.7992 95.5202 50.7693 95.8556C50.7527 96.0483 50.8159 96.1529 51.1448 96.5997C51.5753 97.1726 51.9637 97.776 52.3072 98.405C52.6211 98.9812 52.8052 99.4014 52.943 99.6987C53.0017 99.8484 53.0742 99.9923 53.1591 100.129C53.4832 99.6085 53.7664 99.0638 54.0061 98.4996C54.5475 97.2897 55.1925 96.1289 55.9341 95.0302C56.145 94.7263 56.3563 94.449 56.5772 94.1816L57.2413 94.7346C57.0354 94.9837 56.8377 95.2428 56.64 95.5268C55.9274 96.5859 55.3074 97.7045 54.7866 98.87C54.1954 100.117 53.7919 100.971 53.1044 100.971Z" fill="#2D2D2D"/>
<path d="M61.782 98.046C60.9068 99.6669 61.0862 100.248 60.7075 100.323C59.8888 100.477 59.3107 97.7089 56.9059 94.4587C56.6518 94.1149 56.3794 93.7695 56.0755 93.4207C55.7043 92.9894 55.3044 92.5837 54.8782 92.2067C54.4109 91.7751 53.9758 91.3099 53.5762 90.815C52.0948 88.9881 51.271 87.9717 51.1714 86.4355C51.1297 85.6418 51.2664 84.8489 51.5716 84.1151C51.8768 83.3814 52.3429 82.7254 52.9352 82.1955C53.6011 81.6278 54.3939 81.229 55.2467 81.0329C56.3115 80.7651 57.4237 80.7463 58.4969 80.9781C59.5967 81.054 60.632 81.525 61.4118 82.3042C62.1916 83.0834 62.6634 84.1184 62.7401 85.2181C62.8828 86.0372 62.9016 86.8731 62.7953 87.6977C62.4814 89.7105 60.9683 90.6206 59.168 92.1502L57.0486 90.3234L57.2299 90.1971C58.469 89.5009 59.4609 88.4364 60.0681 87.1513C60.2687 86.6337 60.3339 86.0735 60.2575 85.5237C60.198 85.0114 59.99 84.5277 59.6594 84.132C59.299 83.8228 58.8743 83.5974 58.4162 83.4722C57.9582 83.347 57.4781 83.325 57.0105 83.4079C56.6418 83.4295 54.3883 83.5507 53.9233 84.8395C53.7988 85.3698 53.8368 85.9255 54.0328 86.4338C54.1895 86.9837 54.4329 87.505 54.7537 87.9783C55.4261 88.8314 56.1759 89.6203 56.9939 90.335C57.3526 90.6854 57.4922 90.8249 57.6998 90.9993C58.2628 91.4975 58.7296 91.8081 59.1663 92.1469C60.955 93.5386 61.9399 94.2843 62.3817 94.5816C62.6654 94.7304 62.8887 94.9727 63.0142 95.2675C63.2683 95.9999 62.546 96.6244 61.782 98.046Z" fill="#FF8E93"/>
<path d="M60.6259 100.766C59.9748 100.766 59.5744 99.9742 58.9399 98.7253C58.2636 97.3221 57.465 95.9811 56.5534 94.7179C56.3059 94.3857 56.0388 94.0436 55.7465 93.7015C55.4089 93.3074 55.0449 92.9368 54.657 92.5921C54.1499 92.1286 53.677 91.6291 53.242 91.0974C51.7473 89.2456 50.847 88.1412 50.7374 86.4704C50.6894 85.6099 50.8366 84.7497 51.1676 83.954C51.4986 83.1583 52.005 82.4476 52.6492 81.875C53.3681 81.2656 54.2222 80.8369 55.1403 80.6245C56.2721 80.3412 57.4534 80.3202 58.5945 80.563C59.7775 80.6555 60.8889 81.1671 61.7283 82.0059C62.5677 82.8447 63.0801 83.9555 63.1734 85.1385C63.3283 86.0093 63.3487 86.8988 63.2334 87.7758C63.0302 88.6113 62.6638 89.3985 62.1557 90.0922C61.6475 90.7859 61.0073 91.3724 60.2719 91.8181L59.8685 92.1503C61.3731 93.3128 62.2335 93.9672 62.6337 94.2379C62.9975 94.4384 63.2803 94.7589 63.4341 95.1447C63.6749 95.8372 63.298 96.4235 62.8247 97.1625C62.6287 97.4714 62.3997 97.8268 62.1606 98.2587C61.8714 98.7834 61.6384 99.3373 61.466 99.9111C61.3431 100.301 61.2286 100.67 60.7868 100.756C60.7335 100.764 60.6798 100.768 60.6259 100.766ZM56.9722 81.2622C56.4295 81.2586 55.8886 81.325 55.3629 81.4598C54.5755 81.6385 53.8423 82.0036 53.2253 82.5244C52.6842 83.0111 52.2583 83.6123 51.9785 84.2842C51.6987 84.9562 51.5722 85.682 51.6079 86.409C51.6993 87.804 52.4812 88.7706 53.9061 90.5277C54.2964 91.012 54.7218 91.4672 55.1785 91.8896C55.6176 92.2774 56.0298 92.6946 56.4123 93.1385C56.7179 93.4939 56.9953 93.8476 57.2561 94.2014C58.1972 95.5034 59.0212 96.8862 59.7188 98.3334C59.956 98.8586 60.2442 99.3592 60.5792 99.8281C60.5992 99.7716 60.6193 99.7035 60.6393 99.6421C60.8286 99.0155 61.0826 98.4105 61.3979 97.8368C61.642 97.3834 61.8812 97.0064 62.0872 96.6876C62.5073 96.0232 62.705 95.7044 62.607 95.4187C62.5205 95.2318 62.3745 95.0787 62.1918 94.9836C61.7151 94.6647 60.795 93.9689 59.1824 92.7166L59.1678 92.7282L58.8953 92.4924C58.7675 92.3911 58.6362 92.2948 58.5 92.1951C58.1679 91.951 57.8173 91.6969 57.4154 91.3332C57.2078 91.1472 57.0582 91.001 56.6929 90.6489C55.8498 89.9161 55.0803 89.1029 54.3947 88.2209C54.047 87.7076 53.7841 87.1418 53.6158 86.5452C53.3934 85.9527 53.3591 85.306 53.5177 84.6934C54.0076 83.3315 55.9027 83.0326 56.9905 82.9745C57.5218 82.8846 58.0664 82.9157 58.584 83.0655C59.1015 83.2153 59.5784 83.48 59.9796 83.8397C60.3663 84.2985 60.6111 84.8601 60.6839 85.4557C60.7725 86.0774 60.7005 86.7115 60.4746 87.2975C59.9046 88.5746 58.9533 89.6438 57.7511 90.3583L59.1694 91.584L59.7124 91.1389C61.1141 89.9946 62.1256 89.1675 62.3698 87.6346C62.4679 86.8613 62.4505 86.0777 62.3183 85.3095C62.2572 84.2966 61.8271 83.3411 61.1096 82.6236C60.392 81.906 59.4367 81.4761 58.4238 81.415C57.9465 81.3144 57.46 81.2631 56.9722 81.2622ZM57.5784 83.8265C57.3808 83.8265 57.1945 83.8364 57.0367 83.8447C56.487 83.8746 54.6751 84.0424 54.3347 84.989C54.2473 85.4342 54.2889 85.8951 54.4543 86.3176C54.5998 86.8234 54.8238 87.3032 55.1184 87.7393C55.6999 88.4781 56.3476 89.1624 57.0533 89.7837C58.186 89.1445 59.0952 88.1728 59.6576 87.0002C59.8321 86.5508 59.889 86.0645 59.8235 85.5869C59.7735 85.1593 59.6007 84.7554 59.3255 84.4243C59.0916 84.2097 58.8154 84.0457 58.515 83.9429C58.2146 83.84 57.8965 83.8003 57.58 83.8265H57.5784Z" fill="#2D2D2D"/>
<path d="M34.374 60.0488C36.9329 62.4556 40.3113 63.7984 43.8242 63.8049C47.337 63.8114 50.7208 62.481 53.2885 60.0837" fill="white"/>
<path d="M43.8499 64.2393C40.2221 64.2183 36.7344 62.8355 34.0778 60.3647C34.0333 60.3265 33.9971 60.2796 33.9712 60.2269C33.9453 60.1742 33.9305 60.1169 33.9274 60.0583C33.9243 59.9997 33.9328 59.941 33.9529 59.8859C33.973 59.8308 34.004 59.7803 34.0442 59.7374C34.0843 59.6946 34.1328 59.6604 34.1865 59.6367C34.2402 59.6131 34.2981 59.6005 34.3568 59.5999C34.4155 59.5992 34.4736 59.6104 34.5279 59.6329C34.5821 59.6553 34.6315 59.6884 34.6726 59.7303C37.1514 62.0615 40.4241 63.3622 43.8268 63.3684C47.2295 63.3745 50.5072 62.0857 52.9944 59.7635C53.08 59.6937 53.189 59.659 53.2993 59.6667C53.4095 59.6743 53.5127 59.7236 53.588 59.8045C53.6632 59.8855 53.7048 59.992 53.7043 60.1025C53.7039 60.2131 53.6614 60.3193 53.5855 60.3996C50.9494 62.8294 47.5062 64.1962 43.9213 64.236L43.8499 64.2393Z" fill="#2D2D2D"/>
<g style="mix-blend-mode:multiply" opacity="0.4">
<g style="mix-blend-mode:multiply" opacity="0.4">
<path d="M60.9774 91.7585C61.3261 93.3263 62.2647 97.5414 59.7918 100.946C56.3922 105.628 49.4351 104.797 48.4984 104.673C43.3384 103.979 35.7102 99.9196 35.584 92.1986C35.5549 90.5317 35.8548 88.8754 36.4658 87.3242C37.0769 85.7731 37.9874 84.3575 39.1456 83.1583C40.3037 81.9591 41.6871 80.9998 43.216 80.3351C44.745 79.6704 46.3895 79.3134 48.0564 79.2844C56.0133 79.1482 59.9909 87.3325 60.9774 91.7585Z" fill="#FF8E93"/>
</g>
</g>
</svg>
