<svg width="75" height="113" viewBox="0 0 75 113" fill="none" xmlns="http://www.w3.org/2000/svg">
<path d="M4.07917 63.1741L2.01562 67.512C3.96101 68.5898 6.11307 69.6676 8.47223 70.682C12.1713 72.2807 15.9955 73.5731 19.906 74.5461C20.4833 70.8756 21.0612 67.2095 21.6396 63.5478L11.1716 58.8262L4.07917 63.1741Z" fill="white"/>
<path d="M19.3507 27.6811C18.7463 27.0076 17.9097 26.5877 17.0086 26.5057C16.1074 26.4237 15.2085 26.6856 14.4925 27.2389C14.1473 27.6695 13.9325 28.1899 13.8733 28.7385C13.8142 29.2872 13.9134 29.8413 14.1589 30.3356C14.6176 31.1323 15.3267 31.7553 16.176 32.1074C18.0376 33.1864 19.6335 34.6687 20.8473 36.4453" fill="white"/>
<path d="M20.4864 36.7021C19.3029 34.9839 17.7551 33.5478 15.9533 32.496L15.7781 32.3992C14.913 32.0166 14.1993 31.3575 13.7492 30.5256C13.466 29.9497 13.3552 29.3044 13.4294 28.667C13.5037 28.0296 13.7599 27.4271 14.1679 26.9318C14.9669 26.295 15.9778 25.9849 16.9964 26.0638C18.0151 26.1428 18.9658 26.605 19.6571 27.3572L19.0449 28.0046C18.5257 27.4116 17.8024 27.0352 17.0188 26.9499C16.2353 26.8646 15.4482 27.0767 14.8135 27.5441C14.5309 27.9098 14.3572 28.3477 14.3117 28.8077C14.2663 29.2677 14.3513 29.7312 14.5569 30.1452C14.9299 30.8037 15.51 31.3204 16.207 31.6151L16.3887 31.7152C18.3049 32.8312 19.9515 34.3562 21.2107 36.1816L20.4864 36.7021Z" fill="#050A4E"/>
<path d="M24.6864 41.5781C17.1113 47.2659 10.3133 53.9211 4.46643 61.374C6.4402 64.2961 7.94082 67.5112 8.91286 70.9008L18.2293 71.8534C18.0341 77.7113 17.6687 83.8661 17.0847 90.2746C16.3506 98.3181 15.3531 105.906 14.1902 113L60.4692 112.93C60.1639 110.387 59.725 106.453 59.3246 101.602C59.0193 97.9043 58.8906 95.5368 58.5837 90.6983C58.3701 87.3398 58.0464 82.443 57.6126 76.4066C57.5024 75.9659 57.5392 75.5013 57.7177 75.0835C57.8482 74.7852 58.048 74.5221 58.3002 74.316C62.4595 74.3449 66.5001 72.9297 69.7323 70.3118C70.9406 69.2878 71.9925 68.0929 72.8553 66.7647C72.2736 66.1863 71.6915 65.6041 71.1087 65.0179C69.5092 63.4084 67.9392 61.8028 66.3987 60.2011C61.2822 55.0145 56.1658 49.8274 51.0492 44.6397L24.6864 41.5781Z" fill="white"/>
<path d="M52.0756 26.5321C54.363 24.7202 56.8323 24.4849 57.8434 25.4693C58.756 26.3552 58.3555 28.1037 58.2988 28.3457C57.9351 29.8473 56.884 30.5864 55.4825 31.9311C54.1063 33.2556 52.8595 34.7082 51.7587 36.269" fill="white"/>
<path d="M52.1202 36.5264L51.3927 36.0109C52.5124 34.4292 53.7778 32.9557 55.1719 31.6096C55.4088 31.3843 55.6357 31.1741 55.8509 30.9722C56.7955 30.3001 57.5002 29.3437 57.8628 28.2427C57.9061 28.0658 58.2599 26.4975 57.5291 25.7901C56.7066 24.9926 54.4928 25.1828 52.3573 26.8829L51.8033 26.1838C54.0974 24.3686 56.8867 23.9164 58.1581 25.1511C58.5102 25.6154 58.7463 26.1572 58.8465 26.7313C58.9466 27.3054 58.9082 27.8951 58.734 28.4512C58.3335 29.7225 57.5379 30.8329 56.4632 31.6212C56.2513 31.8164 56.0275 32.0233 55.7955 32.2469C54.4385 33.5547 53.2081 34.9875 52.1202 36.5264Z" fill="#050A4E"/>
<path d="M36.2251 49.7224C45.3308 49.7224 52.7125 40.5084 52.7125 29.1423C52.7125 17.7763 45.3308 8.56226 36.2251 8.56226C27.1193 8.56226 19.7377 17.7763 19.7377 29.1423C19.7377 40.5084 27.1193 49.7224 36.2251 49.7224Z" fill="white"/>
<path d="M36.2184 50.1665C26.8752 50.1665 19.2856 40.7348 19.2856 29.1443C19.2856 17.5537 26.8819 8.12207 36.2184 8.12207C45.5549 8.12207 53.1512 17.552 53.1512 29.1443C53.1512 40.7365 45.5616 50.1665 36.2184 50.1665ZM36.2184 9.00634C27.3757 9.00634 20.1765 18.0392 20.1765 29.1409C20.1765 40.2427 27.3724 49.2739 36.2184 49.2739C45.0644 49.2739 52.2603 40.2427 52.2603 29.1409C52.2603 18.0392 45.0711 9.00634 36.2184 9.00634Z" fill="#050A4E"/>
<path d="M19.6028 27.8136C21.5565 28.5093 22.656 26.7191 26.2765 26.0885C30.1005 25.4211 30.905 27.0628 34.8158 26.4422C37.0991 26.017 39.266 25.1123 41.1738 23.7877C46.3543 20.586 47.5138 17.0356 49.1689 17.4593C51.5197 18.0633 50.4823 25.613 52.3025 25.9567C53.6272 26.2069 56.1616 22.6098 56.5253 18.7424C57.2227 11.3262 49.6746 5.69692 48.6219 4.93445C43.6423 1.533 37.5292 0.215529 31.5905 1.26391C29.0879 1.69103 22.6144 2.79552 18.5567 8.47819C16.9644 10.6408 15.9495 13.1736 15.6077 15.8373C15.2658 18.5011 15.6085 21.208 16.6032 23.7026C17.2255 25.0974 17.8376 27.1863 19.6028 27.8136Z" fill="#050A4E"/>
<path d="M20.4818 28.4208C20.1306 28.4188 19.7824 28.3562 19.4525 28.2356C18.7228 27.8641 18.08 27.342 17.567 26.7038C17.0539 26.0656 16.6818 25.3258 16.4757 24.5333C16.3806 24.3048 16.2889 24.0862 16.1971 23.8826C15.1648 21.3177 14.8071 18.5311 15.1576 15.7885C15.5081 13.046 16.555 10.439 18.1991 8.21609C22.3702 2.37658 29.0174 1.24873 31.5233 0.823277C37.5803 -0.264567 43.8217 1.0834 48.8899 4.57391C50.3631 5.63837 57.6762 11.331 56.9754 18.7856C56.7608 21.5087 55.5592 24.0598 53.5966 25.9598C53.4117 26.1255 53.1941 26.2506 52.9579 26.327C52.7217 26.4035 52.4721 26.4296 52.2251 26.4036C51.0572 26.1817 50.8173 24.3565 50.5453 22.2409C50.3101 20.4156 50.0162 18.1449 49.0618 17.903C48.5363 17.7712 47.9593 18.3568 46.8932 19.5047C45.3015 21.3197 43.4539 22.8934 41.4089 24.1763C39.4498 25.5296 37.2277 26.4551 34.8871 26.8925C33.4063 27.1378 31.8907 27.0707 30.4374 26.6956C29.1047 26.3407 27.7103 26.2838 26.3531 26.5288C25.1266 26.7565 23.9375 27.1541 22.8207 27.71C22.1017 28.1137 21.3038 28.3562 20.4818 28.4208ZM35.6912 1.36719C34.3428 1.36562 32.9964 1.47724 31.6667 1.70087C29.2625 2.11131 22.8709 3.20246 18.9201 8.73497C17.366 10.8311 16.3747 13.2903 16.0403 15.8782C15.7059 18.4661 16.0395 21.0966 17.0097 23.5189C17.1048 23.7291 17.2001 23.9577 17.2985 24.1863C17.8308 25.4693 18.4347 26.9225 19.7511 27.3897C20.6637 27.7234 21.3343 27.408 22.4488 26.8891C23.6348 26.3009 24.8973 25.8814 26.1995 25.6428C27.6689 25.3751 29.1789 25.4321 30.624 25.8097C31.969 26.1623 33.374 26.2254 34.7453 25.9949C36.9692 25.5804 39.0792 24.6971 40.9351 23.4038C42.9125 22.1598 44.6986 20.6351 46.2374 18.8774C47.4253 17.5943 48.2062 16.7401 49.2773 17.0187C50.8189 17.4141 51.1257 19.8017 51.4227 22.1108C51.6012 23.5022 51.8464 25.4109 52.382 25.511C52.4554 25.5244 52.6625 25.526 53.0496 25.2307C54.8052 23.4821 55.8785 21.1639 56.0761 18.6938C56.7301 11.7231 49.7595 6.30407 48.3563 5.288C44.655 2.67565 40.2211 1.30305 35.6912 1.36719Z" fill="#050A4E"/>
<path d="M39.5331 67.2686C39.4869 66.3866 39.356 65.5112 39.1425 64.6542C38.8322 63.4129 38.4869 62.7855 38.8272 62.2833C38.974 62.0779 39.1833 61.9256 39.424 61.8492C39.6646 61.7728 39.9237 61.7764 40.1621 61.8595C40.761 62.1448 40.6795 63.1943 40.8297 64.2821C41.0604 65.7966 41.6641 67.23 42.5865 68.4532" fill="white"/>
<path d="M42.5813 68.8417C42.5198 68.8408 42.4593 68.8252 42.405 68.7962C42.3507 68.7672 42.3042 68.7256 42.2693 68.6748C41.3158 67.3962 40.6902 65.9033 40.4473 64.3269C40.4106 64.0666 40.3872 63.808 40.3655 63.5628C40.3104 62.9254 40.2555 62.3231 39.9936 62.198C39.8387 62.1581 39.6756 62.1645 39.5243 62.2164C39.3731 62.2683 39.2404 62.3634 39.1427 62.49C38.9942 62.7102 39.0826 63.0456 39.2812 63.7229C39.3529 63.9682 39.4345 64.2418 39.5113 64.5572C39.7293 65.438 39.8638 66.3373 39.9133 67.2433C39.9183 67.3443 39.8835 67.4432 39.816 67.5185C39.7485 67.5938 39.6538 67.6394 39.5528 67.6454C39.5023 67.65 39.4515 67.6442 39.4034 67.6282C39.3552 67.6123 39.3109 67.5867 39.273 67.5529C39.2351 67.5191 39.2047 67.4779 39.1834 67.4318C39.1621 67.3857 39.1503 67.3358 39.1492 67.285C39.1036 66.428 38.9767 65.5771 38.7704 64.744C38.6953 64.442 38.6168 64.1768 38.5484 63.9399C38.3198 63.1574 38.1531 62.5918 38.5084 62.0645C38.7066 61.7843 38.9923 61.5779 39.3207 61.478C39.649 61.378 40.0016 61.3901 40.3223 61.5123C40.9797 61.8226 41.0496 62.6385 41.1264 63.4994C41.1481 63.733 41.1679 63.9782 41.2029 64.2268C41.4296 65.6796 42.0093 67.0546 42.8913 68.231C42.9501 68.3137 42.9739 68.4162 42.9573 68.5162C42.9407 68.6163 42.8852 68.7057 42.8029 68.7649C42.7391 68.8136 42.6616 68.8405 42.5813 68.8417Z" fill="#050A4E"/>
<path d="M37.3548 74.0509C37.7533 72.1046 37.4678 70.0804 36.5471 68.3199C35.4893 66.4562 33.8961 65.7238 34.1247 64.4441C34.3049 63.4431 35.4994 62.6089 36.1434 62.8308C36.9426 63.1077 36.3718 64.8479 37.6782 66.1409C38.3356 66.7916 38.7411 66.6765 39.5353 67.2721C40.639 68.179 41.3599 69.469 41.554 70.8843" fill="white"/>
<path d="M37.3542 74.4311H37.2976C37.2479 74.424 37.1998 74.4071 37.1567 74.3813C37.1135 74.3556 37.0758 74.3216 37.0459 74.2813C37.016 74.241 36.9945 74.1951 36.9823 74.1464C36.9702 74.0976 36.9679 74.047 36.9754 73.9973C37.3456 72.1346 37.0775 70.2016 36.2145 68.5098C35.8366 67.8814 35.3888 67.2976 34.8797 66.7697C34.1806 65.9955 33.5767 65.3282 33.7485 64.3788C33.8294 64.0261 33.9827 63.694 34.1986 63.4036C34.4146 63.1132 34.6889 62.8709 35.0035 62.692C35.1862 62.5668 35.3935 62.4823 35.6117 62.444C35.8298 62.4057 36.0535 62.4146 36.2679 62.4701C36.8418 62.6704 36.9487 63.2526 37.0638 63.87C37.1319 64.6154 37.4413 65.3182 37.9449 65.8721C38.1866 66.1114 38.476 66.2973 38.7942 66.4176C39.1379 66.5605 39.4626 66.7448 39.7616 66.9666C40.9311 67.9361 41.7031 69.3019 41.9306 70.8039C41.9478 70.9016 41.9263 71.0021 41.8707 71.0843C41.8152 71.1664 41.7299 71.2237 41.6328 71.2441C41.5358 71.2644 41.4345 71.2463 41.3506 71.1934C41.2667 71.1405 41.2067 71.0571 41.1832 70.9608C40.9933 69.6413 40.3267 68.4371 39.3094 67.5755C39.0565 67.3878 38.7814 67.232 38.4903 67.1117C38.0869 66.9544 37.7205 66.7152 37.4141 66.4093C36.7988 65.7481 36.4147 64.905 36.3196 64.0068C36.2429 63.5963 36.1778 63.241 36.0243 63.1876C35.8021 63.1607 35.578 63.2205 35.3986 63.3544C35.1794 63.4792 34.9877 63.647 34.8349 63.8476C34.6821 64.0483 34.5714 64.2778 34.5094 64.5223C34.4093 65.0762 34.785 65.5234 35.4557 66.2658C36.002 66.835 36.4821 67.4641 36.887 68.1411C37.8371 69.9801 38.1375 72.0862 37.7396 74.1174C37.7233 74.2071 37.6754 74.288 37.6047 74.3455C37.5341 74.403 37.4453 74.4334 37.3542 74.4311Z" fill="#050A4E"/>
<path d="M40.5548 71.3647C43.1342 68.5383 43.603 66.3594 43.4913 64.8461C43.4095 63.7449 42.9908 62.4769 43.7332 61.616C44.0486 61.336 44.4201 61.1265 44.8228 61.0013C45.2256 60.8762 45.6503 60.8383 46.0689 60.8903C46.2073 60.9003 47.8658 61.0404 48.1678 61.9397C48.313 62.3735 48.0009 62.5437 47.6839 63.7967C47.517 64.4019 47.435 65.0275 47.4403 65.6553C47.4693 66.4174 47.6646 67.164 48.0126 67.8426" fill="white"/>
<path d="M40.5547 71.7482C40.4595 71.7486 40.3675 71.7129 40.2977 71.6481C40.223 71.5796 40.1786 71.4843 40.1739 71.383C40.1692 71.2817 40.2048 71.1827 40.2729 71.1075C41.1433 70.3149 41.8435 69.3537 42.3311 68.2822C42.8187 67.2107 43.0833 66.0512 43.1091 64.8743C43.0907 64.6357 43.0574 64.3904 43.0207 64.1418C42.8836 63.6764 42.8504 63.1865 42.9234 62.7068C42.9963 62.2271 43.1735 61.7692 43.4427 61.3656C43.7953 61.0363 44.2162 60.7887 44.6753 60.6405C45.1344 60.4923 45.6204 60.447 46.0989 60.508C46.5844 60.5464 48.1778 60.7533 48.5331 61.8177C48.5801 61.9813 48.5939 62.1527 48.5739 62.3217C48.5538 62.4907 48.5002 62.654 48.4162 62.8021C48.2686 63.1543 48.1489 63.5174 48.0578 63.8882C47.9009 64.4594 47.8236 65.0495 47.8276 65.6418C47.8555 66.3492 48.0369 67.0421 48.3596 67.6723C48.3936 67.7614 48.393 67.8601 48.358 67.9489C48.3229 68.0376 48.256 68.1101 48.1702 68.1519C48.0844 68.1937 47.986 68.202 47.8944 68.1749C47.8029 68.1479 47.725 68.0876 47.6757 68.0059C47.3038 67.2777 47.0949 66.4772 47.0635 65.6601C47.0574 64.9976 47.1425 64.3373 47.3168 63.698C47.4167 63.2933 47.5474 62.8967 47.7075 62.5118C47.8343 62.2015 47.8426 62.1547 47.8109 62.0563C47.6324 61.5274 46.5762 61.3089 46.0423 61.2638C45.682 61.215 45.3155 61.2432 44.9669 61.3464C44.6184 61.4497 44.2954 61.6257 44.0199 61.8628C43.8309 62.1876 43.7122 62.5483 43.6708 62.9219C43.6294 63.2954 43.6667 63.6734 43.78 64.0317C43.815 64.297 43.8533 64.5573 43.87 64.8142C43.8555 66.0952 43.5789 67.3596 43.057 68.5295C42.535 69.6994 41.7786 70.75 40.835 71.6164C40.8001 71.6568 40.7574 71.6894 40.7091 71.7121C40.6608 71.7348 40.6081 71.7471 40.5547 71.7482Z" fill="#050A4E"/>
<path d="M41.6138 70.6382C47.7319 68.6878 49.3268 67.1879 49.5453 66.1334C49.582 65.9566 49.6605 65.3977 50.0292 65.2458C50.6549 64.9872 52.0412 65.9433 52.2097 67.0211C52.4416 68.5226 50.1511 69.1767 49.3836 71.4607C48.9899 72.888 49.1335 74.4102 49.7873 75.7386" fill="white"/>
<path d="M49.4358 75.8971C48.7315 74.485 48.5837 72.8598 49.0219 71.3439C49.4079 70.3416 50.0322 69.4483 50.8407 68.7412C51.5331 68.0555 51.9185 67.6367 51.8317 67.0828C51.7593 66.803 51.6295 66.5413 51.4509 66.3142C51.2722 66.087 51.0486 65.8994 50.7938 65.763C50.6144 65.6332 50.3934 65.5738 50.1731 65.5962C50.0752 65.6374 49.994 65.8231 49.9295 66.1535C49.5958 67.7969 46.9863 69.3235 41.7291 70.9919L41.4973 70.2628C47.5153 68.3424 48.9921 66.9109 49.1723 66.0483C49.2357 65.733 49.3607 65.1024 49.8863 64.8805C50.1019 64.8157 50.3291 64.8002 50.5515 64.8351C50.7738 64.87 50.9857 64.9545 51.171 65.0823C51.527 65.2746 51.8376 65.5409 52.0822 65.8632C52.3268 66.1855 52.4995 66.5564 52.5889 66.951C52.7374 67.917 52.0803 68.5727 51.3812 69.2667C50.6582 69.8912 50.0977 70.6819 49.7478 71.5709C49.3723 72.9074 49.5114 74.3362 50.138 75.5751L49.4358 75.8971Z" fill="#050A4E"/>
<path d="M47.9308 76.9546C47.5486 75.7998 46.9451 74.7304 46.154 73.8063C45.604 73.0262 44.8955 72.3711 44.0746 71.884C43.2537 71.397 42.339 71.0889 41.3907 70.98C38.7296 70.99 36.5939 73.5994 35.9015 75.9035C35.636 77.0132 35.5994 78.1654 35.7936 79.2898C35.9878 80.4142 36.4087 81.4873 37.031 82.4437C38.2731 84.5425 40.1341 86.2058 42.3585 87.2054C44.1938 88.1715 47.0299 89.6764 49.0587 88.4968C49.8529 88.0347 50.2599 87.2205 51.0775 85.5904C51.9795 84.156 52.5075 82.5182 52.6127 80.827C52.591 78.3911 51.1727 75.2912 48.897 74.8541C48.2713 74.7463 47.6279 74.8163 47.04 75.056" fill="#FF8E93"/>
<path d="M47.3398 89.3192C45.2086 88.9722 43.1686 88.2013 41.3406 87.0522C39.5125 85.903 37.9336 84.3989 36.697 82.6288C36.0476 81.6278 35.609 80.505 35.4082 79.3289C35.2074 78.1527 35.2487 76.948 35.5292 75.7883C36.2833 73.2773 38.5925 70.6011 41.3821 70.5928H41.4005C42.4006 70.7027 43.3661 71.0227 44.2338 71.5319C45.1016 72.0411 45.8518 72.728 46.4355 73.5476C46.7177 73.8756 46.9776 74.2223 47.2131 74.5853C47.7785 74.4055 48.3794 74.3666 48.9634 74.4719C51.4193 74.944 52.9674 78.1424 52.9858 80.8119C52.8888 82.561 52.3492 84.2569 51.4175 85.7404C50.5633 87.4439 50.1361 88.2948 49.2485 88.8137C48.669 89.1501 48.0098 89.3247 47.3398 89.3192ZM41.4086 71.3636H41.3919C38.9693 71.3719 36.9438 73.7678 36.2681 76.0135C36.021 77.0751 35.9912 78.1756 36.1801 79.2491C36.369 80.3225 36.7732 81.3467 37.3679 82.2601C38.5736 84.2943 40.3804 85.9044 42.5398 86.8683C44.33 87.8143 47.0331 89.2408 48.8717 88.168C49.5658 87.7642 49.9593 86.9818 50.7402 85.4201C51.613 84.0393 52.1292 82.4632 52.242 80.8336C52.2203 78.4394 50.8488 75.6181 48.8383 75.231C48.4389 75.1582 48.0282 75.173 47.6351 75.2744C47.9019 75.7742 48.1255 76.2962 48.3027 76.8344C48.3186 76.8819 48.325 76.9321 48.3214 76.9821C48.3179 77.0321 48.3044 77.0809 48.2819 77.1258C48.2594 77.1706 48.2282 77.2105 48.1903 77.2432C48.1523 77.276 48.1084 77.3009 48.0607 77.3165C48.0132 77.3332 47.9627 77.3401 47.9125 77.3368C47.8622 77.3336 47.8132 77.3203 47.7683 77.2978C47.7233 77.2752 47.6836 77.2438 47.651 77.2055C47.6183 77.1671 47.5935 77.1226 47.5784 77.0746C47.3761 76.4689 47.1118 75.8858 46.7894 75.3345C46.748 75.2945 46.7154 75.2461 46.6941 75.1926C46.6941 75.1793 46.6861 75.1676 46.6827 75.1576C46.4422 74.7689 46.1715 74.3996 45.8734 74.0531C45.3559 73.3201 44.692 72.7026 43.9235 72.2397C43.1549 71.7767 42.2984 71.4784 41.4086 71.3636Z" fill="#050A4E"/>
<path d="M57.6876 75.0722L57.4905 74.203C69.6216 71.4534 72.2813 68.7839 72.3764 67.0287C72.4398 65.9776 71.589 65.2151 69.4884 63.4382C66.9718 61.3546 64.5992 59.1026 62.3874 56.6978C60.744 54.9142 59.9114 53.8414 59.174 52.8954C58.2562 51.6714 57.2356 50.5283 56.1227 49.4785C53.7918 47.0736 51.1501 44.9908 48.2677 43.2853L48.6995 42.5078C51.6499 44.2483 54.3537 46.3767 56.7382 48.8362C57.8819 49.9164 58.9319 51.0919 59.8766 52.3499C60.6007 53.2825 61.4214 54.337 63.0465 56.0938C65.2326 58.4726 67.5789 60.699 70.0689 62.7575C72.1911 64.5544 73.3606 65.5421 73.2689 67.0788C73.102 70.117 68.0052 72.7264 57.6876 75.0722Z" fill="#050A4E"/>
<path d="M17.7371 74.0445C6.19654 71.33 0.562586 68.5521 0.517539 65.5572C0.507528 64.3143 1.40826 63.5301 3.04666 62.1069C4.8465 60.5723 6.55153 58.9298 8.15215 57.1884C9.34863 55.9124 10.453 54.5531 11.4572 53.1208C12.195 52.0551 13.0063 51.0421 13.8849 50.0892C16.6529 46.9407 19.9818 44.3337 23.702 42.4011L24.1008 43.2003C20.4778 45.0846 17.2365 47.6259 14.5424 50.6949C13.6881 51.6205 12.8991 52.6045 12.1815 53.6397C11.155 55.1012 10.0277 56.4894 8.80795 57.794C7.18626 59.5593 5.45889 61.2247 3.63566 62.781C2.10571 64.1157 1.40659 64.7197 1.41326 65.5472C1.43995 67.259 4.32957 69.9752 17.9456 73.177L17.7371 74.0445Z" fill="#050A4E"/>
<path d="M14.081 112.446H14.0211C13.9041 112.43 13.7983 112.369 13.7266 112.275C13.655 112.181 13.6234 112.063 13.6391 111.946C14.7152 103.945 15.7111 95.9636 16.6004 88.2188C17.1194 84.287 17.3615 80.3236 17.3246 76.3579C17.2573 72.1661 16.8485 67.9867 16.1018 63.8614C16.0912 63.8038 16.0919 63.7446 16.1042 63.6873C16.1165 63.63 16.1401 63.5757 16.1735 63.5275C16.2068 63.4793 16.2493 63.4382 16.2985 63.4064C16.3478 63.3747 16.4026 63.353 16.4602 63.3425C16.5181 63.3307 16.578 63.3308 16.6358 63.3427C16.6936 63.3547 16.7482 63.3782 16.7967 63.4118C16.8452 63.4455 16.8863 63.4887 16.9177 63.5387C16.949 63.5887 16.97 63.6446 16.9792 63.7029C17.7343 67.8756 18.1477 72.103 18.2154 76.3429C18.2524 80.3481 18.0087 84.351 17.4863 88.3222C16.5954 96.0721 15.5995 104.061 14.5217 112.067C14.5061 112.173 14.4527 112.269 14.3718 112.339C14.291 112.408 14.1877 112.446 14.081 112.446Z" fill="#050A4E"/>
<path d="M61.2111 112.039C61.1104 112.039 61.0131 112.004 60.9345 111.941C60.856 111.878 60.8009 111.79 60.7789 111.692C59.204 104.865 58.1314 97.931 57.5692 90.9468C57.3272 87.8736 57.2135 85.079 57.0417 80.8478C56.8148 75.282 56.6715 69.7928 56.6148 64.4505C56.6141 64.3921 56.6247 64.3341 56.6465 64.2799C56.6683 64.2257 56.7009 64.1763 56.7419 64.1346C56.7828 64.0929 56.8315 64.0597 56.8852 64.0369C56.939 64.0141 56.9967 64.0021 57.0551 64.0017C57.1725 64.0013 57.2853 64.0474 57.3687 64.1299C57.4522 64.2125 57.4998 64.3248 57.5007 64.4422C57.5591 69.7812 57.7008 75.2553 57.9227 80.7311C58.0979 85.0339 58.2116 87.8219 58.4518 90.8768C59.0118 97.8175 60.0778 104.708 61.6417 111.494C61.655 111.551 61.6569 111.61 61.6474 111.667C61.6378 111.725 61.6169 111.78 61.5858 111.83C61.5548 111.88 61.5142 111.923 61.4665 111.956C61.4188 111.99 61.3651 112.014 61.308 112.027C61.2764 112.035 61.2437 112.039 61.2111 112.039Z" fill="#050A4E"/>
<path d="M5.43426 69.8074C4.03384 72.0097 2.91922 74.3812 2.11736 76.8648C1.04456 80.2017 0.152036 82.9663 0.705955 86.0412C1.82213 92.2261 8.13552 95.9617 12.8522 98.7513C15.0066 100.025 17.2749 101.096 19.6277 101.95C21.8501 103.173 24.1501 104.249 26.5132 105.171C27.9474 105.756 29.4168 106.249 30.9128 106.65C32.885 107.239 34.9251 107.571 36.9825 107.637C42.7736 107.424 47.8992 100.5 47.0032 99.1684C45.9738 97.6334 36.4154 102.729 35.4293 101.004C35.2625 100.705 35.4559 100.098 35.8529 98.8864C36.532 96.8059 37.2962 96.0501 36.9808 95.6413C36.6472 95.1909 35.3525 95.5479 34.5817 95.9233C33.767 96.3968 33.0487 97.0194 32.4644 97.7586C31.7591 98.5298 30.999 99.2491 30.1902 99.9108C28.415 101.079 24.8146 98.8714 17.2232 93.1504C10.6379 88.1885 9.39659 86.8821 9.33486 84.9834C9.28648 83.4902 10.1692 82.0119 11.9177 79.0555C13.1314 77.0065 14.5015 75.0542 16.0155 73.216C15.1479 73.0008 14.2518 72.7622 13.3292 72.4952C12.9337 72.3818 11.9593 72.0965 10.4827 71.6109C9.19136 71.1822 7.47641 70.5949 5.43426 69.8074Z" fill="white"/>
<path d="M36.6922 108.087C34.6999 107.981 32.7266 107.645 30.8112 107.086C29.2948 106.679 27.8051 106.178 26.3513 105.585C23.971 104.655 21.6537 103.571 19.4141 102.34C17.0559 101.485 14.7832 100.412 12.6255 99.133C7.89549 96.335 1.42035 92.5043 0.267467 86.1192C-0.306473 82.9325 0.619473 80.0578 1.69394 76.7277C2.50864 74.2089 3.63858 71.8034 5.05727 69.5684L5.25239 69.2598L5.5864 69.3899C7.26984 70.0356 8.96145 70.6396 10.6165 71.1851C12.0814 71.6673 13.0507 71.9509 13.4528 72.0627C14.3704 72.3297 15.2632 72.5633 16.1224 72.7802L16.808 72.947L16.3591 73.4926C14.8587 75.3134 13.5013 77.2473 12.2984 79.277C10.5916 82.1584 9.73568 83.5999 9.77906 84.963C9.83412 86.6798 11.1319 87.9979 17.4886 92.788C24.5077 98.0786 28.3569 100.576 29.942 99.5318C30.7225 98.8862 31.458 98.1877 32.1428 97.4412L32.5599 97.0074C33.0649 96.3957 33.685 95.8889 34.3851 95.5158C34.4752 95.4708 36.6272 94.433 37.3346 95.3657C37.6683 95.8162 37.4366 96.32 37.0996 97.0191C36.7785 97.6667 36.5024 98.3356 36.2735 99.0212C36.0381 99.5842 35.8848 100.178 35.8181 100.785C36.1368 101.347 39.4521 100.258 41.2356 99.6719C44.6092 98.5641 46.7147 97.9367 47.3721 98.9161C47.6841 99.3816 47.5856 100.122 47.0784 101.118C45.7003 103.826 41.5426 107.911 36.9961 108.081C36.8977 108.086 36.794 108.087 36.6922 108.087ZM5.61776 70.3543C4.32946 72.4384 3.29742 74.6701 2.54323 77.0013C1.46542 80.3498 0.612551 82.9959 1.14812 85.9591C2.22592 91.9421 8.49938 95.6526 13.0809 98.3638C15.212 99.6257 17.4554 100.687 19.7827 101.534C22.0096 102.755 24.313 103.832 26.6784 104.757C28.0969 105.335 29.5504 105.823 31.0299 106.219C32.9597 106.798 34.9557 107.126 36.9692 107.195C40.9735 107.046 44.9579 103.339 46.291 100.72C46.7215 99.8754 46.6848 99.4884 46.6381 99.4183C46.3194 98.9478 43.1975 99.9739 41.5208 100.524C37.9336 101.701 35.6981 102.36 35.0491 101.227C34.7805 100.756 34.9824 100.134 35.4279 98.7693C35.67 98.0401 35.9625 97.3288 36.3037 96.6404C36.4399 96.3977 36.5448 96.1387 36.6157 95.8696C35.9746 95.8566 35.3414 96.0131 34.7802 96.3234C34.1759 96.6511 33.6421 97.0944 33.2088 97.6281L32.7868 98.0685C32.0643 98.8672 31.2793 99.607 30.4393 100.281C28.3905 101.629 24.6313 99.2798 16.9599 93.5054C10.2428 88.4434 8.96144 87.0919 8.89637 84.9964C8.84298 83.3747 9.74236 81.8581 11.5342 78.8349C12.6426 76.9653 13.8792 75.1747 15.2349 73.4759C14.5753 73.3068 13.8999 73.1222 13.2092 72.922C12.8138 72.8085 11.833 72.5215 10.3497 72.0327C8.79142 71.5188 7.2011 70.9566 5.61776 70.3559V70.3543Z" fill="#050A4E"/>
<path d="M59.4426 74.237C62.02 77.8334 64.3709 81.5869 66.4817 85.4755C66.6181 85.7337 66.7009 86.0168 66.7253 86.3078C66.7497 86.5988 66.715 86.8917 66.6235 87.169C66.3799 87.7146 65.7409 88.1701 64.0841 88.4403C61.8943 89.0139 59.5738 88.8166 57.5123 87.8814C53.7066 85.8142 54.1938 81.4429 50.9221 80.7472C49.9811 80.5453 48.8062 80.6655 48.586 81.1693C48.2039 82.0703 51.0887 83.7304 50.8084 84.3393C50.3229 85.4071 41.4066 80.9174 39.6932 83.0697C38.6604 84.3677 40.2073 88.1283 42.8634 90.1622C45.5196 92.196 47.4414 91.0648 54.896 92.6648C59.0504 93.5574 58.7601 93.9645 61.6715 94.3583C64.9817 94.8071 71.1115 95.6346 73.3155 92.523C74.41 90.9814 74.1146 89.0677 73.5273 85.2553C73.0882 82.6773 72.3294 80.1642 71.2683 77.7741C70.3763 75.5724 69.3299 73.4365 68.1367 71.3823C67.3158 71.7349 66.4542 72.0775 65.5522 72.4101C63.5554 73.1451 61.5151 73.7552 59.4426 74.237Z" fill="white"/>
<path d="M66.8554 95.2576C65.1038 95.2255 63.3563 95.0755 61.6249 94.8088C60.5635 94.6829 59.5187 94.4435 58.5084 94.0947C57.298 93.6939 56.0653 93.3647 54.8163 93.1087C52.5514 92.62 50.2557 92.2855 47.9455 92.1076C46.0415 92.1681 44.1691 91.6122 42.6066 90.5226C40.7285 89.085 39.4349 87.016 38.9646 84.6981C38.9001 84.3716 38.9005 84.0355 38.9667 83.7093C39.0328 83.3831 39.1633 83.0733 39.35 82.7978C40.5629 81.2745 44.13 82.3506 47.2766 83.2983C48.2474 83.6248 49.2405 83.8808 50.2481 84.0641C50.0679 83.8522 49.7593 83.5636 49.5324 83.3467C48.6982 82.5708 47.8522 81.7683 48.1809 80.9942C48.5463 80.1333 50.1112 80.1133 51.0172 80.3068C52.8825 80.7039 53.6451 82.1421 54.4526 83.6603C55.112 85.249 56.2579 86.5878 57.7259 87.4844C59.7015 88.3702 61.9214 88.551 64.0143 87.9966C65.9029 87.6913 66.1416 87.1624 66.22 86.9838C66.3495 86.5372 66.297 86.0575 66.0746 85.6491C63.9738 81.7891 61.6377 78.062 59.0791 74.489L58.7002 73.9484L59.3442 73.7999C61.4026 73.3262 63.4292 72.7238 65.4122 71.9963C66.2715 71.6827 67.1343 71.3423 67.9735 70.9786L68.3373 70.8218L68.5357 71.1638C69.7393 73.236 70.7958 75.3903 71.6974 77.6106C72.7688 80.0333 73.5364 82.5792 73.9829 85.1903C74.5885 89.1211 74.8925 91.0949 73.6929 92.785C72.3081 94.7437 69.5683 95.2576 66.8554 95.2576ZM41.4135 82.9229C41.1858 82.8543 40.9438 82.8506 40.7141 82.9123C40.4844 82.9739 40.2765 83.0984 40.1137 83.2718C39.9509 83.4452 39.8394 83.6605 39.7923 83.8936C39.7452 84.1267 39.7642 84.3684 39.8469 84.5913C40.2771 86.6752 41.4493 88.5321 43.1455 89.8168C44.5775 90.798 46.2879 91.2912 48.0225 91.2233C50.3691 91.406 52.7005 91.7465 55.0013 92.2427C56.2806 92.502 57.5437 92.8363 58.7837 93.2438C59.7422 93.5772 60.734 93.8055 61.7418 93.9245C64.9518 94.3583 70.9183 95.1642 72.9638 92.2728C73.9531 90.8763 73.6679 89.021 73.099 85.3304C72.6662 82.7866 71.9165 80.307 70.868 77.9493C70.0326 75.8889 69.0612 73.8862 67.9601 71.9546C67.2193 72.265 66.4685 72.5619 65.7177 72.8356C63.9052 73.4993 62.0569 74.0614 60.1817 74.519C62.6536 77.9604 64.8953 81.5615 66.8921 85.2987C67.0556 85.6124 67.1526 85.9565 67.1764 86.3095C67.2002 86.6624 67.1504 87.0164 67.0306 87.3492C66.6752 88.1434 65.7878 88.6156 64.1544 88.8792C61.8668 89.4656 59.4471 89.2507 57.2986 88.2702C55.6745 87.2926 54.4014 85.8261 53.6615 84.0808C52.8941 82.6343 52.2885 81.4914 50.8253 81.1811C50.5252 81.0867 50.2091 81.0529 49.8958 81.0815C49.5825 81.1102 49.2781 81.2007 49 81.3479C48.9533 81.5915 49.7861 82.3723 50.1398 82.706C50.8889 83.4084 51.4745 83.9657 51.2192 84.5413C50.8621 85.3238 49.5757 84.9367 47.0163 84.1642C45.2061 83.5246 43.3245 83.1077 41.4135 82.9229Z" fill="#050A4E"/>
<path d="M44.5804 53.8813C46.8864 53.9631 49.1506 54.5191 51.2322 55.5147L44.5804 53.8813Z" fill="white"/>
<path d="M42.9803 56.1377C46.2754 56.3827 49.4841 57.3064 52.4052 58.8506L42.9803 56.1377Z" fill="white"/>
<path d="M52.4032 59.2923C52.3306 59.2918 52.2591 59.2741 52.1947 59.2406C49.3283 57.7243 46.1801 56.8156 42.9466 56.5711C42.8882 56.5669 42.8311 56.5512 42.7788 56.5249C42.7265 56.4986 42.6798 56.4623 42.6415 56.4179C42.6032 56.3736 42.5744 56.3222 42.556 56.2666C42.5376 56.211 42.5301 56.1523 42.5344 56.0939C42.5368 56.0349 42.5515 55.9771 42.5772 55.9239C42.6029 55.8708 42.6391 55.8235 42.6839 55.785C42.7286 55.7465 42.7811 55.7176 42.8374 55.7002C42.8938 55.6827 42.9531 55.677 43.0118 55.6835C46.3677 55.9347 49.6357 56.8753 52.6118 58.4464C52.6972 58.4941 52.7644 58.5687 52.8032 58.6585C52.842 58.7483 52.8506 58.8484 52.8268 58.9433C52.8031 59.0382 52.7486 59.1227 52.6721 59.1836C52.5955 59.2446 52.501 59.2787 52.4032 59.2806V59.2923Z" fill="#050A4E"/>
<path d="M51.23 55.9607C51.1635 55.9612 51.0979 55.9463 51.0381 55.9174C49.9938 55.4172 48.8992 55.0296 47.7729 54.7611C46.7198 54.511 45.6449 54.3652 44.5632 54.3257C44.4454 54.3209 44.3343 54.2699 44.254 54.1836C44.1737 54.0974 44.1306 53.983 44.1342 53.8652C44.1328 53.8056 44.1441 53.7464 44.1672 53.6914C44.1904 53.6365 44.225 53.5871 44.2687 53.5465C44.3124 53.506 44.3641 53.4752 44.4206 53.4562C44.4771 53.4372 44.5372 53.4305 44.5966 53.4364C46.9638 53.5185 49.288 54.09 51.4234 55.1148C51.5148 55.1584 51.5887 55.2318 51.6328 55.3229C51.6769 55.414 51.6887 55.5174 51.6662 55.6161C51.6437 55.7148 51.5882 55.8029 51.509 55.8658C51.4297 55.9287 51.3312 55.9628 51.23 55.9624V55.9607Z" fill="#050A4E"/>
<g style="mix-blend-mode:multiply" opacity="0.4">
<g style="mix-blend-mode:multiply" opacity="0.4">
<path d="M49.8464 72.6073C50.2035 74.2123 51.1644 78.5302 48.6318 82.0172C45.1481 86.8139 38.0256 85.963 37.0713 85.8346C31.7857 85.1221 23.9825 80.9678 23.844 73.0594C23.8142 71.352 24.1212 69.6555 24.7471 68.0667C25.373 66.4779 26.3054 65.0279 27.4917 63.7996C28.678 62.5713 30.0946 61.5887 31.6607 60.908C33.2268 60.2272 34.9118 59.8616 36.6192 59.8321C44.7628 59.6903 48.8354 68.0725 49.8464 72.6073Z" fill="#FF8E93"/>
</g>
</g>
</svg>
