<svg xmlns="http://www.w3.org/2000/svg" xmlns:xlink="http://www.w3.org/1999/xlink" width="110.531" height="116.46" viewBox="0 0 110.531 116.46"> <defs> <style>.cls-1{fill: #fffded;}.cls-2{opacity: 0.2; fill: url(#linear-gradient);}.cls-3{fill: #fff;}.cls-3, .cls-4{stroke: #2d2d2d; stroke-miterlimit: 10;}.cls-4{fill: #1778f2;}</style> <linearGradient id="linear-gradient" x1="0.5" x2="0.5" y2="1" gradientUnits="objectBoundingBox"> <stop offset="0" stop-color="#c7dcff"/> <stop offset="1" stop-color="#ffabaf"/> </linearGradient> </defs> <g id="Group_125734" data-name="Group 125734" transform="translate(-1160 -6277)"> <g id="Group_125733" data-name="Group 125733"> <g id="Group_125732" data-name="Group 125732"> <path id="Path_229007" data-name="Path 229007" class="cls-2" d="M271.877,251.117A126.59,126.59,0,0,1,239.07,218.31a20.66,20.66,0,0,1-5.879-14.256A20.1,20.1,0,0,1,239.07,189.8a172.816,172.816,0,0,1,32.807-32.8,20.652,20.652,0,0,1,14.256-5.882,20.089,20.089,0,0,1,14.256,5.882A197.348,197.348,0,0,1,333.2,189.8a20.651,20.651,0,0,1,5.882,14.256A20.1,20.1,0,0,1,333.2,218.31a196.077,196.077,0,0,1-32.807,32.807,20.773,20.773,0,0,1-8.672,5.1,19.628,19.628,0,0,1-5.584.779,20.836,20.836,0,0,1-6.94-1.358A22.274,22.274,0,0,1,271.877,251.117Z" transform="translate(931.809 6129.062)"/> <g id="Group_125356" data-name="Group 125356" transform="translate(361.043 6205.13)"> <path id="Path_229011" data-name="Path 229011" class="cls-3" d="M822.351,165.243a110.917,110.917,0,0,1-8.225-13c-2.9-5.4-6.309-11.735-8.225-19.931-1.363-5.832-3.748-15.992.329-27.856a44.67,44.67,0,0,1,17.547-22.481A43.976,43.976,0,0,1,849,75.07,43.107,43.107,0,0,1,874.223,85.6c10.727,9.545,13.13,21.656,13.818,26.32a53.483,53.483,0,0,1-.548,19.3c-1.738,8-5.015,13.786-9.321,21.385a119.786,119.786,0,0,1-8.555,13.269c-10.489,14.054-16.341,21.893-23.742,21.824C838.729,187.63,833.27,180.168,822.351,165.243Z"/> <circle id="Ellipse_18692" data-name="Ellipse 18692" class="cls-3" cx="29.543" cy="29.543" r="29.543" transform="translate(817.009 87.032)"/> <path id="Path_229012" data-name="Path 229012" class="cls-4" d="M861.191,111.982h-6.763a2.559,2.559,0,0,1-2.559-2.559v-6.764a4.326,4.326,0,0,0-3.38-4.329,4.159,4.159,0,0,0-4.918,4.078v7.015a2.559,2.559,0,0,1-2.559,2.559h-6.763a4.327,4.327,0,0,0-4.33,3.379A4.16,4.16,0,0,0,834,120.279h7.014a2.559,2.559,0,0,1,2.559,2.559V129.6a4.328,4.328,0,0,0,3.38,4.33,4.159,4.159,0,0,0,4.918-4.078v-7.015a2.559,2.559,0,0,1,2.559-2.559h7.014a4.16,4.16,0,0,0,4.079-4.918A4.327,4.327,0,0,0,861.191,111.982Z"/> </g> </g> </g> </g></svg>