<svg xmlns="http://www.w3.org/2000/svg" width="100" height="100" viewBox="0 0 100 100">
    <defs>
        <style>
            .cls-2,.cls-5{fill:#86bcff}.cls-2,.cls-4,.cls-5,.cls-6{stroke:#2d2d2d;stroke-miterlimit:10}.cls-3,.cls-4,.cls-6{fill:#fff}.cls-4,.cls-5{stroke-linecap:round}
        </style>
    </defs>
    <g id="Group_181991" transform="translate(0 0.214)">
        <g id="Group_112015" transform="translate(0 0)">
            <g id="Group_112014" transform="translate(2.216 12.062)">
                <g id="Group_112013">
                    <g id="Group_105518">
                        <path id="Path_147517" fill="#86bcff" d="M124.979 53.935l.4 2.517-.577.843-9.392.3 2.373-2.983z" transform="translate(-63.584 -23.603)"/>
                        <path id="Path_147519" d="M113.741 47.835l3.049-4.752 4.355-1.292 4.023.886-.406 5.425-7.862 4.783-.755-1.615z" class="cls-3" transform="translate(-66.346 -37.186)"/>
                        <circle id="Ellipse_14814" cx="9.113" cy="9.113" r="9.113" class="cls-4" transform="translate(68.604 58.844)"/>
                        <path id="Path_147520" d="M134.718 65.016a11.7 11.7 0 0 1 6.635 2.169c1.428 1.049 3.953 3.451 3.366 4.692-.833 1.765-6.54-1.784-11.167.907-4.294 2.5-4.322 8.432-7.464 8.48a4.222 4.222 0 0 1-3.023-1.36 4.117 4.117 0 0 1-.9-2.072 11.149 11.149 0 0 1 2.557-8.607c3.617-4.293 9.085-4.234 9.996-4.209z" class="cls-5" transform="translate(-56.153 -11.214)"/>
                        <path id="Path_147521" d="M122.812 42.785c1.129 3.4.074 7.019-2.288 8.643a5.945 5.945 0 0 1-5.61.326" class="cls-6" transform="translate(-64.137 -36.075)"/>
                        <circle id="Ellipse_14815" cx="9.113" cy="9.113" r="9.113" class="cls-4" transform="translate(24.693 58.844)"/>
                        <path id="Path_147524" fill="#ff8e93" stroke="#2d2d2d" stroke-linecap="round" stroke-miterlimit="10" d="M113.709 64.114a38.757 38.757 0 0 1 10.209.691 16.669 16.669 0 0 0-3.019 4.978 17.608 17.608 0 0 0-.309 11.27l2.332.155a39.33 39.33 0 0 1 2.239-8.383c.794-2.015 1.417-4.1 2.282-6.084.775-1.78 1.375-2.919 1.023-4.281a4.758 4.758 0 0 0-2.229-2.705 34.049 34.049 0 0 0-14.6-3.8z" transform="translate(-67.805 -21.343)"/>
                        <path id="Path_147525" d="M149.262 54.931a36.173 36.173 0 0 1 8.021 9.438c2.152 3.673 4.091 6.98 3.457 11.131a14.151 14.151 0 0 1-2.835 6.222 20.083 20.083 0 0 1-6.326 5.523 33.136 33.136 0 0 1-13.44 4.226c-4.334.517-16.653 1.82-29.072-4.771-3.881-2.059-8.694-4.7-9.4-9.264-.43-2.782.818-5.258 1.824-7.26a21.976 21.976 0 0 1 7.951-8.641l11.963 5.862c.042 1.108.369 6.783 4.906 10.592a14.8 14.8 0 0 0 7.709 3.18 14.953 14.953 0 0 0 6.741-.483c.97-.307 6-1.9 8.114-6.559a14.21 14.21 0 0 0 .788-7.629c-.326-3.167-1.333-4.873-1.019-8.351a16.116 16.116 0 0 1 .618-3.216z" class="cls-4" transform="translate(-81.292 -22.49)"/>
                        <path id="Path_147526" d="M121.685 56.257a5.34 5.34 0 0 1 1.053-2.748 5.464 5.464 0 0 1 3.093-1.983 1.318 1.318 0 0 1-.225-.886c.1-.669.813-1.006 1.178-1.178a3.14 3.14 0 0 1 1.76-.275c2.135.362 3.091 4.7 3.32 5.754.218.985.873 4.43-.555 7.108a3.311 3.311 0 0 1-3.849 1.894h-.043l-1.4-1.237-.017-.024-1.462-1.294c-.061-.117-.129-.229-.193-.345" class="cls-5" transform="translate(-56.564 -28.948)"/>
                        <path id="Path_147527" d="M113.228 52.548a8.629 8.629 0 0 1-.456-7.432 8.373 8.373 0 0 1 2.046-2.96 9.208 9.208 0 0 1 4.552-2.356 8.328 8.328 0 0 1 6.447 1.214c1.58 1.186 3.445 3.493 2.807 4.627-1.013 1.8-7.025-1.684-9.72.852-2.591 2.438.189 8.275-1.57 9.063-1.123.51-3.155-1.475-4.106-3.008z" class="cls-5" transform="translate(-67.254 -39.618)"/>
                        <path id="Path_147528" d="M126.237 53.275a4.742 4.742 0 0 0 .9-4.01 4.567 4.567 0 0 0-3.39-3.25 8 8 0 0 0-4.493.278 11.714 11.714 0 0 0-5.669 4.218 38.9 38.9 0 0 0-3.695 6.15c-.57 1.184-.972 2.171-1.284 2.976-3.25 8.4-4.962 12.654-3.18 15.141 1.51 2.106 4.5 2.385 8.574 2.765 3.58.335 7.067.661 8.641-1.313 1.286-1.61-.078-3.032-.138-9.887-.034-3.769.159-5.574.83-7.605a18.328 18.328 0 0 1 2.904-5.463z" class="cls-6" transform="translate(-75.552 -32.691)"/>
                        <path id="Path_147529" d="M116.824 65.97a3.516 3.516 0 0 1-.528-.036h-.036a3.5 3.5 0 0 1-1.023-.3c-3.633-1.68-3.985-7.336-4.017-8.018a11.85 11.85 0 0 1 1.811-6.817.426.426 0 0 0 .034-.059 14.007 14.007 0 0 1 3.123-3.608 2.921 2.921 0 0 1 1.754-.684 1.5 1.5 0 0 1 .4.07 1.548 1.548 0 0 1 .606.386 4.182 4.182 0 0 1 1.057 2.735v.015a3.385 3.385 0 0 1-.239 1.409 19.9 19.9 0 0 1-1.6 2.631.241.241 0 0 0-.032.049 13.8 13.8 0 0 0-1.165 2.4c-.619 1.64-1.165 3.093-.494 4.1.227.335.636 1.036 4.841 1.036a53.159 53.159 0 0 0 7.966-.138c.114-.008.218-.021.322-.034a5.415 5.415 0 0 0 1.066-.242c1.093-.373 1.341-.856 2.731-1.574.9-.468 1.36-.7 1.917-.589a2.494 2.494 0 0 1 1.468 1.21 3.718 3.718 0 0 1 .561 2.652 1.58 1.58 0 0 1-1.288 1.513.969.969 0 0 1-.5-.034c-.572-.2-.542-.877-.968-1.311-.4-.4-1.28-.606-3.32.138-.422.125-.837.242-1.241.358" class="cls-4" transform="translate(-68.285 -31.982)"/>
                        <path id="Path_147530" d="M119.027 48.334a3.092 3.092 0 0 0-1.207-1.622 5.91 5.91 0 0 0-2.178-.641c-1.96 1.267-2.576 2.614-4.538 3.88l3.811 1.97 2.9-1.892z" class="cls-3" transform="translate(-68.399 -32.178)"/>
                        <path id="Path_147531" d="M113.171 58.149c3.269.3 5.974.366 7.9.371 4.426.006 6.665-.326 6.98-1.352a7.772 7.772 0 0 0-.271-1.977c-.148-.79-.288-1.434-.386-1.86" class="cls-6" transform="translate(-66.087 -24.278)"/>
                        <path id="Path_147533" d="M123.682 50.311a13.685 13.685 0 0 1 1.523 12.4" class="cls-2" transform="translate(-54.331 -27.657)"/>
                        <path id="Path_147522" d="M120.994 51.569c2.394 1.9 2.033 5.9 1.894 8.163-.106 1.706-.4 6.442-3.889 9.145-1.69 1.312-4.453 1.46-9.977 1.759a31.745 31.745 0 0 1-10.006-1.155 9.118 9.118 0 0 1-2.555-1.3 9.326 9.326 0 0 1-2-2.059 18.411 18.411 0 0 1-3.236-7.784 19.182 19.182 0 0 1-.232-4.606 2.668 2.668 0 0 1 .692-1.748 2.91 2.91 0 0 1 1.593-.823 69.058 69.058 0 0 1 13.1-1.325c2 .018 3.338.033 4.438.062.779.02 1.964.069 2.986.148 3.898.307 5.852.459 7.192 1.523z" class="cls-6" transform="translate(-90.946 -28.188)"/>
                        <path id="Union_2" fill="#ff8e93" stroke="#2d2d2d" stroke-miterlimit="10" d="M99.954 62.259l-.013-1.3a1.181 1.181 0 0 0-1.191-1.172l-1.3.013a1.935 1.935 0 0 1-.034-3.869l1.3-.011a1.182 1.182 0 0 0 1.172-1.193l-.011-1.3a1.934 1.934 0 0 1 3.867-.034l.013 1.3a1.18 1.18 0 0 0 1.191 1.172l1.3-.011a1.934 1.934 0 1 1 .036 3.867l-1.3.011a1.182 1.182 0 0 0-1.172 1.189l.013 1.3a1.934 1.934 0 0 1-3.867.034z" transform="translate(-85.124 -25.894)"/>
                    </g>
                    <g id="Group_111990" transform="translate(66.436 53.166)">
                        <g id="Group_111632" transform="translate(0 0)">
                            <path id="Path_186591" fill="#1778f2" stroke="#fff" d="M13.325 0A13.325 13.325 0 1 1 0 13.325 13.325 13.325 0 0 1 13.325 0z"/>
                            <path id="Path_186590" d="M764.045 147.71a1.166 1.166 0 0 1-.773-.292 20.606 20.606 0 0 1-1.663-1.651 20.386 20.386 0 0 1-1.432-1.8 1.167 1.167 0 0 1 1.91-1.343 17.468 17.468 0 0 0 1.262 1.592q.376.42.785.821c1.1-.819 2.176-1.685 3.211-2.58 1.258-1.089 2.483-2.243 3.637-3.432a1.167 1.167 0 0 1 1.675 1.625c-1.2 1.237-2.475 2.44-3.785 3.572-1.33 1.15-2.724 2.251-4.146 3.274a1.165 1.165 0 0 1-.681.214z" class="cls-3" transform="translate(-753.15 -129.864)"/>
                        </g>
                    </g>
                </g>
            </g>
        </g>
    </g>
</svg>
