<svg width="119" height="125" viewBox="0 0 119 125" fill="none" xmlns="http://www.w3.org/2000/svg">
<path opacity="0.05" d="M43.2846 111.738C28.9091 101.882 16.4795 89.4543 6.62234 75.0806C2.45829 70.8183 0.104258 65.1109 0.0528058 59.1527C0.0453476 56.1963 0.621814 53.2676 1.74919 50.5345C2.87656 47.8014 4.53264 45.3179 6.62234 43.2263C17.1396 29.4158 29.4714 17.0865 43.2846 6.57176C47.5466 2.40752 53.2542 0.0527049 59.2131 7.10861e-05C62.1699 -0.00736945 65.099 0.569358 67.8323 1.69713C70.5655 2.8249 73.049 4.4815 75.1401 6.57176C88.7598 17.306 101.066 29.6092 111.802 43.2263C115.968 47.4871 118.323 53.1944 118.375 59.1527C118.382 62.1096 117.805 65.0388 116.677 67.7721C115.55 70.5055 113.893 72.9892 111.802 75.0806C101.076 88.7082 88.7694 101.014 75.1401 111.738C72.426 114.409 69.0966 116.371 65.4454 117.451C63.4172 118.04 61.3146 118.334 59.2026 118.322C56.55 118.262 53.9272 117.749 51.4475 116.805C48.4232 115.662 45.6506 113.941 43.2846 111.738Z" fill="url(#paint0_linear_2657_9051)"/>
<path d="M25.7928 47H37L36 110.5H15C1.25673 91.7592 4.50524 70.3762 10.0806 56.5878C12.6057 50.3428 19.0567 47 25.7928 47Z" fill="#050A4E" stroke="#050A4E" stroke-linecap="round" stroke-linejoin="round"/>
<path d="M12 114.5V120.5C12 122.386 12 123.328 12.5858 123.914C13.1716 124.5 14.1144 124.5 16 124.5H36.5C38.3856 124.5 39.3284 124.5 39.9142 123.914C40.5 123.328 40.5 122.386 40.5 120.5V114.5C40.5 112.614 40.5 111.672 39.9142 111.086C39.3284 110.5 38.3856 110.5 36.5 110.5H16C14.1144 110.5 13.1716 110.5 12.5858 111.086C12 111.672 12 112.614 12 114.5Z" fill="white" stroke="#050A4E" stroke-linecap="round" stroke-linejoin="round"/>
<path d="M69.44 118.344L79.14 103.188C80.2943 101.384 80.8714 100.482 81.7688 99.9911C82.6661 99.5 83.7368 99.5 85.8781 99.5H92.3136C95.4929 99.5 97.0825 99.5 97.6543 100.527C98.2261 101.555 97.3885 102.906 95.7132 105.608L86.3464 120.716C85.1995 122.565 84.6261 123.49 83.719 123.995C82.8118 124.5 81.7236 124.5 79.5472 124.5H72.8091C69.5825 124.5 67.9692 124.5 67.4001 123.46C66.831 122.42 67.7007 121.061 69.44 118.344Z" fill="white" stroke="#050A4E" stroke-linecap="round" stroke-linejoin="round"/>
<path d="M95.5 74.5C80.7 68.5 63.3333 72.6667 56.5 75.5L49.5 86.5H110C109.5 82 106.5 77.5 104.5 77C103.724 76.806 98.1667 75.3333 95.5 74.5Z" fill="white" stroke="#050A4E" stroke-linecap="round" stroke-linejoin="round"/>
<rect x="62.5" y="19" width="50" height="37" rx="9.5" fill="white" stroke="#050A4E"/>
<rect x="70.5" y="26" width="34" height="23" rx="5.5" fill="#FACACD" stroke="#050A4E"/>
<path d="M71 37.5H77.5L82 31L86.5 44L90.5 33L94 40L96 37H104" stroke="#FF7E83" stroke-width="2" stroke-linecap="round" stroke-linejoin="round"/>
<path d="M72 7V19M103 7V19" stroke="#050A4E" stroke-linecap="round" stroke-linejoin="round"/>
<path d="M26.4999 105C9.99983 84.5 20.0001 47 35.5 47C53.5 47 56 85.5 48.4999 100.5C42.0999 116.1 31.1666 110 26.4999 105Z" fill="white" stroke="#050A4E" stroke-linecap="round" stroke-linejoin="round"/>
<path d="M29.0852 93.1152C24.258 80.1003 25.8067 70.0015 28.8917 63.337C31.4857 57.7331 39.0679 56.0171 41.997 61.4534C46.5053 69.8208 45.0774 84.5429 43.2515 92.7901C40.2126 101.154 35.4561 100.234 32.2474 97.8137C30.7137 96.6568 29.7532 94.9164 29.0852 93.1152Z" fill="white" stroke="#050A4E" stroke-linecap="round" stroke-linejoin="round"/>
<path d="M20 91.5H28" stroke="#050A4E" stroke-linecap="round" stroke-linejoin="round"/>
<path d="M1 124.5H117" stroke="#050A4E" stroke-linecap="round" stroke-linejoin="round"/>
<rect x="70.5" y="26" width="34" height="23" rx="5.5" stroke="#050A4E"/>
<path d="M51.9667 69.9154C57.7554 71.6038 61.1667 76.6595 59.8814 81.0665C58.5961 85.4735 53.0017 87.9026 47.213 86.2143C41.4244 84.526 38.013 79.4702 39.2984 75.0633C40.5837 70.6563 46.1781 68.2271 51.9667 69.9154Z" fill="white" stroke="#050A4E"/>
<path d="M41.4202 67.6953C41.3938 67.763 41.3518 67.8235 41.2975 67.8717C38.8593 70.0096 36.8883 72.6273 35.5076 75.5613C35.4829 75.6144 35.4479 75.6621 35.4046 75.7017C35.3614 75.7412 35.3109 75.7719 35.2558 75.7918C35.2008 75.8118 35.1424 75.8204 35.0839 75.8178C35.0254 75.8152 34.9679 75.8013 34.9149 75.7764C34.8606 75.7532 34.8118 75.7189 34.7713 75.6759C34.7308 75.633 34.6996 75.5822 34.6795 75.5267C34.6595 75.4712 34.6512 75.4119 34.655 75.353C34.6588 75.2941 34.6746 75.2367 34.7015 75.1841C36.1322 72.138 38.1756 69.4198 40.7041 67.199C40.7792 67.1362 40.8727 67.1 40.9705 67.0957C41.0682 67.0914 41.1648 67.1191 41.245 67.1751C41.3252 67.2311 41.3847 67.3122 41.4144 67.4054C41.4441 67.4986 41.4423 67.5991 41.4092 67.6911L41.4202 67.6953Z" fill="#050A4E"/>
<path d="M33.5767 73.0767C34.4748 70.9512 35.8012 69.0339 37.4732 67.4437L33.5767 73.0767Z" fill="white"/>
<path d="M37.8893 67.6047C37.866 67.667 37.8287 67.723 37.7804 67.7685C36.9409 68.566 36.1887 69.4506 35.5365 70.4073C34.9275 71.3022 34.4081 72.2545 33.9858 73.2512C33.9393 73.3595 33.852 73.4451 33.7429 73.4894C33.6337 73.5337 33.5114 73.5332 33.4027 73.4878C33.3464 73.468 33.2951 73.4363 33.252 73.3951C33.209 73.3538 33.1751 73.304 33.1528 73.2487C33.1305 73.1934 33.1202 73.1341 33.1226 73.0745C33.125 73.015 33.1401 72.9564 33.1668 72.9031C34.0871 70.7205 35.4493 68.7525 37.1679 67.1225C37.2411 67.0527 37.336 67.0098 37.4369 67.001C37.5377 66.9923 37.6386 67.0181 37.7227 67.0743C37.8069 67.1305 37.8694 67.2137 37.9 67.3102C37.9306 67.4067 37.9273 67.5109 37.8908 67.6053L37.8893 67.6047Z" fill="#050A4E"/>
<path d="M55.5 99.5L76.75 100L97 99.5L108.905 99.7904C112.931 99.8886 114.944 99.9377 116.161 98.6918C117.378 97.446 117.283 95.4347 117.091 91.4122L117.013 89.7655C117.004 89.5889 117.013 89.4119 117.038 89.2369C117.28 87.5366 115.948 86.021 114.231 86.0442L80.5 86.5L42.9492 86.0781C40.2348 86.0476 38.8776 86.0323 37.8864 86.6492C37.3793 86.9648 36.9493 87.39 36.628 87.8936C36 88.8778 36 90.235 36 92.9496C36 95.6997 36 97.0748 36.6391 98.0651C36.966 98.5716 37.4031 98.9977 37.9179 99.3115C38.9243 99.925 40.2989 99.8898 43.0481 99.8193L55.5 99.5Z" fill="white" stroke="#050A4E" stroke-linecap="round" stroke-linejoin="round"/>
<g style="mix-blend-mode:multiply" opacity="0.4">
<path d="M65.9127 71.0642C67.0654 72.2368 70.1668 75.391 69.8644 79.6901C69.4487 85.6038 62.956 88.653 62.0783 89.0493C57.2172 91.2434 48.3979 91.8505 44.0933 85.2149C43.164 83.7822 42.5262 82.1804 42.2159 80.5012C41.9057 78.822 41.929 77.0983 42.2851 75.4281C42.6412 73.758 43.3227 72.1744 44.2909 70.7678C45.259 69.3611 46.4949 68.1588 47.9277 67.2298C54.7611 62.7978 62.654 67.7525 65.9127 71.0642Z" fill="#FF8E93"/>
</g>
<defs>
<linearGradient id="paint0_linear_2657_9051" x1="59.2138" y1="0" x2="59.2138" y2="118.322" gradientUnits="userSpaceOnUse">
<stop stop-color="#1778F2"/>
<stop offset="1" stop-color="#F40009"/>
</linearGradient>
</defs>
</svg>
