<svg width="89" height="117" viewBox="0 0 89 117" fill="none" xmlns="http://www.w3.org/2000/svg">
<path d="M58.4167 1.12016L56.3509 0.586675C55.0962 0.262663 53.8164 1.01711 53.4924 2.27177L47.9363 23.7866C47.6123 25.0413 48.3668 26.321 49.6214 26.645L51.6872 27.1785C52.9419 27.5025 54.2217 26.7481 54.5457 25.4934L60.1018 3.97861C60.4258 2.72394 59.6713 1.44417 58.4167 1.12016Z" fill="#1778F2" stroke="#050A4E" stroke-width="0.887889" stroke-miterlimit="10"/>
<path d="M10.6621 84.7598L7.10254 96.4661L18.0081 110.742L25.2938 112L30.8878 106.283L10.6621 84.7598Z" fill="white"/>
<path d="M64.5928 68.1541C63.7885 71.6534 63.0747 74.7638 60.3734 76.0515C59.6084 76.4332 58.7659 76.6332 57.911 76.6361C57.056 76.6389 56.2117 76.4445 55.4442 76.0678C51.9197 74.084 52.777 67.6796 53.0527 65.6089C53.4378 62.7327 53.8898 59.3479 56.7748 57.4875C58.858 56.1444 62.1951 55.6056 64.1524 57.1728C66.6536 59.1717 65.6388 63.5962 64.5928 68.1541Z" fill="white" stroke="#211F20" stroke-width="0.887889" stroke-miterlimit="10"/>
<path d="M16.5872 34.3047C13.5334 34.6156 9.67171 39.8973 6.61799 63.0759C5.97477 65.9571 3.43447 78.7775 10.9643 90.1251C13.4757 93.8638 16.7247 97.0499 20.5118 99.4876C25.0897 102.495 30.3799 104.242 35.8485 104.552C43.834 104.854 51.4745 98.7689 66.7708 86.6182C69.1624 84.7225 72.0727 82.3019 72.0375 78.9587C72.001 75.5941 68.9863 72.0356 65.9515 71.8304C62.5264 71.6039 61.605 75.7728 57.392 78.1783C49.6985 82.5751 37.7705 77.4079 31.1709 71.8455C29.3495 70.3111 20.0148 62.4427 21.4863 54.6586C22.0339 51.7635 23.8614 50.0403 23.9331 45.3829C24.1381 42.8316 23.5001 40.2836 22.1169 38.13C21.9608 37.9097 19.2431 34.0328 16.5872 34.3047Z" fill="white" stroke="#050A4E" stroke-width="0.887889" stroke-miterlimit="10"/>
<path d="M67.3482 34.7405C59.3199 43.2245 52.7306 56.2764 55.3437 58.2791C59.2458 61.2623 85.1646 40.7825 84.2583 30.749C84.2089 29.7473 83.852 28.7851 83.2362 27.9934C82.6204 27.2017 81.7758 26.619 80.8171 26.3245C76.317 25.2647 69.6442 32.3149 67.3482 34.7405Z" fill="white" stroke="#050A4E" stroke-width="0.887889" stroke-miterlimit="10"/>
<path d="M69.599 84.4981C72.6103 81.1197 72.9534 76.5109 70.3654 74.2041C67.7774 71.8972 63.2382 72.7659 60.2269 76.1443C57.2156 79.5227 56.8724 84.1315 59.4605 86.4384C62.0485 88.7452 66.5877 87.8765 69.599 84.4981Z" fill="white" stroke="#050A4E" stroke-width="0.887889" stroke-miterlimit="10"/>
<path d="M20.4136 105.2L38.5825 109.807C43.5583 111.066 49.093 106.327 50.8817 99.27C53.9593 90.7105 57.1286 80.74 59.9796 69.5296C62.8747 58.1266 64.8761 47.6941 66.2733 38.577C67.0945 35.3651 66.9696 31.9843 65.9135 28.8419C65.512 27.5709 64.8079 26.4164 63.8616 25.4777C62.9152 24.539 61.7551 23.8443 60.4808 23.4532L42.3108 18.8462C37.3362 17.5874 31.8015 22.3266 30.0115 29.3831C27.5029 36.3226 24.9955 44.0148 22.6643 52.4182C19.2276 64.799 16.5422 77.3763 14.6232 90.0812C13.9189 92.8869 13.9146 95.8227 14.6106 98.6306C14.9288 100.133 15.6307 101.528 16.6475 102.679C17.6643 103.83 18.9617 104.699 20.4136 105.2Z" fill="#1778F2" stroke="#050A4E" stroke-width="0.887889" stroke-miterlimit="10"/>
<path d="M68.4408 75.2845C71.4521 71.9061 71.7952 67.2973 69.2072 64.9904C66.6192 62.6836 62.08 63.5523 59.0687 66.9307C56.0574 70.3091 55.7142 74.9179 58.3023 77.2247C60.8903 79.5316 65.4295 78.6629 68.4408 75.2845Z" fill="white" stroke="#050A4E" stroke-width="0.887889" stroke-miterlimit="10"/>
<path d="M29.3875 108.163C28.6743 108.692 28.0013 109.273 27.3737 109.901C25.5274 111.766 24.0903 113.995 23.1543 116.447" fill="white"/>
<path d="M29.3875 108.163C28.6743 108.692 28.0013 109.273 27.3737 109.901C25.5274 111.766 24.0903 113.995 23.1543 116.447" stroke="#050A4E" stroke-width="0.887889" stroke-miterlimit="10" stroke-linecap="round"/>
<path d="M1 97.0539C4.48993 94.5472 7.3543 91.2686 9.36962 87.4736L1 97.0539Z" fill="white"/>
<path d="M1 97.0539C4.48993 94.5472 7.3543 91.2686 9.36962 87.4736" stroke="#050A4E" stroke-width="0.887889" stroke-miterlimit="10" stroke-linecap="round"/>
<path d="M22.153 102.782L37.6581 106.714C41.9026 107.791 46.7576 103.225 48.4456 96.5701C51.2715 88.4726 54.2055 79.0609 56.8942 68.4875C59.6282 57.7327 61.5668 47.9082 62.959 39.3299C63.7309 36.3335 63.696 33.1863 62.8582 30.2077C62.58 29.0668 62.0165 28.0152 61.2205 27.1517C60.4246 26.2881 59.4224 25.641 58.3078 25.2709L42.8028 21.3399C38.557 20.2636 33.7032 24.8278 32.0152 31.4828C29.7117 38.0434 27.3942 45.3114 25.2178 53.2352C22.0012 64.9152 19.427 76.7627 17.5067 88.7243C16.8435 91.3485 16.7775 94.0881 17.3131 96.7413C18.4334 101.59 21.657 102.635 22.153 102.782Z" fill="white" stroke="#050A4E" stroke-width="0.887889" stroke-miterlimit="10"/>
<path d="M67.4525 62.8147C70.4638 59.4363 70.807 54.8275 68.2189 52.5207C65.6309 50.2139 61.0917 51.0826 58.0804 54.461C55.0691 57.8394 54.7259 62.4482 57.314 64.755C59.902 67.0618 64.4412 66.1931 67.4525 62.8147Z" fill="white" stroke="#050A4E" stroke-width="0.887889" stroke-miterlimit="10"/>
<path d="M46.3476 40.5419C45.0046 39.9755 37.6382 49.1467 40.3219 53.1659C40.8785 53.8769 41.6062 54.4355 42.4368 54.7896C43.2674 55.1437 44.1742 55.2819 45.0726 55.1912C46.1792 55.1096 47.2084 54.5938 47.9361 53.7563C48.5971 52.8314 48.8738 51.6862 48.7078 50.5616C48.5593 48.6432 47.6039 48.0994 46.8851 46.2428C45.649 43.0506 46.9896 40.8163 46.3476 40.5419Z" fill="#F40009" stroke="#050A4E" stroke-width="0.887889" stroke-miterlimit="10"/>
<path d="M29.0166 69.668L46.5144 74.1869" stroke="#050A4E" stroke-width="0.887889" stroke-miterlimit="10" stroke-linecap="round"/>
<path d="M27.1318 76.9707L44.6297 81.4896" stroke="#050A4E" stroke-width="0.887889" stroke-miterlimit="10" stroke-linecap="round"/>
<path d="M25.1641 84.5859L42.6619 89.1048" stroke="#050A4E" stroke-width="0.887889" stroke-miterlimit="10" stroke-linecap="round"/>
<path d="M80.969 33.5208C82.2428 32.8776 90.1768 40.2451 87.9954 45.8566C87.66 46.7841 87.0893 47.6083 86.3389 48.2483C85.5886 48.8884 84.6845 49.3221 83.7157 49.5069C82.6453 49.5605 81.5818 49.3057 80.6518 48.7729C79.7219 48.2401 78.9645 47.4516 78.4693 46.501C77.7924 45.1821 77.6002 43.6674 77.9266 42.2213C78.1754 41.2635 78.5464 40.3416 79.0305 39.4785C79.534 38.4941 79.7318 38.3456 80.0464 37.7276C81.2234 35.4568 80.4277 33.7952 80.969 33.5208Z" fill="#F40009" stroke="#050A4E" stroke-width="0.887889" stroke-miterlimit="10" stroke-linecap="round"/>
</svg>
