<svg xmlns="http://www.w3.org/2000/svg" width="110.531" height="116.46" viewBox="0 0 110.531 116.46"> <defs> <linearGradient id="linear-gradient" x1=".5" x2=".5" y2="1" gradientUnits="objectBoundingBox"> <stop offset="0" stop-color="#c7dcff"/> <stop offset="1" stop-color="#ffabaf"/> </linearGradient> <style>.cls-3,.cls-5{fill:#fff;stroke:#2d2d2d;stroke-miterlimit:10}.cls-5{fill:#f40009}</style> </defs> <g id="Group_125727" transform="translate(-295 -6200)"> <g id="Group_125726"> <path id="Path_229004" fill="url(#linear-gradient)" d="M271.877 251.117a126.59 126.59 0 0 1-32.807-32.807 20.66 20.66 0 0 1-5.879-14.256 20.1 20.1 0 0 1 5.879-14.254 172.816 172.816 0 0 1 32.807-32.8 20.652 20.652 0 0 1 14.256-5.882A20.089 20.089 0 0 1 300.389 157a197.348 197.348 0 0 1 32.811 32.8 20.651 20.651 0 0 1 5.882 14.256 20.1 20.1 0 0 1-5.882 14.254 196.077 196.077 0 0 1-32.807 32.807 20.773 20.773 0 0 1-8.672 5.1 19.628 19.628 0 0 1-5.584.779 20.836 20.836 0 0 1-6.94-1.358 22.274 22.274 0 0 1-7.32-4.521z" opacity="0.2" transform="translate(61.809 6060.092)"/> <g id="Group_125351" transform="translate(-681.184 5468.624)"> <path id="Path_38801" d="M1003.094 753.508a6.416 6.416 0 0 1-3.187 8.492q-.112.052-.224.1c-3.057.59-5.658-3.588-5.808-3.838-.363-.6-2.422-4-.785-6.295 1.444-2.037 4.656-1.623 5.116-1.573a6.569 6.569 0 0 1 4.888 3.114z" class="cls-3" transform="translate(8.154 13.49)"/> <path id="Path_38802" d="M1016.864 753.455a6.417 6.417 0 0 0 3.187 8.5l.226.1c3.052.591 5.652-3.59 5.8-3.836.363-.6 2.422-4 .788-6.3-1.447-2.035-4.656-1.623-5.12-1.573a6.564 6.564 0 0 0-4.881 3.109z" class="cls-3" transform="translate(27.811 13.445)"/> <path id="Path_38803" d="M1071.47 800c-2.073 12.774-26.532 18.77-42.369 19.189-19.005.5-44.517-6.543-46.406-19.189-1.024-6.859 5.233-13.168 11.058-19.042a44.365 44.365 0 0 1 62.586-4.409q1.473 1.281 2.831 2.687c5.421 5.047 13.61 12.673 12.3 20.764z" class="cls-3" transform="translate(0 26.16)"/> <path id="Path_38804" d="M992.773 770.373a22.527 22.527 0 0 0-.451 7.507 22.9 22.9 0 0 0 4 10.588" class="cls-3" transform="translate(7.927 30.03)"/> <path id="Path_38805" d="M1019.9 779.414c.117-1.3.188-2.679.179-4.178a42.835 42.835 0 0 0-.509-6.3" class="cls-3" transform="translate(30.514 28.845)"/> <path id="Path_38806" fill="#1778f2" stroke="#2d2d2d" stroke-miterlimit="10" d="M1003.115 783.463a6.173 6.173 0 1 1-6.173-6.176 6.172 6.172 0 0 1 6.173 6.176z" transform="translate(6.754 35.735)"/> <ellipse id="Ellipse_2854" cx="20.93" cy="29.292" class="cls-3" rx="20.93" ry="29.292" transform="translate(1006.859 737.579)"/> <path id="Path_38808" d="M1032.408 800.884c2.53 1.146 4.262 1.268 5.287.5 4.428-3.305-1.064-25.5-10.434-26.642-9.082-1.11-19.883 17.865-16.218 23.112a5.957 5.957 0 0 0 5.089 1.82" class="cls-3" transform="translate(22.877 33.6)"/> <circle id="Ellipse_2855" cx="3.111" cy="3.111" r="3.111" class="cls-5" transform="translate(1037.105 830.512)"/> <circle id="Ellipse_2856" cx="3.111" cy="3.111" r="3.111" class="cls-5" transform="translate(1050.818 831.3)"/> <path id="Path_38809" d="M996.359 763.981a68.762 68.762 0 0 0 15.085-5.514c9.325-4.729 14.168-9.951 18.489-8 1.411.631 2.25 1.995 3.937 4.723a36.747 36.747 0 0 1 4.674 11.675c3.875-10.973.8-22.581-7.04-28.47a23.357 23.357 0 0 0-18.365-3.939 28.09 28.09 0 0 0-8.919 3.939 19.471 19.471 0 0 0-5.514 4.722 18 18 0 0 0-3.143 6.861 24.685 24.685 0 0 0 .796 14.003z" class="cls-3" transform="translate(10.167 0)"/> </g> </g> </g></svg>