<svg width="76" height="115" viewBox="0 0 76 115" fill="none" xmlns="http://www.w3.org/2000/svg">
<path d="M38.4885 62.5443L48.9685 81.922C50.341 81.47 58.6164 78.6215 60.1606 71.9219C60.3485 71.1041 60.4304 70.2656 60.4043 69.4269C55.9202 62.6499 51.4374 55.8737 46.9559 49.0984L38.4885 62.5443Z" fill="white"/>
<path d="M49.3967 51.3445C50.7712 54.5921 52.3798 57.7355 54.2099 60.7499C55.6123 63.0621 57.1565 65.2852 58.8337 67.4065C61.1293 70.3064 63.6217 73.0448 66.2934 75.6023C66.9247 76.2084 66.9373 76.1844 67.2454 76.4963C69.4197 78.1264 70.7808 80.8158 71.6899 84.1189" stroke="#050A4E" stroke-width="0.7" stroke-miterlimit="10" stroke-linecap="round"/>
<path d="M52.509 59.6462C52.7236 59.4051 52.9257 59.1652 53.1403 58.9139C53.1656 58.876 53.2035 58.8495 53.2288 58.8116C57.5973 53.7889 60.282 47.5235 60.9056 40.896C61.8147 28.1673 53.6455 12.0307 41.3726 11.1987C33.5063 10.6684 26.3975 16.5901 22.1803 22.7013C20.0975 25.4648 18.7311 28.7008 18.203 32.1207C18.1919 33.2066 18.0521 34.2874 17.7863 35.3404C16.2207 41.0463 11.006 43.2445 11.8267 45.4163C12.2891 46.1946 13.0077 46.7878 13.8595 47.0943C15.1096 47.6638 15.7661 47.3102 16.8014 47.9416C17.5381 48.4359 18.1099 49.1395 18.4429 49.9618C18.9472 51.2209 19.3814 52.507 19.7435 53.8141V53.8267C20.475 55.7948 21.3871 57.691 22.4682 59.4909C24.9304 63.5857 28.0125 68.7082 32.6161 69.3206C36.38 69.8168 38.1251 66.8938 40.8132 68.2878C41.8511 68.8256 42.144 69.5504 44.6617 73.659C45.9559 75.774 47.0368 77.4747 47.7325 78.5568" fill="white"/>
<path d="M52.509 59.6462C52.7236 59.4051 52.9257 59.1652 53.1403 58.9139C53.1656 58.876 53.2035 58.8495 53.2288 58.8116C57.5973 53.7889 60.282 47.5235 60.9056 40.896C61.8147 28.1673 53.6454 12.0307 41.3726 11.1987C33.5063 10.6684 26.3975 16.5901 22.1803 22.7013C20.0975 25.4648 18.7311 28.7008 18.203 32.1207C18.1919 33.2066 18.0521 34.2874 17.7863 35.3404C16.2207 41.0463 11.006 43.2445 11.8267 45.4163C12.2891 46.1946 13.0077 46.7878 13.8595 47.0943C15.1096 47.6638 15.7661 47.3102 16.8014 47.9416C17.5381 48.4359 18.1099 49.1395 18.4429 49.9618C18.9472 51.2209 19.3814 52.507 19.7435 53.8141V53.8267C20.475 55.7948 21.3871 57.691 22.4682 59.4909C24.9304 63.5857 28.0125 68.7082 32.6161 69.3206C36.38 69.8168 38.1251 66.8938 40.8132 68.2878C41.8511 68.8256 42.144 69.5504 44.6617 73.659C45.9559 75.774 47.0368 77.4747 47.7325 78.5568" stroke="#050A4E" stroke-width="0.7" stroke-miterlimit="10" stroke-linecap="round"/>
<path d="M20.4809 13.3856C17.7031 24.6332 36.6288 40.944 47.6618 37.0917C51.1467 35.8758 53.7338 32.6864 55.6051 33.8619C57.4561 35.0235 57.5898 39.814 55.6416 42.9529C53.7943 45.929 51.3563 45.487 49.98 47.8962C47.7401 51.8104 50.3991 59.5958 54.3638 60.717C59.7174 62.2322 68.4158 51.8785 71.686 41.9201C73.9513 35.4347 74.0153 28.3833 71.8679 21.858C66.8716 7.26433 52.5848 2.71504 51.3259 2.35771C43.8569 0.398545 35.9377 1.1169 28.9432 4.38804C22.3484 7.93733 20.9039 11.6697 20.4809 13.3856Z" fill="#050A4E"/>
<path d="M20.4809 13.3856C17.7031 24.6332 36.6288 40.944 47.6618 37.0917C51.1467 35.8758 53.7338 32.6864 55.6051 33.8619C57.4561 35.0235 57.5898 39.814 55.6416 42.9529C53.7943 45.929 51.3563 45.487 49.98 47.8962C47.7401 51.8104 50.3991 59.5958 54.3638 60.717C59.7174 62.2322 68.4158 51.8785 71.686 41.9201C73.9513 35.4347 74.0153 28.3833 71.8679 21.8579C66.8716 7.26433 52.5848 2.71504 51.3259 2.35771C43.8569 0.398545 35.9377 1.1169 28.9432 4.38804C22.3484 7.93732 20.9039 11.6697 20.4809 13.3856Z" stroke="#050A4E" stroke-width="0.7" stroke-miterlimit="10" stroke-linecap="round"/>
<path d="M44.6088 80.9711C41.2502 91.7456 37.891 102.52 34.5316 113.295L62.1747 113.435L71.0611 106.437L68.7517 91.7414L65.5333 80.8246C64.9273 80.3423 57.3513 74.4899 49.648 77.4647C47.7196 78.2279 45.9946 79.4281 44.6088 80.9711Z" fill="white"/>
<path d="M36.9115 114C39.698 108.914 41.6364 103.406 42.6503 97.6958C43.9722 90.0303 43.1225 84.2259 47.5481 79.0087C48.9412 77.4173 50.5694 76.0483 52.3764 74.9493C55.4896 73.0532 59.0244 71.9591 62.6643 71.7649C64.4052 72.9394 65.9818 74.3407 67.3525 75.9316C69.8937 79.033 71.7 82.6693 72.6355 86.5681C75.6027 97.1743 74.6317 109.674 74.316 113.127" fill="white"/>
<path d="M36.9115 114C39.698 108.914 41.6364 103.406 42.6503 97.6958C43.9722 90.0303 43.1225 84.2259 47.5481 79.0087C48.9412 77.4173 50.5694 76.0483 52.3764 74.9493C55.4896 73.0532 59.0244 71.9591 62.6643 71.7649C64.4052 72.9394 65.9818 74.3407 67.3525 75.9316C69.8937 79.033 71.7 82.6693 72.6355 86.5681C75.6027 97.1743 74.6317 109.674 74.316 113.127" stroke="#050A4E" stroke-width="0.7" stroke-miterlimit="10" stroke-linecap="round"/>
<path d="M51.701 71.4318C51.4738 71.432 51.2508 71.3709 51.0555 71.2549C50.8602 71.1389 50.6997 70.9723 50.5911 70.7728C46.6213 63.4797 43.0999 56.9165 39.8233 50.7094C39.0609 48.9454 37.9464 47.3557 36.548 46.0376C31.553 41.7446 23.3042 43.0072 17.265 44.8204C16.9442 44.9168 16.5981 44.8819 16.3031 44.7232C16.008 44.5646 15.7882 44.2952 15.6918 43.9744C15.5954 43.6536 15.6303 43.3076 15.7889 43.0126C15.9476 42.7176 16.2169 42.4976 16.5377 42.4012C26.0656 39.535 33.5544 40.1284 38.1959 44.1247C39.8269 45.6311 41.1326 47.4551 42.033 49.4846C45.3285 55.7271 48.8513 62.2802 52.8084 69.5606C52.968 69.8545 53.0044 70.1997 52.9097 70.5205C52.815 70.8412 52.5969 71.1114 52.3033 71.2715C52.1194 71.3751 51.9121 71.4303 51.701 71.4318Z" fill="#FFA6AB"/>
<path d="M40.5405 50.1992C40.2672 50.2002 40.0011 50.1115 39.783 49.9467C39.5168 49.7441 39.3419 49.4441 39.2967 49.1127C39.2515 48.7813 39.3396 48.4455 39.5418 48.179C42.6326 44.1121 46.7605 40.9516 51.4928 39.0286C51.6475 38.9589 51.8145 38.9212 51.9841 38.9175C52.1538 38.9139 52.3224 38.9445 52.48 39.0075C52.6375 39.0705 52.7809 39.1646 52.9012 39.2842C53.0216 39.4038 53.1165 39.5464 53.1805 39.7035C53.2445 39.8607 53.2763 40.0291 53.2738 40.1988C53.2712 40.3684 53.2344 40.5358 53.1657 40.691C53.097 40.8461 52.9978 40.9858 52.8739 41.1018C52.7501 41.2177 52.604 41.3075 52.4447 41.3658C48.1308 43.1185 44.3684 46.0001 41.5519 49.708C41.4328 49.8625 41.2794 49.9872 41.1039 50.0724C40.9284 50.1576 40.7356 50.201 40.5405 50.1992Z" fill="#FFA6AB"/>
<path d="M16.7663 46.1549C18.1575 46.1549 19.2853 45.0271 19.2853 43.6359C19.2853 42.2447 18.1575 41.1169 16.7663 41.1169C15.3752 41.1169 14.2474 42.2447 14.2474 43.6359C14.2474 45.0271 15.3752 46.1549 16.7663 46.1549Z" fill="#FFA6AB"/>
<path d="M51.9308 42.2711C53.322 42.2711 54.4497 41.1433 54.4497 39.7521C54.4497 38.3609 53.322 37.2332 51.9308 37.2332C50.5396 37.2332 49.4118 38.3609 49.4118 39.7521C49.4118 41.1433 50.5396 42.2711 51.9308 42.2711Z" fill="#FFA6AB"/>
<path d="M51.826 72.712C53.2172 72.712 54.3449 71.5842 54.3449 70.193C54.3449 68.8019 53.2172 67.6741 51.826 67.6741C50.4348 67.6741 49.307 68.8019 49.307 70.193C49.307 71.5842 50.4348 72.712 51.826 72.712Z" fill="#FFA6AB"/>
<g style="mix-blend-mode:multiply" opacity="0.5">
<path d="M25.7878 47.9339C26.1426 49.569 27.0959 53.9642 24.5833 57.5161C21.1299 62.4 14.0667 61.5338 13.121 61.4037C7.87977 60.679 0.142196 56.4466 0.00583069 48.3985C-0.0975839 44.9334 1.17815 41.5689 3.553 39.0435C5.92786 36.5181 9.20788 35.0382 12.6728 34.9286C20.7474 34.7809 24.7878 43.3227 25.7878 47.9339Z" fill="#FF8489"/>
</g>
<g style="mix-blend-mode:multiply" opacity="0.5">
<path d="M61.6165 34.218C61.9713 35.8531 62.9234 40.2484 60.412 43.8002C56.9587 48.6841 49.8955 47.8179 48.9497 47.6879C43.7085 46.9631 35.9711 42.7308 35.8347 34.6827C35.731 31.2175 37.0065 27.8527 39.3814 25.3273C41.7564 22.8018 45.0365 21.322 48.5015 21.2128C56.5774 21.0651 60.6178 29.6018 61.6165 34.218Z" fill="#FF8489"/>
</g>
<g style="mix-blend-mode:multiply" opacity="0.5">
<path d="M67.7758 77.8853C68.1306 79.5204 69.0837 83.9157 66.5711 87.4687C63.119 92.3526 56.0545 91.4852 55.1088 91.3551C49.8689 90.6317 42.1302 86.3993 41.9938 78.3499C41.8904 74.8849 43.1662 71.5205 45.5411 68.9953C47.916 66.4701 51.1958 64.9905 54.6606 64.8813C62.7352 64.7323 66.7758 73.2691 67.7758 77.8853Z" fill="#FF8489"/>
</g>
</svg>
