<svg width="82" height="126" viewBox="0 0 82 126" fill="none" xmlns="http://www.w3.org/2000/svg">
<path d="M42.2467 126C60.1126 126 74.5959 119.316 74.5959 111.07C74.5959 102.824 60.1126 96.1389 42.2467 96.1389C24.3807 96.1389 9.89746 102.824 9.89746 111.07C9.89746 119.316 24.3807 126 42.2467 126Z" fill="white"/>
<path d="M67.4861 88.9417L61.5107 107.688L73.8706 111.848L74.2222 88.4736L67.4861 88.9417Z" fill="white"/>
<path d="M74.1934 90.5249C74.467 94.1542 74.633 98.0509 74.633 102.187C74.633 105.86 74.5046 109.34 74.2822 112.615" fill="white"/>
<path d="M74.1934 90.5249C74.467 94.1542 74.633 98.0509 74.633 102.187C74.633 105.86 74.5046 109.34 74.2822 112.615" stroke="#050A4E" stroke-width="0.5" stroke-miterlimit="10" stroke-linecap="round"/>
<path d="M50.7532 41.5076C49.2325 45.5077 48.995 49.8821 50.0737 54.0234C50.9042 57.0999 52.4556 59.9344 54.5989 62.2926C53.7072 64.8411 52.0915 67.0742 49.95 68.7185C47.8084 70.3627 45.2342 71.3468 42.5419 71.5501C39.8496 71.7534 37.1564 71.1672 34.7922 69.8631C32.4281 68.5591 30.4957 66.5939 29.2314 64.2083C31.0164 61.3355 32.2488 58.1544 32.8652 54.8288C33.5934 50.8632 33.4389 46.7859 32.4127 42.8868L50.7532 41.5076Z" fill="white" stroke="#050A4E" stroke-width="0.5" stroke-miterlimit="10"/>
<path d="M9.55333 90.7964C8.79993 97.7968 8.79993 104.858 9.55333 111.858C26.9688 109.803 41.8727 115.124 59.2913 113.074L72.1507 84.4631L9.55333 90.7964Z" fill="white"/>
<path d="M66.4611 110.382C66.6586 108.14 66.7893 105.733 66.8126 103.176C66.8415 99.9051 66.6924 96.6349 66.3662 93.38C69.0671 93.8179 71.834 93.5955 74.4302 92.7316C76.4517 92.0427 79.0545 91.1564 79.7169 89.1008C80.1725 87.6687 79.373 86.7201 77.4604 82.6477C76.2132 80.0929 75.1455 77.4545 74.2639 74.7517C73.5567 71.9835 72.6201 69.2789 71.4646 66.6659C70.9693 65.7653 70.4022 64.9063 69.7684 64.0972C69.7684 64.0972 69.2584 63.4612 68.6675 62.861C67.4391 61.6077 60.6031 58.8088 50.8691 56.3831C50.221 58.3094 48.9944 59.9886 47.356 61.1913C45.7176 62.3939 43.7475 63.0614 41.7155 63.1024C39.6835 63.1434 37.6884 62.556 36.0029 61.4204C34.3173 60.2848 33.0237 58.6564 32.2985 56.7578C14.2953 59.5287 9.12997 64.0816 7.99175 67.9534C7.58124 69.3529 6.7333 72.4504 5.42092 78.1182C4.9263 80.3693 4.16369 82.553 3.14923 84.6225C1.67669 87.9019 0.723605 88.8131 1.07191 90.295C1.58971 92.5014 4.73583 93.7159 6.20371 94.2414C9.56074 95.3538 13.1885 95.344 16.5394 94.2135" fill="white"/>
<path d="M66.4611 110.382C66.6586 108.14 66.7893 105.733 66.8126 103.176C66.8415 99.9051 66.6924 96.6349 66.3662 93.38C69.0671 93.8179 71.834 93.5955 74.4302 92.7316C76.4517 92.0427 79.0545 91.1564 79.7169 89.1008C80.1725 87.6687 79.373 86.7201 77.4604 82.6477C76.2133 80.0929 75.1455 77.4545 74.2639 74.7517C73.5567 71.9835 72.6201 69.2789 71.4646 66.6659C70.9693 65.7653 70.4022 64.9063 69.7684 64.0972C69.7684 64.0972 69.2584 63.4612 68.6675 62.861C67.4391 61.6077 60.6031 58.8088 50.8691 56.3831C50.221 58.3094 48.9944 59.9886 47.356 61.1913C45.7176 62.3939 43.7475 63.0614 41.7155 63.1024C39.6835 63.1434 37.6884 62.556 36.0029 61.4204C34.3173 60.2848 33.0237 58.6564 32.2985 56.7578C14.2953 59.5287 9.12997 64.0816 7.99175 67.9534C7.58124 69.3529 6.7333 72.4504 5.42092 78.1182C4.9263 80.3693 4.16369 82.553 3.14923 84.6225C1.67669 87.9019 0.723605 88.8131 1.07191 90.295C1.58971 92.5014 4.73583 93.7159 6.20371 94.2414C9.56074 95.3538 13.1885 95.344 16.5394 94.2135" stroke="#050A4E" stroke-width="0.5" stroke-miterlimit="10" stroke-linecap="round"/>
<path d="M16.8113 110.561C16.7631 106.899 16.7802 103.837 16.8113 101.598C16.8751 96.8307 16.9213 93.6679 17.2494 89.5581C17.5355 86.0082 17.9212 83.0973 18.2182 81.1226" fill="white"/>
<path d="M16.8113 110.561C16.7631 106.899 16.7802 103.837 16.8113 101.598C16.8751 96.8307 16.9213 93.6679 17.2494 89.5581C17.5355 86.0082 17.9212 83.0973 18.2182 81.1226" stroke="#050A4E" stroke-width="0.5" stroke-miterlimit="10" stroke-linecap="round"/>
<path d="M65.1885 80.0352C65.6208 83.456 65.9655 87.0013 66.2127 90.6804C66.2822 91.7512 66.3431 92.8122 66.3949 93.8633" fill="white"/>
<path d="M65.1885 80.0352C65.6208 83.456 65.9655 87.0014 66.2127 90.6804C66.2822 91.7512 66.3431 92.8122 66.3949 93.8633" stroke="#050A4E" stroke-width="0.5" stroke-miterlimit="10" stroke-linecap="round"/>
<path d="M8.96577 95.0562C8.84448 97.5316 8.79453 100.166 8.84428 102.943C8.90026 105.972 9.06945 108.83 9.31047 111.495" fill="white"/>
<path d="M8.96577 95.0562C8.84448 97.5316 8.79453 100.166 8.84428 102.943C8.90026 105.972 9.06945 108.83 9.31047 111.495" stroke="#050A4E" stroke-width="0.5" stroke-miterlimit="10" stroke-linecap="round"/>
<path d="M25.183 47.1563C23.3388 45.6682 21.1833 45.7568 20.3701 46.7209C20.1284 47.0773 19.9797 47.4884 19.9373 47.917C19.8949 48.3455 19.9607 48.7778 20.1279 49.1746C20.4525 49.9062 21.0124 50.5082 21.7185 50.885C23.5851 52.1165 25.2088 53.6816 26.5079 55.5017" fill="white"/>
<path d="M25.183 47.1563C23.3388 45.6682 21.1833 45.7568 20.3701 46.7209C20.1284 47.0773 19.9797 47.4884 19.9373 47.917C19.8949 48.3455 19.9607 48.7778 20.1279 49.1746C20.4525 49.9062 21.0124 50.5082 21.7185 50.885C23.5851 52.1165 25.2088 53.6816 26.5079 55.5017" stroke="#050A4E" stroke-width="0.5" stroke-miterlimit="10"/>
<path d="M54.6024 45.9177C56.9224 44.2648 59.1988 43.9522 60.0447 44.8292C60.8299 45.6471 60.2761 47.4291 60.1533 47.8256C59.6763 49.0598 58.9046 50.1585 57.9051 51.0257C56.6739 52.3549 55.5196 53.7536 54.4482 55.2147" fill="white"/>
<path d="M54.6024 45.9177C56.9224 44.2648 59.1988 43.9522 60.0447 44.8292C60.8299 45.6471 60.2761 47.4291 60.1533 47.8256C59.6763 49.0598 58.9046 50.1585 57.9051 51.0257C56.6739 52.3549 55.5196 53.7536 54.4482 55.2147" stroke="#050A4E" stroke-width="0.5" stroke-miterlimit="10"/>
<path d="M56.4073 49.0321C56.5301 58.3945 49.2843 64.4728 47.8771 65.653C46.0928 67.3814 43.7997 68.4897 41.3368 68.8142C37.5132 69.077 34.6179 66.7212 33.0131 65.4151C32.3119 64.846 25.2278 58.8843 25.2589 49.4955C25.29 40.7007 31.5885 29.7663 40.5404 29.6325C49.4129 29.5019 56.2937 40.0507 56.4073 49.0321Z" fill="white" stroke="#050A4E" stroke-width="0.5" stroke-miterlimit="10"/>
<path d="M25.0445 47.7803C26.7572 48.8831 28.7865 49.3883 30.8164 49.2171C34.6 49.0964 38.2876 47.9924 41.515 46.0139C48.5776 41.9088 50.4056 37.2393 52.6214 38.0277C55.1093 38.914 54.3416 45.3655 55.9059 45.5474C57.0332 45.678 58.6412 42.4701 59.1715 39.3742C59.5694 36.7637 59.3406 34.0959 58.5041 31.5912C57.6675 29.0865 56.2469 26.8167 54.3601 24.9692C48.0812 18.9531 39.2489 20.6666 37.0673 21.0896C34.9308 21.5047 27.8293 22.884 23.7864 29.3464C20.9875 33.8308 20.2103 39.6868 22.1571 43.896C22.742 45.4329 23.7414 46.7774 25.0445 47.7803Z" fill="#050A4E" stroke="#050A4E" stroke-width="0.5" stroke-miterlimit="10"/>
<path d="M76.6643 39.9103V10.9307C76.6418 9.68384 76.1305 8.49569 75.2407 7.6219C74.351 6.74812 73.1539 6.25854 71.9069 6.25854C70.6598 6.25854 69.4627 6.74812 68.573 7.6219C67.6832 8.49569 67.1719 9.68384 67.1494 10.9307V40.2135C65.3892 41.3178 64.0421 42.9712 63.3159 44.9181C62.5897 46.865 62.5251 48.9969 63.1322 50.9842C63.7392 52.9714 64.9839 54.7034 66.6741 55.9121C68.3643 57.1208 70.4056 57.739 72.4824 57.6712C74.5592 57.6033 76.5562 56.8531 78.1639 55.5365C79.7715 54.22 80.9003 52.4105 81.3763 50.3879C81.8523 48.3652 81.6487 46.2421 80.797 44.3467C79.9452 42.4514 78.4929 40.8895 76.6643 39.9025V39.9103Z" fill="white" stroke="#050A4E" stroke-width="0.5" stroke-miterlimit="10"/>
<path d="M72.1911 53.9445C75.3806 53.9445 77.9662 51.3589 77.9662 48.1694C77.9662 44.9799 75.3806 42.3943 72.1911 42.3943C69.0016 42.3943 66.416 44.9799 66.416 48.1694C66.416 51.3589 69.0016 53.9445 72.1911 53.9445Z" fill="#F40009"/>
<path d="M73.4241 17.6403C73.4241 16.9129 72.8345 16.3232 72.1071 16.3232C71.3797 16.3232 70.79 16.9129 70.79 17.6403V43.4805C70.79 44.2078 71.3797 44.7975 72.1071 44.7975C72.8345 44.7975 73.4241 44.2078 73.4241 43.4805V17.6403Z" fill="#F40009"/>
<path d="M76.665 37.2207C76.5654 37.1965 74.7881 37.2207 74.7881 37.2207" stroke="#050A4E" stroke-width="0.5" stroke-miterlimit="10" stroke-linecap="round"/>
<path d="M76.665 34.8159C76.5654 34.7917 74.7881 34.8159 74.7881 34.8159" stroke="#050A4E" stroke-width="0.5" stroke-miterlimit="10" stroke-linecap="round"/>
<path d="M76.665 32.4619C76.5654 32.4377 74.7881 32.4619 74.7881 32.4619" stroke="#050A4E" stroke-width="0.5" stroke-miterlimit="10" stroke-linecap="round"/>
<path d="M76.665 29.9839C76.5654 29.9597 74.7881 29.9839 74.7881 29.9839" stroke="#050A4E" stroke-width="0.5" stroke-miterlimit="10" stroke-linecap="round"/>
<path d="M76.665 27.5816C76.5654 27.5573 74.7881 27.5816 74.7881 27.5816" stroke="#050A4E" stroke-width="0.5" stroke-miterlimit="10" stroke-linecap="round"/>
<path d="M76.665 25.2295C76.5654 25.2053 74.7881 25.2295 74.7881 25.2295" stroke="#050A4E" stroke-width="0.5" stroke-miterlimit="10" stroke-linecap="round"/>
<path d="M76.665 22.6328C76.5654 22.6086 74.7881 22.6328 74.7881 22.6328" stroke="#050A4E" stroke-width="0.5" stroke-miterlimit="10" stroke-linecap="round"/>
<path d="M76.665 20.229C76.5654 20.2048 74.7881 20.229 74.7881 20.229" stroke="#050A4E" stroke-width="0.5" stroke-miterlimit="10" stroke-linecap="round"/>
<path d="M76.665 17.8755C76.5654 17.8513 74.7881 17.8755 74.7881 17.8755" stroke="#050A4E" stroke-width="0.5" stroke-miterlimit="10" stroke-linecap="round"/>
<path d="M76.665 15.3972C76.5654 15.373 74.7881 15.3972 74.7881 15.3972" stroke="#050A4E" stroke-width="0.5" stroke-miterlimit="10" stroke-linecap="round"/>
<path d="M76.665 12.9932C76.5654 12.969 74.7881 12.9932 74.7881 12.9932" stroke="#050A4E" stroke-width="0.5" stroke-miterlimit="10" stroke-linecap="round"/>
<path d="M32.2636 4.1875C29.9312 6.02545 29.5272 7.38759 29.6282 8.319C29.9066 10.8956 34.239 11.5455 34.637 14.2278C34.8796 15.873 33.5309 17.4575 32.2636 18.5926" stroke="#050A4E" stroke-width="0.5" stroke-miterlimit="10" stroke-linecap="round"/>
<path d="M41.0086 0.62793C38.6762 2.46588 38.2724 3.82803 38.3657 4.75944C38.644 7.336 42.9771 7.98596 43.3752 10.6682C43.6178 12.3134 42.2683 13.8979 41.0025 15.033" stroke="#050A4E" stroke-width="0.5" stroke-miterlimit="10" stroke-linecap="round"/>
<path d="M49.5771 4.1875C47.2447 6.02545 46.8406 7.38759 46.9417 8.319C47.2201 10.8956 51.554 11.5455 51.9505 14.2278C52.1931 15.873 50.8444 17.4575 49.5771 18.5926" stroke="#050A4E" stroke-width="0.5" stroke-miterlimit="10" stroke-linecap="round"/>
</svg>
