<svg id="Group_104421" data-name="Group 104421" xmlns="http://www.w3.org/2000/svg" width="458.344" height="184.893" viewBox="0 0 458.344 184.893">
  <defs>
    <style>
      .cls-1 {
        fill: #ffe584;
      }

      .cls-1, .cls-2 {
        opacity: 0.13;
        isolation: isolate;
      }

      .cls-2 {
        fill: #ffeb8a;
      }
    </style>
  </defs>
  <path id="Path_184011" data-name="Path 184011" class="cls-1" d="M36.519,636.247c-76.064-6.085-145.317,24.68-247.537-14.625h-4.073a25.19,25.19,0,0,0-21.428,11.953c17.056,8.952,37.281,16.776,62.158,22.882C-83.419,678.775-23.936,651.834,36.519,636.247Z" transform="translate(236.519 -621.622)"/>
  <path id="Path_184012" data-name="Path 184012" class="cls-2" d="M-74.224,634.207A210.176,210.176,0,0,1-3.619,652.173c90.733,40.6,110.884,123.726,115.2,152.3V665.989a190.428,190.428,0,0,0-67.5-34.088C-.535,619.475-37.559,624.754-74.224,634.207Z" transform="translate(346.765 -619.582)"/>
  <path id="Path_184013" data-name="Path 184013" class="cls-1" d="M25.892,636.247c36.623-9.453,73.6-14.733,118.168-2.307a190.129,190.129,0,0,1,67.422,34.088V646.857a25.221,25.221,0,0,0-25.206-25.235H-221.361C-119.258,660.927-50.085,630.162,25.892,636.247Z" transform="translate(246.862 -621.622)"/>
  <path id="Path_184014" data-name="Path 184014" class="cls-2" d="M25.892,636.247c36.623-9.453,73.6-14.733,118.168-2.307a190.129,190.129,0,0,1,67.422,34.088V646.857a25.221,25.221,0,0,0-25.206-25.235H-221.361C-119.258,660.927-50.085,630.162,25.892,636.247Z" transform="translate(246.862 -621.622)"/>
</svg>
