<svg xmlns="http://www.w3.org/2000/svg" width="110" height="110.406" viewBox="0 0 110 110.406">
  <defs>
    <style>
      .cls-1, .cls-11, .cls-4 {
        fill: #fff;
      }

      .cls-1 {
        stroke: #707070;
        opacity: 0;
      }

      .cls-2 {
        fill: #ffd8b7;
      }

      .cls-2, .cls-3, .cls-4, .cls-5, .cls-6, .cls-8, .cls-9 {
        stroke: #222;
      }

      .cls-11, .cls-2, .cls-3, .cls-4, .cls-5, .cls-6, .cls-9 {
        stroke-miterlimit: 10;
      }

      .cls-11, .cls-2, .cls-3, .cls-4, .cls-5, .cls-6, .cls-8, .cls-9 {
        stroke-width: 0.4px;
      }

      .cls-3 {
        fill: #daf0f3;
      }

      .cls-11, .cls-4, .cls-5, .cls-8 {
        stroke-linecap: round;
      }

      .cls-15, .cls-5, .cls-8 {
        fill: none;
      }

      .cls-6 {
        fill: #474747;
      }

      .cls-7 {
        fill: #222;
      }

      .cls-8 {
        stroke-linejoin: round;
      }

      .cls-9 {
        fill: #d1ed7a;
      }

      .cls-10 {
        fill: #2d2d2d;
      }

      .cls-11 {
        stroke: #2d2d2d;
      }

      .cls-12 {
        fill: #f8cdd9;
      }

      .cls-13 {
        fill: #f08798;
      }

      .cls-14 {
        stroke: none;
      }
    </style>
  </defs>
  <g id="Group_182982" data-name="Group 182982" transform="translate(-0.363 0.206)">
    <g id="Rectangle_12507" data-name="Rectangle 12507" class="cls-1" transform="translate(0.363)">
      <rect class="cls-14" width="110" height="110"/>
      <rect class="cls-15" x="0.5" y="0.5" width="109" height="109"/>
    </g>
    <g id="Group_182976" data-name="Group 182976" transform="translate(12.233 0)">
      <g id="Group_182963" data-name="Group 182963">
        <g id="Group_49753" data-name="Group 49753" transform="translate(7.181)">
          <path id="Path_117888" data-name="Path 117888" class="cls-2" d="M500.35,319.5a16.437,16.437,0,0,0-.542,9.988c.879,3.281,1.445,3.19,6.332,4.747-1.669,4.405-8.491,9.2-13.019,9.273-4.081.065-15.486-5.14-17.526-8.822,2.3-.212,9.181-1.271,10.477-4.557,1.566-3.971.132-7.652-.361-9.53Z" transform="translate(-457.633 -286.01)"/>
          <path id="Path_117889" data-name="Path 117889" class="cls-3" d="M501.572,403.526c-.206-8.682.359-17.583.265-26.844-.013-1.291.188-3.525.188-6.695,2.574-.684,9.239-2.345,11.041-4.481,2.062-2.446-1.433-6.9-3.252-9.6a14.96,14.96,0,0,1-1.371-2.507c-1.3-2.862-1.635-4.828-3.84-7.747,0,0-.407-.506-.877-.986-.981-1-4.618-1.728-12.385-3.665-1.057,3.141-4.7,5.293-9.406,5.377-4.635.082-9.266-2.028-10.45-5.127-14.366,2.212-15.276,4.39-16.181,7.481-.327,1.118-1,3.59-2.051,8.112a27.427,27.427,0,0,1-1.812,5.19c-3.252,7.185-5.6,9.659-4.414,11.209.552.72,1.465.646,5.774,1,3.449.282,6.265.608,8.16.848q-.556,14.234-1.111,28.468" transform="translate(-446.714 -294.141)"/>
          <path id="Path_117890" data-name="Path 117890" class="cls-4" d="M469.509,387.319a57.549,57.549,0,0,1,3.566-16.494" transform="translate(-455.332 -305.415)"/>
          <path id="Path_117891" data-name="Path 117891" class="cls-5" d="M534.636,370.217a50.965,50.965,0,0,1,.629,10.815" transform="translate(-479.953 -305.186)"/>
          <g id="Group_49751" data-name="Group 49751" transform="translate(17.948)">
            <path id="Path_117892" data-name="Path 117892" class="cls-2" d="M523.512,304.824c.267.014,3.023.19,3.788,1.837.8,1.732-.65,4.958-4.393,6.5a20.211,20.211,0,0,0,.6-8.342Z" transform="translate(-493.467 -280.464)"/>
            <path id="Path_117893" data-name="Path 117893" class="cls-2" d="M480.551,304.57c-.267.014-3.023.19-3.788,1.837-.805,1.732.651,4.958,4.393,6.5a20.215,20.215,0,0,1-.6-8.342Z" transform="translate(-475.941 -280.367)"/>
            <ellipse id="Ellipse_10381" data-name="Ellipse 10381" class="cls-2" cx="13.286" cy="18.258" rx="13.286" ry="18.258" transform="translate(3.988 8.287)"/>
            <path id="Path_117894" data-name="Path 117894" class="cls-6" d="M487.618,266.413a17.417,17.417,0,0,1,11.672.55c1.243.526,6.847,2.882,8.957,8.808,2.314,6.5-.709,13.777-2.307,13.762-1.427-.013-.807-5.838-4.72-8.1-2.651-1.534-4.087.457-8.852-.938-3.688-1.079-4.647-2.8-6.782-2.217-1.984.544-3.095,2.564-3.94,4.1-2.182,3.968-1.483,7.116-2.206,7.234-1.129.185-5.5-7.046-3.223-13.84C478.481,269.009,485.911,266.9,487.618,266.413Z" transform="translate(-475.572 -265.656)"/>
          </g>
          <g id="Group_49752" data-name="Group 49752" transform="translate(30.029 22.622)">
            <ellipse id="Ellipse_10382" data-name="Ellipse 10382" class="cls-7" cx="0.931" cy="0.931" rx="0.931" ry="0.931" transform="translate(0.556 4.815)"/>
            <ellipse id="Ellipse_10383" data-name="Ellipse 10383" class="cls-7" cx="0.931" cy="0.931" rx="0.931" ry="0.931" transform="translate(8.963 4.815)"/>
            <path id="Path_117895" data-name="Path 117895" class="cls-8" d="M503.828,311.694c-.314,1.458-.314,2.406.275,2.949.272.251.739.182,1.088.334a1.087,1.087,0,0,1,.3,1.637,3.657,3.657,0,0,1-1.681,1.042" transform="translate(-498.256 -305.682)"/>
            <path id="Path_117896" data-name="Path 117896" class="cls-5" d="M497.122,302.028A4.06,4.06,0,0,0,495,303.1" transform="translate(-494.996 -302.028)"/>
            <path id="Path_117897" data-name="Path 117897" class="cls-5" d="M510.093,302.028a2.872,2.872,0,0,1,1.705,1.566" transform="translate(-500.703 -302.028)"/>
            <path id="Path_117898" data-name="Path 117898" class="cls-5" d="M505.553,322.329c-.412,4.74-8.407,5.277-9.725.03" transform="translate(-495.311 -309.703)"/>
          </g>
        </g>
        <g id="Group_49754" data-name="Group 49754" transform="translate(0 63.546)">
          <path id="Path_117899" data-name="Path 117899" class="cls-4" d="M445.833,382.7v19.147a11.652,11.652,0,0,0,11.632,11.64c7.766.514,16.046.813,24.788.8,8.208-.016,16-.309,23.345-.8a11.786,11.786,0,0,0,5.32-1.293,12.307,12.307,0,0,0,5.834-7.036,11.506,11.506,0,0,0,.488-3.311s.09-23.559-2.582-28.612a11.143,11.143,0,0,0-5.634-3.986,11.593,11.593,0,0,0-3.425-.518c-7.056-.529-14.586-.861-22.544-.9-9.1-.043-17.649.3-25.588.9-3.348,0-8.975,3.163-9.606,4.222C447.858,372.952,445.833,376.184,445.833,382.7Z" transform="translate(-439.199 -367.828)"/>
          <path id="Path_117900" data-name="Path 117900" class="cls-2" d="M440.786,385.363c.447-1.518,3.4-1.933,6.023-2.023,2.234-.077,7.3-2.342,5.9-7-1-3.327-6.476-3.083-7.424-2.8-.072.022-.761.259-.815.164a1.112,1.112,0,0,1,.7-1.107,1.781,1.781,0,0,0,1.3-1.425c-.052-1.841-4.064.259-6.96,3.062a13.874,13.874,0,0,0-1.948,2.551,11.092,11.092,0,0,0-1.95,3.847c-.163.822-2.648,12.867,6.19,18.959V387.637S440.61,385.96,440.786,385.363Z" transform="translate(-435.167 -368.831)"/>
          <path id="Path_117901" data-name="Path 117901" class="cls-2" d="M553.775,399.591c8.837-6.091,6.418-18.137,6.255-18.959a11.1,11.1,0,0,0-1.949-3.847,13.9,13.9,0,0,0-1.949-2.551c-2.9-2.8-6.908-4.9-6.96-3.062a1.782,1.782,0,0,0,1.3,1.425,1.11,1.11,0,0,1,.7,1.107c-.053.1-.743-.142-.815-.164-.947-.287-5.755-.252-7.424,2.8-1.281,2.34,0,6.858,5.9,7a11.557,11.557,0,0,1,6.023,2.023s.327.828-1.537,2.057Z" transform="translate(-475.736 -368.831)"/>
        </g>
        <g id="Group_49755" data-name="Group 49755" transform="translate(30.246 53.105)">
          <ellipse id="Ellipse_10384" data-name="Ellipse 10384" class="cls-9" cx="12.09" cy="12.09" rx="12.09" ry="12.09"/>
          <path id="Path_117902" data-name="Path 117902" class="cls-10" d="M508.561,367.667c-.466.059-.939.094-1.409.134a4.393,4.393,0,0,0-.983-1.732c.826.031,1.64.075,2.434.141a.811.811,0,0,0,.125-1.618c-1.479-.121-3.066-.185-4.716-.19-.153,0-.307.009-.461.01a.917.917,0,0,0-.11,0c-1.325.015-2.658.07-3.97.177a.811.811,0,0,0,.068,1.62l.065,0c1.147-.094,2.308-.145,3.465-.165a1.273,1.273,0,0,1,.6.128,3.843,3.843,0,0,1,1.792,1.734c-.406.016-.812.041-1.217.042a36.562,36.562,0,0,1-4.607-.282.811.811,0,0,0-.2,1.61,37.386,37.386,0,0,0,4.67.3h.14c.381,0,.761-.026,1.142-.039a2.78,2.78,0,0,1-1.118,1,3.823,3.823,0,0,1-2.457.1c-.737-.138-1.575-.3-2.046.427-.658,1.007.442,2.434,1.727,3.826a17.659,17.659,0,0,0,4.845,3.67.811.811,0,1,0,.751-1.438,16.114,16.114,0,0,1-4.406-3.333A12.2,12.2,0,0,1,501.4,372.2l.112.021a5.361,5.361,0,0,0,3.454-.23,4.348,4.348,0,0,0,1.974-1.927,1.258,1.258,0,0,1,1.021-.7c.267-.024.535-.052.8-.085a.813.813,0,0,0,.7-.907A.825.825,0,0,0,508.561,367.667Zm-4.453,1.474Z" transform="translate(-491.642 -359.056)"/>
          <line id="Line_148" data-name="Line 148" class="cls-11" x2="12.871" y2="11.339" transform="translate(6.097 5.802)"/>
        </g>
        <g id="Group_49757" data-name="Group 49757" transform="translate(31.715 81.477)">
          <g id="Group_49756" data-name="Group 49756">
            <path id="Path_117903" data-name="Path 117903" class="cls-12" d="M500.077,395.923h-4.1a1.551,1.551,0,0,1-1.551-1.551v-4.1a2.623,2.623,0,0,0-2.048-2.624,2.521,2.521,0,0,0-2.981,2.472v4.252a1.551,1.551,0,0,1-1.551,1.551h-4.1a2.622,2.622,0,0,0-2.624,2.048,2.521,2.521,0,0,0,2.472,2.981h4.252A1.551,1.551,0,0,1,489.4,402.5v4.1a2.623,2.623,0,0,0,2.048,2.624,2.521,2.521,0,0,0,2.981-2.472V402.5a1.551,1.551,0,0,1,1.551-1.551h4.252a2.521,2.521,0,0,0,2.472-2.981A2.623,2.623,0,0,0,500.077,395.923Z" transform="translate(-481.08 -387.606)"/>
            <path id="Path_38797" data-name="Path 38797" class="cls-13" d="M495.018,409.521a2.045,2.045,0,0,1-1.342-.671,14.919,14.919,0,0,1-2.156-2.254c-.245-.272-2.1-2.354-2.2-4.049a3.174,3.174,0,0,1,.095-.95,2.984,2.984,0,0,1,1.144-1.565,3.257,3.257,0,0,1,3.914.378c.176.22.358.571.646.568s.445-.348.645-.593a2.964,2.964,0,0,1,3.51-.465,2.709,2.709,0,0,1,1.057,1.342,2.966,2.966,0,0,1,.17,1.285,7.047,7.047,0,0,1-1.892,3.779,15.743,15.743,0,0,1-2.359,2.575A1.926,1.926,0,0,1,495.018,409.521Z" transform="translate(-484.274 -392.836)"/>
          </g>
        </g>
      </g>
    </g>
  </g>
</svg>
