<svg xmlns="http://www.w3.org/2000/svg" width="110.397" height="110" viewBox="0 0 110.397 110">
  <defs>
    <style>
      .cls-1, .cls-3, .cls-6 {
        fill: #fff;
      }

      .cls-1, .cls-8 {
        stroke: #707070;
      }

      .cls-1 {
        opacity: 0;
      }

      .cls-2 {
        fill: #ffd8b7;
      }

      .cls-10, .cls-11, .cls-12, .cls-2, .cls-3, .cls-4, .cls-5, .cls-6, .cls-7, .cls-9 {
        stroke: #222;
      }

      .cls-10, .cls-11, .cls-12, .cls-2, .cls-3, .cls-4, .cls-5, .cls-7 {
        stroke-miterlimit: 10;
      }

      .cls-10, .cls-11, .cls-12, .cls-2, .cls-3, .cls-4, .cls-5, .cls-6, .cls-7, .cls-8, .cls-9 {
        stroke-width: 0.4px;
      }

      .cls-10, .cls-11, .cls-12, .cls-3, .cls-6, .cls-9 {
        stroke-linecap: round;
      }

      .cls-4 {
        fill: #373738;
      }

      .cls-10, .cls-14, .cls-5, .cls-9 {
        fill: none;
      }

      .cls-6, .cls-9 {
        stroke-linejoin: round;
      }

      .cls-11, .cls-7 {
        fill: #c2d677;
      }

      .cls-8 {
        fill: #222;
      }

      .cls-12 {
        fill: #cbbede;
      }

      .cls-13 {
        stroke: none;
      }
    </style>
  </defs>
  <g id="Group_182983" data-name="Group 182983" transform="translate(0.197)">
    <g id="Rectangle_12508" data-name="Rectangle 12508" class="cls-1">
      <rect class="cls-13" width="110" height="110"/>
      <rect class="cls-14" x="0.5" y="0.5" width="109" height="109"/>
    </g>
    <g id="Group_182961" data-name="Group 182961" transform="translate(0 4)">
      <g id="Group_49765" data-name="Group 49765">
        <path id="Path_117923" data-name="Path 117923" class="cls-2" d="M362.916,344.911q2.031-3.091,1.458-3.689-.823-.861-7.035,3.432" transform="translate(-276.577 -295.406)"/>
        <path id="Path_38810" data-name="Path 38810" class="cls-3" d="M386.7,292.7a4.105,4.105,0,0,0-.91-2.623,2.89,2.89,0,0,0-2.185-1.09c-4.114-.254-8.421-.4-12.91-.411q-7.144,0-13.671.411a2.85,2.85,0,0,0-2.185,1.09,4.622,4.622,0,0,0-.909,2.623c-.229,2.565-.388,5.4-.388,8.482-.01,3.315.147,6.362.388,9.092a4.476,4.476,0,0,0,.081.853,4.187,4.187,0,0,0,.826,1.768,3.068,3.068,0,0,0,1.223.948c.818.325,1.245-.018,1.4.223.5.754-3.279,4.7-2.833,5.469.068.118.388.424,4.015-1.5,3.49-1.856,4.191-2.674,5.942-3.315a16.555,16.555,0,0,1,5.767-.372s8.823.009,13.249-.361a3.193,3.193,0,0,0,2.185-1.09,3.7,3.7,0,0,0,.44-.665,4.453,4.453,0,0,0,.467-1.958c.149-2.463.244-5.075.264-7.82C386.988,298.988,386.885,295.728,386.7,292.7Z" transform="translate(-276.968 -275.062)"/>
        <path id="Path_117924" data-name="Path 117924" class="cls-4" d="M257.256,309.473a24.945,24.945,0,0,1-3.667-11.74c-.529-11.749,6.782-27.16,19.669-30.457a16.832,16.832,0,0,1,9.334-.164c8.33,2.508,11.578,11.639,17.419,29.061,6.38,19.029,4.133,22.647,2.75,24.086-.905.943-2.636,2.2-8.922,2.536C287.873,323.116,266.384,324.27,257.256,309.473Z" transform="translate(-236.364 -266.512)"/>
        <path id="Path_117925" data-name="Path 117925" class="cls-2" d="M247.8,344.757c.927-4.082,2.784-5.668,3.763-6.316a5.588,5.588,0,0,1,.619-.365c1-.515,2.258-.791,7.117-2.3,6.632-2.06,7.906-2.667,9-3.737a7.712,7.712,0,0,0,2.237-4.8l8.714,1.134a9.712,9.712,0,0,0,1.5,5.072c1.821,2.851,9.523,3.619,12.579,7.407,3.843,4.763.735,14.892,2.6,22.059.249.958.712,2.341,1.673,2.574s1.987-.789,2.574-1.415c4.317-4.615,7.424-11.975,10.134-17.941.367-.808.662-1.447.8-1.744l-.039.109c.058-.151.16-.405.3-.714a11.34,11.34,0,0,1,2.031-3.292,9.608,9.608,0,0,1,.933-.869c1.97-1.557,4.981-.045,9.137-.129,2.727-.055,3.393-.745,8.88-1.158,1.113-.084,3.2-.215,3.7.772a1.332,1.332,0,0,1,.032.965c-.4,1.273-2.317,1.67-4.5,2.252-1.823.485-3.583,1.188-5.405,1.673a37.893,37.893,0,0,0-9.008,3.861c-5.461,3.415-3.83,8.783-9.266,18.789-2.184,4.02-6.7,12.324-11.067,11.84-3.73-.414-6.676-7.151-7.85-15.7" transform="translate(-234.131 -290.04)"/>
        <path id="Path_117926" data-name="Path 117926" class="cls-5" d="M307.677,406.423" transform="translate(-257.333 -320.727)"/>
        <path id="Path_117927" data-name="Path 117927" class="cls-2" d="M287.793,282.339c5.7,1.362,10,7.507,10,14.892,0,8.39-5.557,15.185-12.4,15.185-6.858,0-12.415-6.8-12.415-15.185a19.451,19.451,0,0,1,.294-3.328" transform="translate(-243.888 -272.645)"/>
        <path id="Path_117928" data-name="Path 117928" class="cls-4" d="M291.165,267.722a27.683,27.683,0,0,1-7.282,13.669,28.029,28.029,0,0,1-11.638,7.094" transform="translate(-243.603 -266.981)"/>
        <path id="Path_117929" data-name="Path 117929" class="cls-5" d="M284.915,316.345" transform="translate(-248.513 -285.822)"/>
        <path id="Path_117930" data-name="Path 117930" class="cls-2" d="M270.314,301.317c-.293.015-3.322.206-4.163,1.991-.885,1.877.715,5.374,4.827,7.049a21.609,21.609,0,0,1-.665-9.04Z" transform="translate(-241.151 -279.999)"/>
        <path id="Path_117931" data-name="Path 117931" class="cls-6" d="M287.329,396.141c-2.574-5.74-3.566-15.478-3.145-24.431a29.257,29.257,0,0,1,1.129-7.555,11.006,11.006,0,0,0-.8-6.981c.7,1.209,1.006,4.783,1.029,5.578.034,1.166,6.012,1.476,7.128.189,1.574-1.817-2.289-12.667-2.572-15.825-.331-3.7-9.963-7.262-11.584-7.523a21.372,21.372,0,0,0-4.318,4.879c-1.54,2.626-3.07,5.88-4.128,5.33-1.884-.98-3.364-4.005-4.64-6.387-1.916-3.576-3.325-6.2-3.325-6.2-2.275.063-14.336,2.367-17.536,7.921-.661,1.148-9.933,11.3-8.17,12.665,1.18.915,8.7,9.189,11.708,6.728a6.881,6.881,0,0,0,1.6-2.278h0c-.848,9.1,2.412,10.5-.848,33.892" transform="translate(-229.625 -293.909)"/>
        <path id="Path_117932" data-name="Path 117932" class="cls-7" d="M373.454,307.07c0-2.126.077-3.633.161-4.644a1.21,1.21,0,0,1,1.754-.977c.964.486,2.364,1.224,4.148,2.248,1.683.965,3,1.8,3.91,2.4a1.211,1.211,0,0,1,.028,2.009c-.891.621-2.217,1.49-4,2.519-1.752,1.011-3.149,1.711-4.113,2.159a1.212,1.212,0,0,1-1.724-.989C373.534,310.784,373.454,309.258,373.454,307.07Z" transform="translate(-284.682 -279.999)"/>
        <g id="Group_49764" data-name="Group 49764" transform="translate(35.799 17.25)">
          <ellipse id="Ellipse_10390" data-name="Ellipse 10390" class="cls-8" cx="0.968" cy="0.968" rx="0.968" ry="0.968" transform="translate(9.76 3.75)"/>
          <ellipse id="Ellipse_10391" data-name="Ellipse 10391" class="cls-8" cx="0.968" cy="0.968" rx="0.968" ry="0.968" transform="translate(1.032 4.249)"/>
          <path id="Path_117933" data-name="Path 117933" class="cls-9" d="M295.021,303.194c-.2,1.438-.146,2.364.41,2.863.257.231.67.14.991.27a1.12,1.12,0,0,1,.36,1.582,3.241,3.241,0,0,1-1.444,1.1" transform="translate(-288.187 -297.976)"/>
          <path id="Path_117934" data-name="Path 117934" class="cls-9" d="M299.92,294.675a4.215,4.215,0,0,1,2.271.991" transform="translate(-290.127 -294.675)"/>
          <path id="Path_117935" data-name="Path 117935" class="cls-9" d="M285.609,296.323a2.987,2.987,0,0,0-1.678,1.727" transform="translate(-283.931 -295.314)"/>
          <path id="Path_117936" data-name="Path 117936" class="cls-6" d="M296.875,315.508c-1.5,3.4-6.782,3.113-8.418-.081,0,0,.577,5.345,4.594,5.115C297.148,320.308,296.875,315.508,296.875,315.508Z" transform="translate(-285.685 -302.716)"/>
        </g>
        <path id="Path_117937" data-name="Path 117937" class="cls-5" d="M259.659,366.268c.042-1.132-1.433,7.37-4.009,9.478" transform="translate(-237.173 -305.127)"/>
        <path id="Path_117938" data-name="Path 117938" class="cls-2" d="M233.744,373.089c-.289-.293-5.2,6.571-6.428,8.453-8.553,13.147,15.467,14.081,17.917,16.881a10.194,10.194,0,0,1,.863,1.163c.2.33.364.644.51.943.928,1.962,1.009,3.444,2.207,3.73,1.861.426,4.459-2.585,5.323-5.533.026-.088.053-.187.08-.285.483-1.861.723-4.978-.924-6.161-1.411-1.02-2.91.345-5.158.545-.556.048-11.633-.966-14.194-7.287-.169-.418,5.914-7.384,6.088-7.461A37.31,37.31,0,0,1,233.744,373.089Z" transform="translate(-225.484 -307.807)"/>
      </g>
      <g id="Group_49768" data-name="Group 49768" transform="translate(24.577 43.306)">
        <g id="Group_49767" data-name="Group 49767" transform="translate(0 0)">
          <path id="Path_117939" data-name="Path 117939" class="cls-10" d="M269.028,337.214a73.371,73.371,0,0,0-.29,7.758,64.971,64.971,0,0,0,.76,8.376" transform="translate(-266.815 -337.214)"/>
          <ellipse id="Ellipse_10392" data-name="Ellipse 10392" class="cls-11" cx="2.547" cy="2.538" rx="2.547" ry="2.538" transform="translate(0 20.01) rotate(-81.793)"/>
          <g id="Group_49766" data-name="Group 49766" transform="translate(12.847 2.378)">
            <path id="Path_117940" data-name="Path 117940" class="cls-12" d="M303.023,350.853c.312-1.671.6-3.418.853-5.236q.325-2.328.539-4.52" transform="translate(-292.953 -341.096)"/>
            <path id="Path_117941" data-name="Path 117941" class="cls-10" d="M290.477,373.569c-1.748.1-2.783-.283-3.323-.967-2.637-3.331,4.441-16.273,9.39-15.625,5.127.671,8.514,15.995,5.056,18.352-.7.475-1.786.5-3.419-.178" transform="translate(-286.583 -347.241)"/>
            <ellipse id="Ellipse_10393" data-name="Ellipse 10393" class="cls-11" cx="1.549" cy="1.555" rx="1.549" ry="1.555" transform="translate(2.015 24.712) rotate(-0.48)"/>
            <ellipse id="Ellipse_10394" data-name="Ellipse 10394" class="cls-11" cx="1.549" cy="1.555" rx="1.549" ry="1.555" transform="translate(10.471 26.271) rotate(-0.48)"/>
          </g>
        </g>
      </g>
    </g>
  </g>
</svg>
