<svg xmlns="http://www.w3.org/2000/svg" width="110.109" height="110.439" viewBox="0 0 110.109 110.439">
  <defs>
    <style>
      .cls-1, .cls-12, .cls-2 {
        fill: #fff;
      }

      .cls-1 {
        stroke: #707070;
        opacity: 0;
      }

      .cls-11, .cls-12, .cls-2, .cls-3, .cls-4, .cls-5, .cls-6, .cls-7, .cls-8, .cls-9 {
        stroke: #222;
        stroke-width: 0.4px;
      }

      .cls-11, .cls-2, .cls-6, .cls-7, .cls-8 {
        stroke-linecap: round;
      }

      .cls-12, .cls-2, .cls-3, .cls-4, .cls-5, .cls-6, .cls-7, .cls-8, .cls-9 {
        stroke-miterlimit: 10;
      }

      .cls-3, .cls-8 {
        fill: #d1ed7a;
      }

      .cls-4 {
        fill: #ffd8b7;
      }

      .cls-5 {
        fill: #474747;
      }

      .cls-6 {
        fill: #cbbede;
      }

      .cls-11, .cls-14, .cls-7 {
        fill: none;
      }

      .cls-9 {
        fill: #f8cdd9;
      }

      .cls-10 {
        fill: #222;
      }

      .cls-11 {
        stroke-linejoin: round;
      }

      .cls-13 {
        stroke: none;
      }
    </style>
  </defs>
  <g id="Group_182973" data-name="Group 182973" transform="translate(0.109 0.2)">
    <g id="Rectangle_12507" data-name="Rectangle 12507" class="cls-1">
      <rect class="cls-13" width="110" height="110"/>
      <rect class="cls-14" x="0.5" y="0.5" width="109" height="109"/>
    </g>
    <g id="Group_182972" data-name="Group 182972">
      <path id="Path_38810" data-name="Path 38810" class="cls-2" d="M253.722,78.817a4.754,4.754,0,0,0-1.054-3.041,3.353,3.353,0,0,0-2.533-1.264c-4.769-.294-9.764-.467-14.967-.477q-8.283,0-15.85.477a3.308,3.308,0,0,0-2.533,1.264,5.362,5.362,0,0,0-1.054,3.041c-.265,2.974-.449,6.267-.449,9.833-.011,3.843.171,7.376.449,10.541a5.143,5.143,0,0,0,.095.989,4.845,4.845,0,0,0,.958,2.05,3.551,3.551,0,0,0,1.418,1.1c.949.377,1.443-.021,1.627.259.575.874-3.8,5.45-3.284,6.34.079.137.449.492,4.654-1.74,4.046-2.15,4.859-3.1,6.889-3.843a19.213,19.213,0,0,1,6.686-.432s10.228.011,15.359-.418a3.7,3.7,0,0,0,2.533-1.263,4.309,4.309,0,0,0,.51-.771,5.158,5.158,0,0,0,.541-2.27c.174-2.857.284-5.884.306-9.067C254.052,86.106,253.933,82.325,253.722,78.817Z" transform="translate(-145.063 -64.364)"/>
      <g id="Group_27336" data-name="Group 27336" transform="translate(78.141 18.625)">
        <g id="Group_49741" data-name="Group 49741" transform="translate(0 0)">
          <path id="Path_38811" data-name="Path 38811" class="cls-3" d="M245.445,99.534a5.728,5.728,0,0,1-1.554-.207c-1.417-.4-2.4-1.478-4.342-3.63l-.164-.185c-1.689,2.064-3.645,3.994-6.335,3.994h-.07a5.238,5.238,0,0,1-3.44-1.3,5.619,5.619,0,0,1-.853-6.651,5.438,5.438,0,0,1,4.271-2.741,7.507,7.507,0,0,1,5.425,2.754,8.245,8.245,0,0,1,.975,1.049c1.772-2.247,3.666-4.386,6.315-4.234a5.786,5.786,0,0,1,3.849,9.468A5.491,5.491,0,0,1,245.445,99.534Zm-4.913-5.473q.165.185.37.41c1.716,1.9,2.575,2.849,3.486,3.1a3.854,3.854,0,0,0,3.8-.968,3.97,3.97,0,0,0-2.611-6.418c-1.862-.161-3.42,1.794-5.044,3.87ZM233,97.686h.046c2.032,0,3.586-1.648,5.15-3.6l-.079-.106a7.074,7.074,0,0,0-.975-1.088c-1.319-1.221-2.586-2.367-4.064-2.274a3.645,3.645,0,0,0-2.814,1.829,3.782,3.782,0,0,0,.519,4.434,3.393,3.393,0,0,0,2.217.811Z" transform="translate(-227.966 -88.371)"/>
        </g>
      </g>
      <g id="Group_49744" data-name="Group 49744">
        <g id="Group_49743" data-name="Group 49743">
          <path id="Path_117836" data-name="Path 117836" class="cls-4" d="M156,106.01a7.7,7.7,0,0,0,.567,5.3,7.032,7.032,0,0,0,3.873,2.994,36.051,36.051,0,0,0-7.746,11.637c-.591,1.515-1.371,3.85-2.578,3.887s-2.112-2.2-2.956-3.989a53.994,53.994,0,0,0-6.98-11.02c-.214.076-.428.164-.654.252a8.044,8.044,0,0,0,3.245-2.3,9.787,9.787,0,0,0,2.051-6.865,20.2,20.2,0,0,1-6.767-9.457,19.755,19.755,0,0,1-.906-7.485c.214-2.323.315-3.56,1.12-4.759,2.3-3.421,6.929-.846,12.275-4.607,3.672-2.6,4.238-5.024,6.4-4.9,3.936.227,6.213,8.445,6.414,9.228a21.906,21.906,0,0,1-.415,12.042A21.547,21.547,0,0,1,156,106.01Z" transform="translate(-113.833 -64.612)"/>
          <ellipse id="Ellipse_10368" data-name="Ellipse 10368" class="cls-4" cx="13.562" cy="18.273" rx="13.562" ry="18.273" transform="translate(23.103 6.421)"/>
          <path id="Path_117837" data-name="Path 117837" class="cls-5" d="M165.861,96.477a21.545,21.545,0,0,1-6.22,8.554c-2.617,2.179-5.5,3.5-7.789,3.372H151.8a3.671,3.671,0,0,1-.994-.161,7.026,7.026,0,0,1-3.871-2.994,6.78,6.78,0,0,1-.528-4.984,22.965,22.965,0,0,0,6.9-10.355,21.885,21.885,0,0,0,.415-12.038c-.2-.783-2.476-9-6.413-9.228-2.164-.127-2.423,4.447-7.04,8.737-5.2,4.838-9.5,5.578-11.514,5.607h-.014a5.849,5.849,0,0,1-.749-.019.113.113,0,0,0-.038,0l-.156-.014a.687.687,0,0,0-.094-.009.056.056,0,0,0-.028-.005,1.568,1.568,0,0,1-.161-.028v.024c-.631-.005-1.325.222-1.678,1.405-.533,1.791-.042,3.348,2.225,4.8.1.405.222.825.359,1.254a21.051,21.051,0,0,0,6.7,9.657,9.194,9.194,0,0,1-1.985,6.668,8.1,8.1,0,0,1-3.244,2.3.088.088,0,0,0-.052.023,12.6,12.6,0,0,1-2.664.67c-5.536.9-9.784-2.763-10.289-3.206a2.088,2.088,0,0,0-.24-.227c-4.583-4.145-4.961-10.458-5.154-12.726-.82-9.478,5.951-19.941,12.882-26.293,4.169-3.814,9.93-9.1,17.848-8.676,5.79.307,9.822,3.513,12.265,5.456C163.971,71.57,169.977,85.867,165.861,96.477Z" transform="translate(-104.196 -58.551)"/>
          <path id="Path_117838" data-name="Path 117838" class="cls-4" d="M178.758,103.341c3.516-1.66,4.846-4.779,4.006-6.5-.678-1.387-2.687-1.7-3.157-1.765a23.931,23.931,0,0,1-.849,8.264Z" transform="translate(-129.472 -72.263)"/>
          <path id="Path_117839" data-name="Path 117839" class="cls-4" d="M136.607,103.787c-2.268-1.452-2.759-3.009-2.225-4.8.354-1.184,1.047-1.41,1.678-1.405A19.334,19.334,0,0,0,136.607,103.787Z" transform="translate(-112.74 -73.204)"/>
          <path id="Path_117840" data-name="Path 117840" class="cls-2" d="M109.756,198.416c3.273-22.969,4.855-31.416,4.813-33.1-1.782,1.557-4.536,1.084-7.179.63-3.578-.615-6.536-1.123-7.319-3.044-.562-1.377-.507-3.2,5.861-11.306,5.816-7.406,9.152-9.431,10.5-10.355,3.993-2.734,9.531-2.525,9.766-2.617a47.5,47.5,0,0,1,6.98,11.02c.725,1.628,1.587,3.588,2.719,3.568.931-.016,1.353-1.373,3.625-5.491a49.694,49.694,0,0,1,3.485-5.7,29.325,29.325,0,0,1,3.453-3.911c.109.016.272.04.468.072a27.09,27.09,0,0,1,13.992,6.987c1.195,1.156,2.923,4.024,6.378,9.76,3.587,5.954,4.024,7.423,3.52,8.85-1.012,2.861-5.155,3.712-7.18,4.128-2.095.43-5.679.7-7.639-.421.089,1.853,4.122,28.518,4.673,30.935" transform="translate(-99.85 -88.416)"/>
          <path id="Path_117841" data-name="Path 117841" class="cls-6" d="M174.234,148.612c.333-1.7.641-3.48.915-5.332q.351-2.371.588-4.6" transform="translate(-127.774 -88.63)"/>
          <path id="Path_117842" data-name="Path 117842" class="cls-7" d="M161.555,171.4c-1.783.088-2.834-.313-3.381-1.015-2.66-3.42,4.668-16.556,9.709-15.853,5.222.728,8.545,16.383,5,18.757-.716.479-1.825.492-3.485-.21" transform="translate(-121.533 -94.573)"/>
          <path id="Path_117843" data-name="Path 117843" class="cls-7" d="M136.7,139.407a74.7,74.7,0,0,0,.837,7.872,66.281,66.281,0,0,0,1.986,8.343" transform="translate(-113.682 -88.905)"/>
          <ellipse id="Ellipse_10369" data-name="Ellipse 10369" class="cls-8" cx="2.588" cy="2.597" rx="2.588" ry="2.597" transform="translate(23.693 65.826)"/>
          <ellipse id="Ellipse_10370" data-name="Ellipse 10370" class="cls-8" cx="1.579" cy="1.585" rx="1.579" ry="1.585" transform="translate(38.12 75.163)"/>
          <ellipse id="Ellipse_10371" data-name="Ellipse 10371" class="cls-8" cx="1.579" cy="1.585" rx="1.579" ry="1.585" transform="translate(46.728 76.825)"/>
          <line id="Line_147" data-name="Line 147" class="cls-6" y1="12.646" x2="3.869" transform="translate(14.649 65.196)"/>
          <path id="Path_117844" data-name="Path 117844" class="cls-3" d="M200.427,168.679l-1.274.279a.412.412,0,0,1-.5-.3l-.269-1.212a1.321,1.321,0,0,0-2.589.515l.278,1.257a.415.415,0,0,1-.33.487l-1.353.3a1.318,1.318,0,0,0-1.047,1.535h0a1.313,1.313,0,0,0,1.6.946l1.351-.307a.414.414,0,0,1,.5.3l.271,1.222a1.271,1.271,0,0,0,1.255,1,1.326,1.326,0,0,0,1.323-1.565l-.276-1.245a.414.414,0,0,1,.322-.485l1.272-.289a1.276,1.276,0,0,0,.987-1.5h0A1.271,1.271,0,0,0,200.427,168.679Z" transform="translate(-134.938 -99.048)"/>
          <path id="Path_117845" data-name="Path 117845" class="cls-4" d="M175.186,184.877a28.193,28.193,0,0,1-2.557,8.629c-1.872,4.1-3.845,5.53-4.74,6.087-2.057,1.28-4.184,1.555-9.479,1.539a109.983,109.983,0,0,1-11.711-.49c-5.569-.694-13.467-1.953-22.535-3.506,0,0,11.464-1.188,19.189-2.3,9.027-1.3,19.979-3.5,19.979-3.5a15.434,15.434,0,0,0,1.42-3.984c.152-.761.277-1.537.38-2.309a7.393,7.393,0,0,0,3.806.794A18.116,18.116,0,0,0,175.186,184.877Z" transform="translate(-108.977 -105.974)"/>
          <g id="Group_49742" data-name="Group 49742" transform="translate(2.887 76.501)">
            <path id="Path_117846" data-name="Path 117846" class="cls-4" d="M155.913,189.916c-3.576.708-6.812,1.3-9.636,1.8-1.7.3-5.443.942-10.316,1.68-3.877.586-5.994.906-8.922,1.259a103.654,103.654,0,0,1-12.579,1.049c-6.945.051-8.1-.765-8.73-1.469-1.67-1.868-1.321-4.819-.941-8.029a24.579,24.579,0,0,1,1.037-4.778,44.764,44.764,0,0,0,7.35,1.068c2.668.059,3.47-1.462,3.47-1.462-.05.176-.7,4.391-.967,5.46" transform="translate(-104.473 -181.032)"/>
            <path id="Path_117847" data-name="Path 117847" class="cls-9" d="M115.71,189.509q9.426.337,19.381,1.031c8.7.614,16.988,1.621,25.041,2.558" transform="translate(-108.691 -184.214)"/>
          </g>
        </g>
        <ellipse id="Ellipse_10372" data-name="Ellipse 10372" class="cls-10" cx="0.986" cy="0.986" rx="0.986" ry="0.986" transform="translate(40.878 23.646)"/>
        <ellipse id="Ellipse_10373" data-name="Ellipse 10373" class="cls-10" cx="0.986" cy="0.986" rx="0.986" ry="0.986" transform="translate(31.973 23.646)"/>
        <path id="Path_117848" data-name="Path 117848" class="cls-11" d="M160.373,98.44c-.286,1.353-.286,2.234.25,2.738.248.233.673.17.992.31a1.02,1.02,0,0,1,.274,1.52,3.315,3.315,0,0,1-1.532.967" transform="translate(-122.499 -73.127)"/>
        <path id="Path_117849" data-name="Path 117849" class="cls-7" d="M165.792,90.22a4.3,4.3,0,0,1,2.252,1.14" transform="translate(-124.605 -70.44)"/>
        <path id="Path_117850" data-name="Path 117850" class="cls-7" d="M151.4,91.109a3.04,3.04,0,0,0-1.806,1.659" transform="translate(-118.524 -70.774)"/>
        <path id="Path_117851" data-name="Path 117851" class="cls-7" d="M156.057,112.143c1.152,3.588,4.775,3.588,5.927,0" transform="translate(-120.95 -78.67)"/>
        <path id="Path_117852" data-name="Path 117852" class="cls-7" d="M186.469,168.785a19.962,19.962,0,0,1,.868,5.493c.046,2.337-.359,2.831.1,3.673a3.7,3.7,0,0,0,2.293,1.53" transform="translate(-132.367 -99.933)"/>
      </g>
      <path id="Path_117853" data-name="Path 117853" class="cls-12" d="M161.308,234.1" transform="translate(-122.922 -124.452)"/>
    </g>
  </g>
</svg>
