<svg xmlns="http://www.w3.org/2000/svg" width="110" height="110.206" viewBox="0 0 110 110.206">
  <defs>
    <style>
      .cls-1, .cls-3, .cls-6 {
        fill: #fff;
      }

      .cls-1 {
        stroke: #707070;
        opacity: 0;
      }

      .cls-2 {
        fill: #ffd8b7;
      }

      .cls-10, .cls-11, .cls-12, .cls-13, .cls-14, .cls-2, .cls-4, .cls-5, .cls-6, .cls-7, .cls-9 {
        stroke: #222;
        stroke-width: 0.4px;
      }

      .cls-10, .cls-11, .cls-12, .cls-13, .cls-14, .cls-2, .cls-4, .cls-5, .cls-6, .cls-7 {
        stroke-miterlimit: 10;
      }

      .cls-4 {
        fill: #ffd889;
      }

      .cls-11, .cls-16, .cls-5, .cls-9 {
        fill: none;
      }

      .cls-5, .cls-6, .cls-9 {
        stroke-linecap: round;
      }

      .cls-7 {
        fill: #474747;
      }

      .cls-8 {
        fill: #222;
      }

      .cls-9 {
        stroke-linejoin: round;
      }

      .cls-10 {
        fill: #454545;
      }

      .cls-12 {
        fill: #daf0f3;
      }

      .cls-13 {
        fill: #ccc1e0;
      }

      .cls-14 {
        fill: #373738;
      }

      .cls-15 {
        stroke: none;
      }
    </style>
  </defs>
  <g id="Group_182981" data-name="Group 182981" transform="translate(0.363 0.206)">
    <g id="Rectangle_12508" data-name="Rectangle 12508" class="cls-1" transform="translate(-0.363)">
      <rect class="cls-15" width="110" height="110"/>
      <rect class="cls-16" x="0.5" y="0.5" width="109" height="109"/>
    </g>
    <g id="Group_182980" data-name="Group 182980" transform="translate(4)">
      <g id="Group_182962" data-name="Group 182962">
        <g id="Group_49748" data-name="Group 49748" transform="translate(38.74)">
          <g id="Group_49747" data-name="Group 49747">
            <path id="Path_117854" data-name="Path 117854" class="cls-2" d="M475.666,197.225a82.461,82.461,0,0,0,.851-21.464c-.219-2.379-.534-4.641-.914-6.776l-8.808.785.777,27.361" transform="translate(-418.148 -91.574)"/>
            <path id="Path_117855" data-name="Path 117855" class="cls-2" d="M421.437,96.329c.51,1.344.559,8.914-.29,10.445-1.036,1.871-3.974,1.975-5.9,2.629,1.61,4.25,8.8,10.018,13.165,10.087,3.937.063,13.4-5.52,15.365-9.072-4.76-1.122-8.305,0-8.566-3.834a32.537,32.537,0,0,1,.349-9.194Z" transform="translate(-398.601 -64.025)"/>
            <path id="Path_117856" data-name="Path 117856" class="cls-3" d="M404.553,157.6c.274,5.538.325,11.626,0,18.178-.3,5.971-.864,11.522-1.581,16.6l3.442,4.886,5.245-29.1Z" transform="translate(-393.948 -87.256)"/>
            <path id="Path_117857" data-name="Path 117857" class="cls-4" d="M399.56,177.082q.3-12.563,0-25.972-.143-6.026-.411-11.871c-2.483-.66-4.7-1.325-6.61-1.94-2.938-.945-3.994-1.4-4.1-2.155-.13-.96,1.411-1.4,3.165-4a14.479,14.479,0,0,0,1.322-2.418c1.253-2.761,1.578-4.658,3.7-7.473,0,0,.392-.489.846-.951.946-.965,2.992-2.239,10.486-4.107,5.614,9.639,18.2,5.934,19.35.776,13.631,1.3,15.732,5.168,16.6,8.15.315,1.078,3.076,9.9,4,11.935,3.137,6.932,5.4,9.317,4.259,10.813-.532.695-1.413.623-5.57.964-3.328.273-6.044.587-7.871.818q.535,13.732,1.071,27.464" transform="translate(-388.436 -71.557)"/>
            <path id="Path_117858" data-name="Path 117858" class="cls-5" d="M467.465,161.847a55.529,55.529,0,0,0-3.439-15.912" transform="translate(-417.098 -82.835)"/>
            <path id="Path_117859" data-name="Path 117859" class="cls-6" d="M406.8,144.107a75.228,75.228,0,0,0-.788,8.195q-.064,1.584-.063,3.089" transform="translate(-395.076 -82.142)"/>
            <g id="Group_49746" data-name="Group 49746" transform="translate(13.886)">
              <path id="Path_117860" data-name="Path 117860" class="cls-2" d="M414.664,82.149c-.258.014-2.916.183-3.655,1.772-.777,1.671.628,4.783,4.238,6.275a19.475,19.475,0,0,1-.583-8.047Z" transform="translate(-410.802 -58.649)"/>
              <path id="Path_117861" data-name="Path 117861" class="cls-2" d="M456.188,81.9c.258.014,2.916.183,3.655,1.772.777,1.671-.628,4.783-4.238,6.275a19.476,19.476,0,0,0,.583-8.047Z" transform="translate(-427.79 -58.556)"/>
              <ellipse id="Ellipse_10374" data-name="Ellipse 10374" class="cls-2" cx="12.817" cy="17.614" rx="12.817" ry="17.614" transform="translate(3.365 7.994)"/>
              <path id="Path_117862" data-name="Path 117862" class="cls-7" d="M432.338,45.026a16.8,16.8,0,0,0-11.259.531c-1.2.507-6.606,2.78-8.641,8.5-2.232,6.267.684,13.291,2.226,13.276,1.376-.013.779-5.632,4.553-7.816,2.557-1.479,3.943.441,8.539-.9,3.557-1.041,4.483-2.7,6.542-2.139,1.914.524,2.986,2.473,3.8,3.955,2.105,3.829,1.431,6.865,2.129,6.979,1.089.179,5.3-6.8,3.108-13.351C441.152,47.531,433.986,45.494,432.338,45.026Z" transform="translate(-411.115 -44.296)"/>
            </g>
          </g>
          <ellipse id="Ellipse_10375" data-name="Ellipse 10375" class="cls-8" cx="0.929" cy="0.929" rx="0.929" ry="0.929" transform="translate(24.722 25.418)"/>
          <ellipse id="Ellipse_10376" data-name="Ellipse 10376" class="cls-8" cx="0.929" cy="0.929" rx="0.929" ry="0.929" transform="translate(33.114 25.418)"/>
          <path id="Path_117863" data-name="Path 117863" class="cls-9" d="M436.194,87.163c-.313,1.455-.313,2.4.274,2.943.272.251.738.182,1.086.333a1.085,1.085,0,0,1,.3,1.634,3.64,3.64,0,0,1-1.679,1.04" transform="translate(-406.465 -60.55)"/>
          <path id="Path_117864" data-name="Path 117864" class="cls-5" d="M430.421,77.5a4.049,4.049,0,0,0-2.122,1.074" transform="translate(-403.551 -56.885)"/>
          <path id="Path_117865" data-name="Path 117865" class="cls-5" d="M443.4,77.5a2.866,2.866,0,0,1,1.7,1.563" transform="translate(-409.275 -56.885)"/>
          <path id="Path_117866" data-name="Path 117866" class="cls-5" d="M438.838,97.8c-.411,4.731-8.392,5.268-9.707.03" transform="translate(-403.866 -64.582)"/>
        </g>
        <path id="Path_117867" data-name="Path 117867" class="cls-7" d="M344.492,96.738a27.292,27.292,0,0,1-3.532-12.159c-.509-12.168,6.534-28.128,18.948-31.544a15.131,15.131,0,0,1,8.992-.17c8.024,2.6,11.153,12.055,16.78,30.1,6.146,19.708,3.982,23.455,2.65,24.946-.872.976-2.54,2.276-8.6,2.625C373.986,110.867,353.284,112.063,344.492,96.738Z" transform="translate(-331.683 -47.309)"/>
        <path id="Path_117868" data-name="Path 117868" class="cls-2" d="M383.557,128.452c-3.537-2.395-9.146-2.629-12.118-7.557a12.6,12.6,0,0,1-1.3-5.964l-8.684-1.309c-.13,1.3-.426,4.194-2.016,5.843-1.05,1.092-2.278,1.712-8.666,3.813-5.657,1.865-6.078,2.581-6.955,3.737" transform="translate(-332.778 -70.582)"/>
        <path id="Path_117869" data-name="Path 117869" class="cls-2" d="M375.381,69.957c5.488,1.389,9.633,7.659,9.633,15.192,0,8.559-5.353,15.491-11.945,15.491s-11.96-6.932-11.96-15.491a20.967,20.967,0,0,1,.283-3.4" transform="translate(-339.334 -54.026)"/>
        <path id="Path_117870" data-name="Path 117870" class="cls-10" d="M378.64,54.881a29.325,29.325,0,0,1-7.015,14.093,26.673,26.673,0,0,1-11.211,7.315" transform="translate(-339.07 -48.309)"/>
        <path id="Path_117871" data-name="Path 117871" class="cls-11" d="M372.455,104.184" transform="translate(-343.636 -67.004)"/>
        <path id="Path_117872" data-name="Path 117872" class="cls-2" d="M358.635,89.058c-.283.016-3.2.21-4.011,2.031-.852,1.915.688,5.482,4.651,7.191a23.286,23.286,0,0,1-.64-9.222Z" transform="translate(-336.788 -61.268)"/>
        <path id="Path_117873" data-name="Path 117873" class="cls-12" d="M378.743,182.312c-2.486-20.6-3.737-28.179-3.667-29.687,1.563,1.426,7.224.061,9.617.22,5.318.354-5.763-19.4-10.822-21.779-3.914-1.845-7.228-2.974-7.437-3.062-3.357,3.88-12.094,6.119-17.914-1.315-.1.012-9.342,2.252-14.5,7.031-1.09,1.011-4.875,7.7-7.906,13.805-.453.913.982,3.313,3.763,5.172s7.226,1.553,8.113,1.069c-.115,1.655-4.234,25.417-4.772,27.567" transform="translate(-326.034 -75.537)"/>
        <ellipse id="Ellipse_10377" data-name="Ellipse 10377" class="cls-8" cx="0.929" cy="0.929" rx="0.929" ry="0.929" transform="translate(37.652 29.6)"/>
        <ellipse id="Ellipse_10378" data-name="Ellipse 10378" class="cls-8" cx="0.929" cy="0.929" rx="0.929" ry="0.929" transform="translate(29.261 29.6)"/>
        <path id="Path_117874" data-name="Path 117874" class="cls-9" d="M381.078,93.9c-.27,1.367-.27,2.257.236,2.766.234.235.635.171.934.313a1.074,1.074,0,0,1,.259,1.536,3.106,3.106,0,0,1-1.444.977" transform="translate(-346.837 -63.104)"/>
        <path id="Path_117875" data-name="Path 117875" class="cls-5" d="M386.216,85.169a4.048,4.048,0,0,1,2.122,1.075" transform="translate(-348.853 -59.794)"/>
        <path id="Path_117876" data-name="Path 117876" class="cls-5" d="M372.56,86.012a2.865,2.865,0,0,0-1.7,1.563" transform="translate(-343.03 -60.114)"/>
        <path id="Path_117877" data-name="Path 117877" class="cls-5" d="M375.089,105.62a5.666,5.666,0,0,0,8.307.137" transform="translate(-344.634 -67.548)"/>
        <g id="Group_49749" data-name="Group 49749" transform="translate(33.728 67.189)">
          <path id="Path_117878" data-name="Path 117878" class="cls-13" d="M414.06,207.68a10.339,10.339,0,0,0-1.728-5.135c-2.936-4.22-7.866-3.52-10.1-7.076-.864-1.371-1.574-3.77-.189-8.14l-9.371-.189c1.545,4.753.829,7.226-.189,8.614-2.311,3.151-7.071,1.93-10.105,5.585a9.734,9.734,0,0,0-2.011,5.963" transform="translate(-380.362 -165.647)"/>
          <path id="Path_117879" data-name="Path 117879" class="cls-2" d="M398.746,195.753c1.018-1.388,1.734-3.861.189-8.614l9.371.189c-1.385,4.37-.674,6.769.189,8.14a12.069,12.069,0,0,0,2,1.941,11.308,11.308,0,0,1-13.6.084A14.591,14.591,0,0,0,398.746,195.753Z" transform="translate(-386.63 -165.647)"/>
          <path id="Path_117880" data-name="Path 117880" class="cls-2" d="M390.7,171.855c-.228.02-2.588.256-3.169,1.517-.61,1.325.795,3.681,4.084,4.7a13.531,13.531,0,0,1-.824-3.02A13.193,13.193,0,0,1,390.7,171.855Z" transform="translate(-383.029 -159.852)"/>
          <path id="Path_117881" data-name="Path 117881" class="cls-2" d="M421.7,171.855c.229.02,2.589.256,3.169,1.517.61,1.325-.795,3.681-4.084,4.7a13.524,13.524,0,0,0,.824-3.02A13.151,13.151,0,0,0,421.7,171.855Z" transform="translate(-395.69 -159.852)"/>
          <path id="Path_117882" data-name="Path 117882" class="cls-2" d="M411.451,169.064c0,6.521-4.41,11.808-9.851,11.808s-9.85-5.287-9.85-11.808,4.41-11.809,9.85-11.809S411.451,162.541,411.451,169.064Z" transform="translate(-384.68 -154.316)"/>
          <path id="Path_117883" data-name="Path 117883" class="cls-14" d="M391.17,165.777c2.018,1.035,9.836-.412,13.41-4,3.831-3.845,4.408,4.461,6.278,3.338,1.427-.857.951-4.976-.757-7.762a10.723,10.723,0,0,0-9.371-4.828,11.089,11.089,0,0,0-10.128,7.384C389.992,161.912,389.823,165.087,391.17,165.777Z" transform="translate(-384.071 -152.521)"/>
        </g>
        <path id="Path_117884" data-name="Path 117884" class="cls-2" d="M332.893,169.089s-1.286,9.1,1.55,14.306c2.475,4.543,8.581,11.049,21.946,13.5,1.518,2.213,5.221,2.954,7.9,2.973,5.019.033,2.744-4.692,1.2-5.946-1.045-.849-5.61-.351-8.249-1.043-8.837-2.316-13.317-6.772-15.693-12.192-1.074-2.449-.858-10.189-1.069-10.846C340.483,169.844,337.382,171.066,332.893,169.089Z" transform="translate(-328.525 -91.614)"/>
        <path id="Path_117885" data-name="Path 117885" class="cls-9" d="M408.494,180.29c.33.081.5.04.741.1a.816.816,0,0,1,.4,1.111,2.365,2.365,0,0,1-.943.928" transform="translate(-357.301 -95.861)"/>
        <ellipse id="Ellipse_10379" data-name="Ellipse 10379" class="cls-8" cx="0.596" cy="0.596" rx="0.596" ry="0.596" transform="translate(53.773 81.7)"/>
        <ellipse id="Ellipse_10380" data-name="Ellipse 10380" class="cls-8" cx="0.596" cy="0.596" rx="0.596" ry="0.596" transform="translate(48.393 81.7)"/>
        <path id="Path_117886" data-name="Path 117886" class="cls-5" d="M405.217,185.831a3.631,3.631,0,0,0,5.325.088" transform="translate(-356.058 -97.962)"/>
        <path id="Path_117887" data-name="Path 117887" class="cls-6" d="M345.3,165.365s2.138-6.378,2.138-8.087" transform="translate(-333.338 -87.136)"/>
      </g>
    </g>
  </g>
</svg>
