<svg width="340" height="240" viewBox="0 0 340 240" fill="none" xmlns="http://www.w3.org/2000/svg">
<path d="M118.197 295.604L58.3109 294.852C48.1479 244.298 53.6379 191.848 74.0486 144.495C88.7679 194.866 103.484 245.235 118.197 295.604Z" fill="#1778F2"/>
<path d="M72.6297 97.6787C71.5305 103.555 70.0803 109.877 68.1579 116.533C66.9352 120.772 65.6227 124.782 64.2838 128.566C66.1759 127.52 68.2872 126.931 70.4479 126.848C72.6086 126.765 74.7587 127.19 76.7255 128.089C78.6923 128.987 80.421 130.334 81.773 132.021C83.125 133.709 84.0626 135.69 84.5105 137.805C85.629 133.483 86.9317 128.946 88.4668 124.232C89.9703 119.598 91.5515 115.225 93.1543 111.124L72.6297 97.6787Z" fill="white"/>
<path d="M51.1463 300.003C41.7183 274.671 37.6816 247.651 39.2945 220.67C40.0769 208.335 42.0639 196.106 45.2267 184.158L64.1118 190.717C62.4533 196.652 60.986 202.934 59.7996 209.554C54.6339 239.277 55.7889 269.754 63.1894 299" fill="white"/>
<path d="M51.1464 300.003C41.7183 274.671 37.6816 247.651 39.2945 220.67C40.0769 208.335 42.0639 196.106 45.2267 184.158L64.1118 190.717C62.4533 196.652 60.986 202.934 59.7996 209.554C54.6339 239.277 55.7889 269.754 63.1894 299" stroke="#050A4E" stroke-width="0.4" stroke-miterlimit="10"/>
<path d="M71.0869 103.44C69.9802 112.083 67.6868 120.532 64.2714 128.548" stroke="#050A4E" stroke-width="0.4" stroke-miterlimit="10"/>
<path d="M89.8472 112.988C90.3011 116.133 90.1182 119.337 89.3096 122.409C88.6874 124.697 87.9709 125.847 86.8184 129.3C86.0506 131.596 85.4166 133.935 84.92 136.304" stroke="#050A4E" stroke-width="0.4" stroke-miterlimit="10"/>
<path d="M118.197 295.603C104.856 252.317 102.326 221.422 102.742 200.539C102.559 184.912 99.7766 169.425 94.5103 154.711C89.7042 141.208 84.4258 130.031 74.0002 127.216C70.7845 126.282 67.3682 126.292 64.1581 127.245C58.8315 128.925 55.88 133.056 43.82 160.769C40.7249 167.898 38.022 175.191 35.7235 182.615C32.053 194.435 32.2007 197.568 33.4646 200.316C36.0529 205.96 42.3988 208.19 46.8344 209.732C52.0279 211.539 59.4756 214.127 64.8095 210.774C70.5187 207.185 69.1216 199.735 73.7679 179.555C75.2206 173.197 76.7265 168.035 77.7821 164.613" fill="#1778F2"/>
<path d="M118.197 295.603C104.856 252.317 102.326 221.422 102.742 200.539C102.559 184.912 99.7766 169.425 94.5103 154.711C89.7042 141.208 84.4258 130.031 74.0002 127.216C70.7845 126.282 67.3682 126.292 64.1581 127.245C58.8315 128.925 55.88 133.056 43.82 160.769C40.7249 167.898 38.022 175.191 35.7235 182.615C32.053 194.435 32.2007 197.568 33.4646 200.316C36.0529 205.96 42.3988 208.19 46.8344 209.732C52.0279 211.539 59.4756 214.127 64.8095 210.774C70.5187 207.185 69.1216 199.735 73.7679 179.555C75.2206 173.197 76.7265 168.035 77.7821 164.613" stroke="#050A4E" stroke-width="0.4" stroke-miterlimit="10" stroke-linecap="round"/>
<path d="M286.45 1.19169C292.766 0.79461 303.328 1.27637 310.732 8.69734C313.922 12.0281 316.222 16.1081 317.422 20.5613C326.963 52.5792 325.709 140.895 325.537 162.988C325.537 163.799 325.385 182.869 324.099 208.33C323.373 222.438 322.676 231.45 321.143 242.067C318.613 259.562 317.233 268.499 311.737 277.361C306.424 285.728 298.876 292.443 289.946 296.745" fill="#050A4E"/>
<path d="M286.45 1.19169C292.766 0.79461 303.328 1.27637 310.732 8.69734C313.922 12.0281 316.222 16.1081 317.422 20.5613C326.963 52.5792 325.709 140.895 325.537 162.988C325.537 163.799 325.385 182.869 324.099 208.33C323.373 222.438 322.676 231.45 321.143 242.067C318.613 259.562 317.233 268.499 311.737 277.361C306.424 285.728 298.876 292.443 289.946 296.745" stroke="#050A4E" stroke-width="0.4" stroke-miterlimit="10"/>
<path d="M286.33 1.19434C268.372 0.19439 251.891 3.2645 238.511 5.58158C225.749 7.79214 207.975 10.6782 195.012 17.6876C190.831 19.7547 187.349 23.0023 184.995 27.0286C182.977 30.8362 182.104 35.1467 182.482 39.4396C184.119 56.3614 183.17 129.227 183.196 146.103C183.242 176.082 175.262 246.537 177.196 265.817C177.574 270.235 178.933 274.514 181.172 278.342C182.965 281.014 185.056 283.475 187.404 285.675C194.528 292.336 202.878 295.435 234.201 299.096C251.924 301.169 265.551 302.077 280.403 299.43C286.69 298.667 292.595 296.004 297.329 291.796C301.377 287.877 304.144 282.826 305.268 277.305C317.528 192.411 318.972 106.305 309.566 21.0482C308.774 15.1371 305.74 9.75658 301.092 6.01982C296.797 2.90635 291.634 1.21859 286.33 1.19434Z" fill="white" stroke="#050A4E" stroke-width="0.4" stroke-miterlimit="10"/>
<path d="M308.008 15.2031C287.733 16.6849 265.957 19.0407 242.921 22.6047C221.646 25.8975 201.703 29.8441 183.224 34.1345" fill="white"/>
<path d="M308.008 15.2031C287.733 16.6849 265.957 19.0407 242.921 22.6047C221.646 25.8975 201.703 29.8441 183.224 34.1345" stroke="#050A4E" stroke-width="0.4" stroke-miterlimit="10"/>
<path d="M306.553 15.4253C304.736 11.3186 301.762 7.83029 297.995 5.38703C295.957 4.16604 293.739 3.27603 291.423 2.7503C288.581 2.1931 285.687 1.94955 282.792 2.02397C280.78 1.97796 278.388 1.92955 274.904 2.04576C273.32 2.09903 267.989 2.30726 260.655 3.237C257.822 3.59534 255.827 3.91973 251.844 4.56619C248.236 5.15454 245.413 5.66787 239.76 6.6993C235.496 7.47892 233.346 7.89534 231.365 8.29242C229.973 8.57328 228.332 8.87598 226.179 9.37475C221.337 10.5006 218.916 11.0696 217.293 11.4933C215.335 12.0163 212.996 12.6433 209.972 13.6481C207.067 14.5634 204.218 15.645 201.437 16.8877C198.37 18.1374 195.465 19.7536 192.786 21.7011C190.838 23.1008 189.112 24.7872 187.668 26.7032C186.655 28.1093 185.809 29.6278 185.145 31.2285C184.557 32.659 184.115 34.1451 183.825 35.6641C202.774 30.8992 223.303 26.5192 245.285 22.9092C266.93 19.3501 287.421 16.9652 306.553 15.4253Z" fill="#050A4E" stroke="white" stroke-width="0.4" stroke-miterlimit="10"/>
<path d="M255.763 11.8157C255.825 12.1405 255.822 12.4742 255.754 12.7978C255.686 13.1213 255.555 13.4284 255.369 13.7013C255.182 13.9743 254.944 14.2079 254.667 14.3887C254.391 14.5695 254.081 14.6939 253.756 14.755H253.703L231.912 18.353C231.254 18.4614 230.58 18.3039 230.038 17.9152C229.495 17.5266 229.13 16.9385 229.021 16.2804L229.009 16.1908L228.973 15.9051C228.893 15.2561 229.07 14.6016 229.464 14.0802C229.859 13.5587 230.44 13.2112 231.086 13.111L252.914 9.79882C253.557 9.69962 254.215 9.85459 254.746 10.2309C255.278 10.6073 255.643 11.1755 255.763 11.8157Z" fill="white"/>
<path d="M104.429 169.296C104.449 169.14 104.456 168.983 104.451 168.826C104.451 167.996 104.408 167.151 104.333 166.284C104.237 165.144 104.065 164.011 103.817 162.894C102.701 157.737 100.27 154.084 97.7762 154.299C94.7666 154.563 92.8346 160.376 93.4351 167.262C94.0355 174.148 96.9892 179.511 99.9867 179.235C101.422 179.109 102.597 177.731 103.376 175.55" fill="#F40009"/>
<path d="M104.429 169.296C104.449 169.14 104.456 168.983 104.451 168.826C104.451 167.996 104.408 167.151 104.333 166.284C104.237 165.144 104.065 164.011 103.817 162.894C102.701 157.737 100.27 154.084 97.7762 154.299C94.7666 154.563 92.8346 160.376 93.4351 167.262C94.0355 174.148 96.9892 179.511 99.9867 179.235C101.422 179.109 102.597 177.731 103.376 175.55" stroke="#050A4E" stroke-width="0.4" stroke-miterlimit="10" stroke-linecap="round"/>
<path d="M107.151 156.914C112.314 157.004 117.416 158.056 122.193 160.016C125.611 163.425 128.477 167.346 130.687 171.637C133.428 176.991 133.108 179.029 132.968 179.647C131.849 185.094 124.252 187.271 123.363 187.513C117.838 185.333 112.604 182.479 107.78 179.015C105.301 177.228 98.18 172.09 99.117 170.025C99.6715 168.814 102.868 169.056 105.541 169.461C105.056 166.473 104.79 163.977 104.637 162.083C104.448 160.938 104.632 159.763 105.161 158.73C105.638 157.948 106.328 157.318 107.151 156.914Z" fill="white"/>
<path d="M204.209 135.084C210.856 137.174 216.685 141.286 220.884 146.846C223.088 150.072 224.883 153.558 226.228 157.226C227.708 160.93 228.843 164.763 229.617 168.676C232.331 170.205 235.496 170.733 238.559 170.167C244.283 168.94 248.825 163.308 249.556 156.124L249.757 131.358C246.929 127.846 243.285 125.079 239.141 123.3C234.998 121.521 230.482 120.783 225.988 121.152C221.494 121.521 217.159 122.984 213.361 125.414C209.562 127.845 206.417 131.168 204.199 135.094L204.209 135.084Z" fill="white"/>
<path d="M225.537 104.915C225.227 122.381 213.325 135.282 207.7 138.223C207.611 138.272 207.385 138.386 207.1 138.526C204.395 139.872 195.151 144.172 191.805 140.993C190.52 138.974 189.129 137.024 187.638 135.151C186.727 134.245 185.932 133.228 185.275 132.124C184.85 131.402 184.483 130.648 184.178 129.868C182.798 126.355 183.813 125.246 182.483 123.435C181.711 122.465 180.723 121.689 179.597 121.168C178.953 120.875 178.607 120.839 177.501 120.384C176.617 120.12 175.783 119.711 175.033 119.173C173.503 117.062 182.341 110.382 180.721 105.13C180.382 104.034 179.893 103.985 179.411 102.336C178.875 100.16 178.937 97.8799 179.59 95.7361C180.192 92.5135 181.022 89.3378 182.074 86.2329C185.297 78.9064 198.483 69.0956 210.192 72.7395C225.644 77.5529 225.6 101.813 225.537 104.915Z" fill="white" stroke="#050A4E" stroke-width="0.4" stroke-miterlimit="10" stroke-linecap="round"/>
<path d="M183.295 101.182C184.141 100.382 185.225 99.8806 186.382 99.7529C187.855 99.795 189.277 100.305 190.44 101.209C191.604 102.114 192.449 103.365 192.854 104.782" stroke="#050A4E" stroke-width="0.4" stroke-linecap="round" stroke-linejoin="round"/>
<path d="M186.13 106.889C185.478 106.889 184.949 106.36 184.949 105.708C184.949 105.055 185.478 104.526 186.13 104.526C186.783 104.526 187.312 105.055 187.312 105.708C187.312 106.36 186.783 106.889 186.13 106.889Z" fill="#050A4E" stroke="#050A4E" stroke-width="0.4" stroke-miterlimit="10" stroke-linecap="round"/>
<path d="M208.765 273.969C211.206 261.597 213.191 249.787 214.818 238.557C216.035 233.228 215.467 227.646 213.201 222.671C211.022 218.57 208.499 217.606 206.497 214.924C203.405 210.808 201.858 203.04 208.676 186.939" stroke="#050A4E" stroke-width="0.4" stroke-miterlimit="10" stroke-linecap="round"/>
<path d="M133.87 179.278C133.279 177.584 127.422 161.095 119.883 158.863C119.2 158.662 117.377 158.243 115.706 157.919C110.333 156.868 107.634 156.342 106.278 157.275C104.06 158.81 104.184 163.705 106.063 169.095" stroke="#050A4E" stroke-width="0.4" stroke-miterlimit="10" stroke-linecap="round"/>
<path d="M102.003 169.054C101.541 168.237 101.318 167.308 101.359 166.371C101.388 165.615 101.592 164.876 101.954 164.211C102.316 163.547 102.827 162.975 103.446 162.541C103.964 162.179 104.554 161.931 105.175 161.814C105.871 161.692 106.586 161.733 107.263 161.934C107.94 162.135 108.562 162.49 109.078 162.972C109.595 163.455 109.992 164.05 110.239 164.712C110.486 165.374 110.576 166.085 110.501 166.787C110.47 167.495 110.288 168.187 109.966 168.817C109.644 169.448 109.19 170.001 108.635 170.441" fill="#F40009"/>
<path d="M102.003 169.054C101.541 168.237 101.318 167.308 101.359 166.371C101.388 165.615 101.592 164.876 101.954 164.211C102.316 163.547 102.827 162.975 103.446 162.541C103.964 162.179 104.554 161.931 105.175 161.814C105.871 161.692 106.586 161.733 107.263 161.934C107.94 162.135 108.562 162.49 109.078 162.972C109.595 163.455 109.992 164.05 110.239 164.712C110.486 165.374 110.576 166.085 110.501 166.787C110.47 167.495 110.288 168.187 109.966 168.817C109.644 169.448 109.19 170.001 108.635 170.441" stroke="#050A4E" stroke-width="0.4" stroke-miterlimit="10" stroke-linecap="round"/>
<path d="M112.094 172.318C109.839 170.671 107.2 169.63 104.428 169.293C103.012 169.131 99.7168 168.756 99.1163 170.02C98.2738 171.812 103.262 175.855 105.717 177.826C107.933 179.607 110.295 181.197 112.779 182.579C119.074 186.072 120.898 185.554 123.738 187.663C126.062 189.382 128.822 192.699 130.033 199.726" stroke="#050A4E" stroke-width="0.4" stroke-miterlimit="10" stroke-linecap="round"/>
<path d="M214.614 110.731C202.785 149.73 195.323 168.889 192.227 168.206C190.19 167.759 190.047 158.693 191.797 141.009" stroke="#050A4E" stroke-width="0.4" stroke-miterlimit="10" stroke-linecap="round"/>
<path d="M214.329 113.867C212.723 113.867 211.421 112.566 211.421 110.96C211.421 109.354 212.723 108.052 214.329 108.052C215.935 108.052 217.237 109.354 217.237 110.96C217.237 112.566 215.935 113.867 214.329 113.867Z" fill="#F40009" stroke="#F40009" stroke-width="0.4" stroke-miterlimit="10" stroke-linecap="round"/>
<path d="M184.661 130.225C185.818 130.444 187.014 130.317 188.099 129.859C189.577 129.196 190.734 127.979 191.322 126.47" stroke="#050A4E" stroke-width="0.4" stroke-miterlimit="10" stroke-linecap="round"/>
<path d="M225.296 276.579C229.837 259.687 231.554 242.16 230.38 224.707C230.184 221.954 229.724 216.756 227.08 200.655C223.642 179.695 220.136 162.683 217.577 151.076L222.255 148.783C223.615 151.251 224.64 153.447 225.402 155.219C227.741 160.655 228.027 163.151 230.63 166.393C232.15 168.293 233.666 170.184 235.622 170.146C239.012 170.078 241.336 164.281 242.324 161.824C245 154.793 245.54 147.128 243.876 139.791L253.287 144.52C256.098 167.436 253.319 180.581 250.016 188.464C248.238 192.373 247.128 196.553 246.733 200.829C246.257 208.243 247.782 215.648 251.15 222.269C255.089 230.811 258.798 246.827 257.002 279.768" fill="#1778F2"/>
<path d="M225.296 276.579C229.837 259.687 231.554 242.16 230.38 224.707C230.184 221.954 229.724 216.756 227.08 200.655C223.642 179.695 220.136 162.683 217.577 151.076L222.255 148.783C223.615 151.251 224.64 153.447 225.402 155.219C227.741 160.655 228.027 163.151 230.63 166.393C232.15 168.293 233.666 170.184 235.622 170.146C239.012 170.078 241.336 164.281 242.324 161.824C245 154.793 245.54 147.128 243.876 139.791L253.287 144.52C256.098 167.436 253.319 180.581 250.016 188.464C248.238 192.373 247.128 196.553 246.733 200.829C246.257 208.243 247.782 215.648 251.15 222.269C255.089 230.811 258.798 246.827 257.002 279.768" stroke="#1778F2" stroke-width="0.4" stroke-miterlimit="10" stroke-linecap="round"/>
<path d="M182.707 73.5926C179.519 79.4301 181.112 89.0883 185.993 94.352C192.179 101.013 202.954 99.8868 205.578 107.407C206.479 109.986 206.259 113.111 207.082 113.184C207.987 113.261 208.065 109.494 210.849 106.647C213.362 104.085 218.168 102.185 220.839 104.151C223.418 106.039 222.933 110.727 221.958 113.441C220.67 117.017 218.193 118.041 217.047 119.782C212.205 127.133 227.134 155.293 252.881 162.879C266.309 166.83 285.647 166.061 289.199 157.741C292.637 149.684 277.882 142.432 261.801 114.286C249.048 91.9622 251.424 86.7663 242.262 77.188C226.502 60.7215 190.078 60.1017 182.707 73.5926Z" fill="#050A4E" stroke="#050A4E" stroke-width="0.4" stroke-miterlimit="10" stroke-linecap="round"/>
<path d="M310.049 275.417C313.496 254.244 314.059 232.702 311.725 211.378C308.437 181.767 301.41 171.259 297.541 166.424C294.954 163.358 292.161 160.471 289.181 157.785" stroke="#050A4E" stroke-width="0.4" stroke-miterlimit="10" stroke-linecap="round"/>
<path d="M282.731 196.323C290.929 222.102 292.429 253.263 288.019 279.952" stroke="#050A4E" stroke-width="0.4" stroke-miterlimit="10" stroke-linecap="round"/>
<path d="M209.519 137.264C214.698 139.922 219.088 143.893 222.252 148.779C223.673 151.011 224.811 153.41 225.642 155.921" stroke="#050A4E" stroke-width="0.4" stroke-miterlimit="10" stroke-linecap="round"/>
<path d="M221.769 148.847C213.493 152.464 202.186 160.51 197.002 167.906C191.433 176.138 191.479 182.363 185.397 195.946C182.335 202.798 178.68 209.37 174.475 215.587" stroke="#050A4E" stroke-width="0.4" stroke-miterlimit="10" stroke-linecap="round"/>
<path d="M208.117 216.495C205.099 223.028 201.088 229.056 196.226 234.363C189.798 241.368 183.527 248.198 175.581 248.721C168.039 249.217 164.993 243.636 146.492 226.48C127.067 208.454 117.053 202.197 118.796 194.539C119.588 191.053 122.878 187.033 125.433 183.886C128.546 180.075 130.377 177.833 133.021 177.286C138.488 176.162 144.144 182.985 146.822 186.162C153.555 194.113 163.286 204.776 178.276 219.31" fill="white"/>
<path d="M208.117 216.495C205.099 223.028 201.088 229.056 196.226 234.363C189.798 241.368 183.527 248.198 175.581 248.721C168.039 249.217 164.993 243.636 146.492 226.48C127.067 208.454 117.053 202.197 118.796 194.539C119.588 191.053 122.878 187.033 125.433 183.886C128.546 180.075 130.377 177.833 133.021 177.286C138.488 176.162 144.144 182.985 146.822 186.162C153.555 194.113 163.286 204.776 178.276 219.31" stroke="#050A4E" stroke-width="0.4" stroke-miterlimit="10" stroke-linecap="round"/>
<path d="M192.932 168.052C190.843 235.792 174.19 284.536 156.796 285.85C139.455 287.16 115.807 241.748 103.452 175.875" stroke="#050A4E" stroke-width="0.4" stroke-miterlimit="10" stroke-linecap="round"/>
<path d="M255.058 200.974L258.302 200.831C258.653 200.793 258.975 200.62 259.201 200.349C259.427 200.078 259.539 199.73 259.513 199.378L259.404 195.676C259.368 195.137 259.507 194.6 259.799 194.146C260.092 193.692 260.523 193.344 261.029 193.153C261.34 193.07 261.667 193.061 261.983 193.126C262.298 193.192 262.594 193.33 262.847 193.531C263.1 193.731 263.302 193.988 263.438 194.281C263.574 194.573 263.639 194.894 263.629 195.216L263.745 199.158C263.744 199.338 263.779 199.517 263.848 199.683C263.916 199.85 264.017 200.002 264.144 200.13C264.271 200.258 264.422 200.359 264.588 200.429C264.754 200.499 264.933 200.535 265.113 200.535H265.137L268.813 200.373C269.384 200.34 269.948 200.511 270.405 200.854C270.862 201.198 271.183 201.692 271.311 202.249C271.392 202.591 271.396 202.945 271.324 203.288C271.251 203.631 271.104 203.953 270.892 204.233C270.68 204.512 270.41 204.741 270.099 204.903C269.789 205.066 269.446 205.157 269.096 205.172L265.28 205.232C265.1 205.24 264.924 205.283 264.76 205.359C264.597 205.435 264.45 205.542 264.328 205.675C264.207 205.807 264.113 205.963 264.051 206.132C263.99 206.301 263.962 206.481 263.97 206.661V206.688L264.082 210.487C264.133 211.019 263.992 211.552 263.683 211.988C263.375 212.425 262.92 212.737 262.401 212.866C262.1 212.899 261.796 212.872 261.505 212.787C261.215 212.702 260.944 212.561 260.708 212.371C260.472 212.181 260.276 211.947 260.131 211.681C259.986 211.416 259.894 211.124 259.861 210.823C259.851 210.736 259.846 210.649 259.847 210.561L259.733 206.724C259.739 206.368 259.606 206.025 259.361 205.766C259.117 205.508 258.781 205.355 258.426 205.341L255.06 205.395C254.778 205.376 254.503 205.303 254.25 205.178C253.997 205.054 253.771 204.881 253.585 204.668C253.398 204.456 253.256 204.21 253.165 203.943C253.074 203.675 253.037 203.393 253.056 203.111C253.06 203.019 253.072 202.927 253.089 202.835C253.146 202.343 253.374 201.887 253.734 201.546C254.095 201.206 254.563 201.003 255.058 200.974Z" fill="#F40009"/>
<path d="M174.72 215.581L180.655 205.869L179.938 219.195C179.839 219.251 179.347 219.68 179.347 219.68C179.347 219.68 179.028 220.061 177.949 218.982C177.409 218.442 175.799 216.66 174.72 215.581Z" fill="white"/>
<path d="M123.304 81.6477C122.636 86.2165 119.767 88.0809 119.803 94.5406C119.844 101.722 123.435 106.126 121.202 108.47C119.507 110.266 116.939 108.17 113.212 110.283C111.982 110.981 112.745 110.927 107.687 116.515C105.802 118.586 103.682 120.431 101.37 122.012C101.128 122.159 100.93 122.288 100.726 122.404C99.1729 123.293 97.5251 124.007 95.8136 124.532C93.3004 125.227 87.015 122.932 82.0443 116.961C79.2139 113.557 78.0082 110.404 75.1294 100.102C71.6768 87.754 69.9504 81.5679 70.1029 79.7641C71.0714 68.52 82.2477 52.4287 98.6732 53.6006C114.774 54.7531 124.769 71.6433 123.304 81.6477Z" fill="white" stroke="#050A4E" stroke-width="0.4" stroke-miterlimit="10"/>
<path d="M104.419 74.2347C115.607 70.5811 125.842 79.4427 129.752 74.9005C131.878 72.4333 130.35 67.879 129.299 64.7314C127.124 59.2133 123.179 54.5726 118.084 51.5359C116.569 50.5118 115.312 49.8871 113.767 49.0276C110.146 47.0105 106.302 45.4235 102.312 44.299C92.9536 42.4791 83.2524 44.1134 75.0063 48.8992C73.3696 49.904 60.3412 58.2161 58.029 73.9248C55.753 89.3454 64.7162 105.764 70.377 105.282C72.6118 105.093 75.4616 102.156 78.1563 90.2702C77.6382 89.7327 77.1401 89.1767 76.6623 88.602C76.057 87.8757 75.51 87.1251 75.3066 86.8176C74.7512 85.783 74.4506 84.6309 74.43 83.4569C74.4093 82.2828 74.6691 81.1208 75.1878 80.0673C75.7608 78.7038 76.75 77.556 78.0139 76.7878C79.2778 76.0195 80.7522 75.67 82.2265 75.7891C86.328 76.9997 84.8535 85.8128 88.4054 86.9629C92.4003 88.2461 95.1021 77.2781 104.419 74.2347Z" fill="#050A4E" stroke="#050A4E" stroke-width="0.4" stroke-miterlimit="10"/>
<path d="M106.274 90.623C106.903 91.5878 107.796 92.3516 108.846 92.8237C109.897 93.2958 111.061 93.4564 112.201 93.2864" stroke="#050A4E" stroke-width="0.4" stroke-linecap="round" stroke-linejoin="round"/>
<path d="M105.483 85.265C107.062 84.166 109.014 83.7388 110.908 84.077C112.802 84.4151 114.485 85.4912 115.587 87.0689L115.64 87.1488C116.046 87.6887 116.387 88.2747 116.657 88.8945" stroke="#050A4E" stroke-width="0.4" stroke-linecap="round" stroke-linejoin="round"/>
<path d="M107.684 116.511L102.248 112.596" stroke="#050A4E" stroke-width="0.4" stroke-miterlimit="10" stroke-linecap="round"/>
<path d="M293.71 38.8034C293.684 38.5432 293.561 38.3021 293.366 38.1278C293.171 37.9534 292.918 37.8585 292.656 37.8616C291.552 37.9479 290.442 37.8221 289.385 37.4911C288.751 37.235 288.154 36.8964 287.608 36.484L286.587 35.7406C286.383 35.5899 286.13 35.5228 285.879 35.553C285.627 35.5831 285.397 35.7083 285.236 35.9028C284.556 36.6917 283.767 37.3791 282.892 37.9439C282.838 37.9754 282.785 38.0069 282.729 38.0335C281.834 38.4714 280.864 38.7352 279.87 38.8107C279.632 38.8513 279.417 38.9746 279.261 39.159C279.106 39.3433 279.02 39.5767 279.02 39.8179C278.759 42.9244 279.193 46.0501 280.291 48.9676C281.669 51.4645 283.819 53.4474 286.42 54.6187C286.538 54.677 286.668 54.7073 286.8 54.7073C286.931 54.7073 287.061 54.677 287.18 54.6187C289.783 53.3685 291.874 51.2577 293.1 48.6432C294.07 45.4561 294.278 42.0859 293.71 38.8034Z" fill="#F40009"/>
<path d="M294.914 37.7471C294.885 37.4432 294.743 37.1614 294.515 36.958C294.287 36.7546 293.991 36.6447 293.686 36.6503C292.399 36.7503 291.103 36.604 289.87 36.2193C289.13 35.9206 288.433 35.5259 287.796 35.0451L286.607 34.1855C286.369 34.0096 286.074 33.9311 285.781 33.9662C285.488 34.0013 285.219 34.1474 285.03 34.3744C284.237 35.2947 283.317 36.097 282.297 36.7569C282.234 36.7956 282.171 36.8295 282.108 36.861C281.064 37.3726 279.931 37.6807 278.772 37.7689C278.494 37.8169 278.243 37.9612 278.062 38.1765C277.881 38.3918 277.781 38.6642 277.782 38.9456C277.476 42.5698 277.982 46.2165 279.263 49.6207C280.871 52.535 283.38 54.8493 286.415 56.216C286.553 56.2847 286.705 56.3204 286.86 56.3204C287.014 56.3204 287.166 56.2847 287.304 56.216C290.342 54.7579 292.783 52.2956 294.214 49.2454C295.343 45.52 295.583 41.5819 294.914 37.7471V37.7471Z" stroke="white" stroke-width="0.4"/>
<path d="M289.315 44.0938L287.514 47.1953L281.875 42.1641" stroke="white" stroke-width="0.5" stroke-linecap="round" stroke-linejoin="round"/>
</svg>
