<svg width="1297" height="136" viewBox="0 0 1297 136" fill="none" xmlns="http://www.w3.org/2000/svg">
<path opacity="0.5" d="M5.5 88L13.6635 76.9588C19.5647 68.9774 22.5153 64.9866 26.2901 64.2255C27.8207 63.9168 29.4023 63.9709 30.9082 64.3833C34.6222 65.4005 37.2935 69.5833 42.6359 77.9491V77.9491C49.8942 89.3148 53.5234 94.9977 58.0006 95.683C59.7891 95.9567 61.6184 95.7401 63.2935 95.0562C67.4869 93.3441 69.6882 86.9707 74.091 74.224L76.8544 66.2235C86.0968 39.4652 90.718 26.0861 97.9238 26.1628C105.13 26.2396 109.554 39.9926 118.404 67.4987C120.234 73.1858 122.063 78.8659 123.944 85.0131C130.191 105.432 133.315 115.641 139.373 116.69C139.894 116.78 140.372 116.825 140.9 116.835C147.047 116.944 151.911 107.74 161.64 89.3315L162.232 88.2111C168.216 76.8862 171.209 71.2237 175.88 70.2976C176.832 70.1089 177.806 70.0597 178.772 70.1516C183.513 70.6027 187.06 75.9352 194.155 86.6001L195.56 88.7129C199.314 94.3559 201.191 97.1774 203.733 98.3641C205.613 99.242 207.72 99.5132 209.761 99.1402C212.521 98.636 215.051 96.3819 220.112 91.8737V91.8737C221.905 90.2763 222.801 89.4776 223.829 88.9226C224.601 88.5061 225.423 88.1928 226.276 87.9908C227.413 87.7215 228.614 87.7215 231.015 87.7215H1296" stroke="#72A5E6" stroke-width="2" stroke-linecap="round"/>
<path d="M10.1796 95C9.25814 94.9178 8.40186 94.4854 7.78374 93.7901C6.36309 92.5738 5.07243 91.2106 3.93288 89.7227C3.4967 89.2329 0.175497 85.4746 0.00725558 82.4157C-0.021603 81.8391 0.0357324 81.2615 0.177354 80.7022C0.528339 79.5571 1.24737 78.5631 2.22057 77.8775C4.40147 76.4296 7.904 76.9124 9.21317 78.5605C9.52473 78.9571 9.85249 79.5898 10.3659 79.5848C10.8794 79.5797 11.161 78.9552 11.5181 78.5146C12.3348 77.7122 13.3859 77.1973 14.5152 77.0463C15.6445 76.8952 16.792 77.1161 17.7873 77.676C18.6589 78.2558 19.3213 79.1053 19.6753 80.0972C19.9443 80.8378 20.0482 81.6293 19.9794 82.4151C19.7987 85.603 17.1598 88.6185 16.6002 89.2354C15.3712 90.9376 13.9582 92.4961 12.3873 93.882C11.8137 94.5178 11.0271 94.9162 10.1796 95Z" fill="#417FCB"/>
</svg>
