<svg xmlns="http://www.w3.org/2000/svg" width="28.399" height="20.54" viewBox="0 0 28.399 20.54">
    <g data-name="Group 77484">
        <g data-name="Group 77483">
            <path data-name="Path 38797" d="M496.444 412.271a2.539 2.539 0 0 1-1.677-.855 18.872 18.872 0 0 1-2.7-2.875c-.306-.347-2.629-3-2.747-5.165a4.125 4.125 0 0 1 .119-1.211 3.8 3.8 0 0 1 1.43-2 4.01 4.01 0 0 1 4.893.483c.22.28.447.728.807.724s.556-.444.806-.757a3.649 3.649 0 0 1 4.387-.593 3.446 3.446 0 0 1 1.322 1.711 3.857 3.857 0 0 1 .213 1.639c-.126 2.253-1.973 4.385-2.365 4.82a19.941 19.941 0 0 1-2.948 3.285 2.391 2.391 0 0 1-1.54.794z" transform="translate(-475.118 -395.57)" style="stroke-miterlimit:10;stroke-width:.4px;fill:#e4b72d;stroke:#222;opacity:.31"/>
            <path data-name="Path 38797" d="M500.517 419.546a3.991 3.991 0 0 1-2.636-1.344 29.665 29.665 0 0 1-4.236-4.519c-.481-.545-4.132-4.72-4.317-8.118a6.484 6.484 0 0 1 .186-1.9 5.977 5.977 0 0 1 2.248-3.139c2.4-1.61 6.251-1.073 7.691.759.346.44.7 1.144 1.268 1.138s.874-.7 1.267-1.189a5.736 5.736 0 0 1 6.9-.932 5.416 5.416 0 0 1 2.078 2.69 6.062 6.062 0 0 1 .334 2.576c-.2 3.542-3.1 6.892-3.717 7.577a31.337 31.337 0 0 1-4.634 5.163 3.758 3.758 0 0 1-2.432 1.238z" transform="translate(-489.12 -399.208)" style="fill:#f4c838;stroke:#2d2d2d;stroke-miterlimit:10;stroke-width:.4px"/>
        </g>
    </g>
</svg>
