<svg width="131" height="115" viewBox="0 0 131 115" fill="none" xmlns="http://www.w3.org/2000/svg">
<path d="M77.2251 39.6829L81.3793 42.4382C81.7679 49.1944 82.2517 58.3072 82.7135 69.1394C83.1293 78.8656 83.1991 82.3093 83.6183 87.8745C84.3077 96.9737 85.4904 106.029 87.161 115L58.5122 108.38L54.2881 54.8567L77.2251 39.6829Z" fill="white"/>
<path d="M45.111 111.434C46.4944 101.193 47.3625 90.8892 47.7127 80.5613C47.7792 78.571 48.2341 61.3934 42.6008 58.3467C42.3842 58.2131 42.1562 58.099 41.9194 58.0059C40.7419 57.5816 38.9917 57.752 31.4772 57.9207C20.0606 58.178 17.5047 57.6787 16.6527 59.3503C15.8007 61.0219 17.8185 64.055 21.8586 70.1194C23.4615 72.7568 25.328 75.2243 27.4302 77.4839C29.6897 79.8064 30.7481 80.2461 38.1058 85.5659C41.9159 88.3195 46.5932 91.3031 46.0632 92.6066C45.9703 92.7743 45.8419 92.9194 45.6867 93.0319C45.5316 93.1444 45.3537 93.2214 45.1655 93.2576C44.3442 93.4279 43.5534 92.6526 43.291 92.4056C41.0144 90.2688 36.2672 88.0025 35.8702 88.4455C35.601 88.7471 37.5383 90.0677 37.2418 91.3832C36.8158 93.2746 31.7892 94.89 29.2332 93.0872C26.892 91.4394 28.4478 88.2257 25.9106 84.2265C24.5645 82.267 22.7331 80.6901 20.5956 79.6497C13.3316 75.3898 -0.703793 62.3391 1.17057 55.3221C2.05664 52.0045 6.32182 50.7027 18.6654 47.5145C28.5177 44.9688 40.1353 42.0976 53.2456 39.1038L78.6059 39.2741" fill="white"/>
<path d="M45.111 111.434C46.4944 101.193 47.3625 90.8892 47.7127 80.5613C47.7792 78.571 48.2341 61.3934 42.6008 58.3467C42.3842 58.2131 42.1562 58.099 41.9194 58.0059C40.7419 57.5816 38.9917 57.752 31.4772 57.9207C20.0606 58.178 17.5047 57.6787 16.6527 59.3503C15.8007 61.0219 17.8185 64.055 21.8586 70.1194C23.4615 72.7568 25.328 75.2243 27.4302 77.4839C29.6897 79.8064 30.7481 80.2461 38.1058 85.5659C41.9159 88.3195 46.5932 91.3031 46.0632 92.6066C45.9703 92.7743 45.8419 92.9194 45.6867 93.0319C45.5316 93.1444 45.3537 93.2214 45.1655 93.2576C44.3442 93.4279 43.5534 92.6526 43.2909 92.4056C41.0144 90.2688 36.2672 88.0025 35.8702 88.4455C35.601 88.7471 37.5383 90.0677 37.2418 91.3832C36.8158 93.2746 31.7892 94.89 29.2332 93.0872C26.892 91.4394 28.4478 88.2257 25.9106 84.2265C24.5645 82.267 22.7331 80.6901 20.5956 79.6497C13.3316 75.3898 -0.703793 62.3391 1.17057 55.3221C2.05664 52.0045 6.32182 50.7027 18.6654 47.5145C28.5177 44.9688 40.1353 42.0976 53.2456 39.1038L78.6059 39.2741" stroke="#2D2D2D" stroke-width="0.6" stroke-miterlimit="10" stroke-linecap="round"/>
<path d="M78.6006 39.2842C84.4742 40.9319 94.3653 43.6702 106.82 46.9197C124.224 51.459 129.592 52.553 130.442 56.2302C132.165 63.6714 114.425 77.4037 110.676 80.2817C108.546 81.6982 106.735 83.5423 105.356 85.6969C102.971 89.6876 103.812 92.4207 101.551 93.7618C99.0789 95.2289 94.8714 93.8504 94.3228 92.0067C93.9104 90.6248 95.6416 89.2139 95.2821 88.8629C94.7198 88.3125 89.7258 90.9979 87.5635 93.1705C87.3386 93.3954 86.6908 94.0719 86.0297 93.9373C85.7894 93.8563 85.5728 93.7174 85.399 93.5329C85.2251 93.3483 85.0994 93.1238 85.0329 92.8791C84.8029 92.0271 85.9071 90.9894 93.0876 85.9508C100.52 80.7349 101.582 80.3106 103.877 78.0205C106.01 75.7903 107.911 73.3491 109.549 70.7343C113.675 64.7261 115.738 61.7237 114.907 60.0385C114.126 58.4572 111.79 58.6089 100.096 58.401C90.012 58.2221 88.9639 57.9614 87.3946 58.994C83.6458 61.4528 82.9832 67.0861 83.3922 79.1826C83.7719 90.1484 84.8332 101.08 86.57 111.914" fill="white"/>
<path d="M78.6006 39.2842C84.4742 40.9319 94.3653 43.6702 106.82 46.9197C124.224 51.459 129.592 52.553 130.442 56.2302C132.165 63.6714 114.425 77.4037 110.676 80.2817C108.546 81.6982 106.735 83.5423 105.356 85.6969C102.971 89.6876 103.812 92.4207 101.551 93.7618C99.0789 95.2289 94.8714 93.8504 94.3228 92.0067C93.9104 90.6248 95.6416 89.2139 95.2821 88.8629C94.7198 88.3125 89.7258 90.9979 87.5635 93.1705C87.3386 93.3954 86.6908 94.0719 86.0297 93.9373C85.7894 93.8563 85.5728 93.7174 85.399 93.5329C85.2251 93.3483 85.0994 93.1238 85.0329 92.8791C84.8029 92.0271 85.9071 90.9894 93.0876 85.9508C100.52 80.7349 101.582 80.3106 103.877 78.0205C106.01 75.7903 107.911 73.3491 109.549 70.7343C113.675 64.7261 115.738 61.7238 114.907 60.0385C114.126 58.4572 111.79 58.6089 100.096 58.401C90.012 58.2221 88.9639 57.9614 87.3946 58.994C83.6458 61.4528 82.9832 67.0861 83.3922 79.1826C83.7719 90.1484 84.8332 101.08 86.57 111.914" stroke="#2D2D2D" stroke-width="0.6" stroke-miterlimit="10" stroke-linecap="round"/>
<path d="M48.2662 28.5149C46.305 27.0086 44.059 27.1517 43.2325 28.1741C42.9892 28.5516 42.8445 28.9841 42.8111 29.432C42.7778 29.88 42.8572 30.3292 43.042 30.7386C43.3999 31.4932 43.9997 32.1067 44.746 32.4817C46.7237 33.7209 48.4565 35.3133 49.8579 37.1796" fill="white"/>
<path d="M48.2662 28.5149C46.305 27.0086 44.059 27.1517 43.2325 28.1741C42.9892 28.5516 42.8445 28.9841 42.8111 29.432C42.7778 29.88 42.8572 30.3292 43.042 30.7386C43.3999 31.4932 43.9997 32.1067 44.746 32.4817C46.7237 33.7209 48.4565 35.3133 49.8579 37.1796" stroke="#2D2D2D" stroke-width="0.6" stroke-miterlimit="10"/>
<path d="M78.9365 26.4826C81.3221 24.7002 83.6838 24.3168 84.5817 25.2046C85.4218 26.0378 84.8886 27.9105 84.7694 28.3297C84.3026 29.6297 83.5243 30.7957 82.503 31.7257C81.2519 33.1442 80.0824 34.6324 78.9998 36.1833" fill="white"/>
<path d="M78.9365 26.4826C81.3221 24.7002 83.6838 24.3168 84.5817 25.2046C85.4218 26.0378 84.8886 27.9105 84.7694 28.3297C84.3026 29.6297 83.5243 30.7957 82.503 31.7257C81.2519 33.1442 80.0824 34.6324 78.9998 36.1833" stroke="#2D2D2D" stroke-width="0.6" stroke-miterlimit="10"/>
<path d="M80.8953 29.6926C81.2548 39.4615 73.8444 45.9842 72.4062 47.2435C70.5862 49.091 68.2204 50.3048 65.6581 50.7059C62.4127 50.7678 59.2694 49.5702 56.8879 47.3645C56.1432 46.7868 48.5981 40.736 48.4005 30.9416C48.2147 21.764 54.5195 10.1958 63.8556 9.83286C73.1115 9.48525 80.5494 20.3242 80.8953 29.6926Z" fill="white" stroke="#2D2D2D" stroke-width="0.6" stroke-miterlimit="10"/>
<path d="M48.1314 29.1661C49.946 30.2767 52.0768 30.756 54.1922 30.5293C58.1388 30.3094 61.9602 29.0656 65.2801 26.9203C72.5458 22.4593 74.3401 17.5485 76.6729 18.3101C79.2953 19.1724 78.6513 25.9252 80.2871 26.0751C81.4663 26.1842 83.0663 22.7967 83.5349 19.5523C83.8851 16.8181 83.5796 14.0397 82.6442 11.4467C81.7089 8.85364 80.1706 6.52028 78.1555 4.63922C71.4538 -1.48485 62.2793 0.525823 60.013 1.01997C57.7978 1.50731 50.4147 3.12098 46.3575 9.96752C43.5443 14.7165 42.8884 20.8474 45.0201 25.1925C45.671 26.7786 46.7477 28.1538 48.1314 29.1661Z" fill="#474747" stroke="#2D2D2D" stroke-width="0.6" stroke-miterlimit="10"/>
<path d="M16.5502 61.0182C16.3304 60.3554 16.0731 59.655 15.7698 58.9274C15.5738 58.4572 15.3727 58.0124 15.1699 57.5881" fill="white"/>
<path d="M16.5502 61.0182C16.3304 60.3554 16.0731 59.655 15.7698 58.9274C15.5738 58.4572 15.3727 58.0124 15.1699 57.5881" stroke="#2D2D2D" stroke-width="0.5" stroke-miterlimit="10" stroke-linecap="round"/>
<path d="M115.132 61.1718C115.348 60.5089 115.607 59.8086 115.91 59.0793C116.106 58.6107 116.309 58.1643 116.512 57.7417" fill="white"/>
<path d="M115.132 61.1718C115.348 60.5089 115.607 59.8086 115.91 59.0793C116.106 58.6107 116.309 58.1643 116.512 57.7417" stroke="#2D2D2D" stroke-width="0.5" stroke-miterlimit="10" stroke-linecap="round"/>
<path d="M57.0009 92.0645C56.8533 93.2881 57.1299 94.5253 57.7846 95.5695C58.807 97.0452 60.1531 96.9804 60.7528 98.4135C60.9884 98.9942 61.0591 99.6286 60.9575 100.247C60.8559 100.865 60.5861 101.444 60.1771 101.919C59.632 102.349 58.9907 102.641 58.3084 102.771C57.626 102.9 56.9227 102.862 56.2579 102.661C52.6898 101.757 49.9857 96.6192 50.6093 92.0628C51.0115 89.1217 52.8978 85.6814 55.7212 84.9265C56.2166 84.7687 56.7388 84.713 57.2563 84.7628C57.7738 84.8126 58.2757 84.9668 58.7319 85.2162C59.2353 85.6127 59.6391 86.1212 59.9113 86.7013C60.1834 87.2815 60.3167 87.9171 60.2998 88.5577C60.2246 89.6916 59.8549 90.7862 59.2278 91.7339C58.6905 92.7795 58.0459 93.7663 57.3041 94.6784" fill="#FF8E93"/>
<path d="M57.0009 92.0645C56.8533 93.2881 57.1299 94.5253 57.7846 95.5695C58.807 97.0452 60.1531 96.9804 60.7528 98.4135C60.9884 98.9942 61.0591 99.6286 60.9575 100.247C60.8559 100.865 60.5861 101.444 60.1771 101.919C59.632 102.349 58.9907 102.641 58.3084 102.771C57.626 102.9 56.9227 102.862 56.2579 102.661C52.6898 101.757 49.9857 96.6192 50.6093 92.0628C51.0115 89.1217 52.8978 85.6814 55.7212 84.9265C56.2166 84.7687 56.7388 84.713 57.2563 84.7628C57.7738 84.8126 58.2757 84.9668 58.7319 85.2162C59.2353 85.6127 59.6391 86.1212 59.9113 86.7013C60.1834 87.2815 60.3167 87.9171 60.2998 88.5577C60.2246 89.6916 59.8549 90.7862 59.2278 91.7339C58.6905 92.7795 58.0459 93.7663 57.3041 94.6784" stroke="#2D2D2D" stroke-width="0.6" stroke-miterlimit="10" stroke-linecap="round"/>
<path d="M65.1678 108.997C65.1763 106.649 65.1252 104.519 65.0434 102.646C64.8219 97.4918 64.4743 96.3024 63.641 95.2579C62.3856 93.8511 60.6792 92.9256 58.8153 92.6406C58.5165 92.9519 58.2435 93.287 57.9991 93.6426C57.7855 93.8868 57.634 94.1791 57.5578 94.4945C57.5545 94.7413 57.6069 94.9857 57.7104 95.2098C57.8139 95.4339 57.966 95.632 58.156 95.7896C59.1463 95.4831 60.2134 95.538 61.167 95.9446C63.0874 96.9056 63.3071 99.6099 63.5524 102.677C63.7226 104.788 63.6422 106.912 63.3124 109.004" fill="#86BCFF"/>
<path d="M65.1678 108.997C65.1763 106.649 65.1252 104.519 65.0434 102.646C64.8219 97.4918 64.4743 96.3024 63.641 95.2579C62.3856 93.8511 60.6792 92.9256 58.8153 92.6406C58.5165 92.9519 58.2435 93.287 57.9991 93.6426C57.7855 93.8868 57.634 94.1791 57.5578 94.4945C57.5545 94.7413 57.6069 94.9857 57.7104 95.2098C57.8139 95.4339 57.966 95.632 58.156 95.7896C59.1463 95.4831 60.2134 95.538 61.167 95.9446C63.0874 96.9056 63.3071 99.6099 63.5524 102.677C63.7226 104.788 63.6422 106.912 63.3124 109.004" stroke="#2D2D2D" stroke-width="0.6" stroke-miterlimit="10"/>
<path d="M67.1113 108.98C67.1028 106.63 67.1539 104.502 67.2357 102.629C67.4572 97.4747 67.8031 96.2854 68.638 95.2391C69.8936 93.8328 71.6 92.9079 73.4637 92.6235C73.7631 92.9343 74.0361 93.2694 74.2799 93.6255C74.4937 93.8696 74.6448 94.162 74.7209 94.4774C74.7241 94.7242 74.6721 94.9686 74.5686 95.1927C74.4651 95.4168 74.3131 95.6149 74.1231 95.7725C73.133 95.4655 72.0658 95.5198 71.112 95.9258C69.1934 96.8886 68.972 99.5928 68.7266 102.66C68.5565 104.77 68.637 106.894 68.9667 108.985" fill="#86BCFF"/>
<path d="M67.1113 108.98C67.1028 106.63 67.1539 104.502 67.2357 102.629C67.4572 97.4747 67.8031 96.2854 68.638 95.2391C69.8936 93.8328 71.6 92.9079 73.4637 92.6235C73.7631 92.9343 74.0361 93.2694 74.2799 93.6255C74.4937 93.8696 74.6448 94.162 74.7209 94.4774C74.7241 94.7242 74.6721 94.9686 74.5686 95.1927C74.4651 95.4168 74.3131 95.6149 74.1231 95.7725C73.133 95.4655 72.0658 95.5198 71.112 95.9258C69.1934 96.8886 68.972 99.5928 68.7266 102.66C68.5565 104.77 68.637 106.894 68.9667 108.985" stroke="#2D2D2D" stroke-width="0.6" stroke-miterlimit="10"/>
<path d="M75.2879 92.0645C75.4353 93.2881 75.1587 94.5253 74.5041 95.5695C73.4817 97.0452 72.1353 96.9804 71.5338 98.4135C71.2997 98.9945 71.2298 99.6288 71.3316 100.247C71.4335 100.865 71.7034 101.443 72.1117 101.919C72.6568 102.349 73.2976 102.641 73.98 102.771C74.6623 102.9 75.3661 102.862 76.0309 102.661C79.599 101.757 82.303 96.6192 81.6811 92.0628C81.279 89.1217 79.391 85.6814 76.5692 84.9265C76.0738 84.7687 75.5516 84.713 75.0341 84.7628C74.5166 84.8126 74.0143 84.9668 73.5581 85.2162C73.0547 85.6127 72.6509 86.1212 72.3787 86.7013C72.1066 87.2815 71.9737 87.9171 71.9906 88.5577C72.0668 89.6916 72.437 90.7862 73.0643 91.7339C73.6013 92.7793 74.2453 93.7661 74.9863 94.6784" fill="#FF8E93"/>
<path d="M75.2879 92.0645C75.4353 93.2881 75.1587 94.5253 74.5041 95.5695C73.4817 97.0452 72.1353 96.9804 71.5338 98.4135C71.2997 98.9945 71.2298 99.6288 71.3316 100.247C71.4335 100.865 71.7034 101.443 72.1117 101.919C72.6568 102.349 73.2976 102.641 73.98 102.771C74.6623 102.9 75.3661 102.862 76.0309 102.661C79.599 101.757 82.303 96.6192 81.6811 92.0628C81.279 89.1217 79.391 85.6814 76.5692 84.9265C76.0738 84.7687 75.5516 84.713 75.0341 84.7628C74.5166 84.8126 74.0143 84.9668 73.5581 85.2162C73.0547 85.6127 72.6509 86.1212 72.3787 86.7013C72.1066 87.2815 71.9737 87.9171 71.9906 88.5577C72.0668 89.6916 72.437 90.7862 73.0643 91.7339C73.6013 92.7793 74.2453 93.7661 74.9863 94.6784" stroke="#2D2D2D" stroke-width="0.6" stroke-miterlimit="10" stroke-linecap="round"/>
<g style="mix-blend-mode:multiply" opacity="0.5">
<path d="M83.1808 88.6908C83.5591 90.3948 84.578 94.9614 81.896 98.6556C78.2069 103.735 70.6617 102.835 69.653 102.699C64.0572 101.946 55.7912 97.5446 55.6447 89.1696C55.5813 85.5179 56.9711 81.9906 59.5084 79.3635C62.0456 76.7365 65.5225 75.2249 69.1742 75.1613C77.7979 75.0028 82.1124 83.8822 83.1808 88.6908Z" fill="#FF8E93"/>
</g>
</svg>
