<?xml version="1.0" encoding="UTF-8"?>
<svg xmlns="http://www.w3.org/2000/svg" xmlns:xlink="http://www.w3.org/1999/xlink" width="1648pt" height="1480pt" viewBox="0 0 1648 1480" version="1.1">
<defs>
<linearGradient id="linear0" gradientUnits="userSpaceOnUse" x1="0.01" y1="0.016" x2="1.013" y2="1.032" gradientTransform="matrix(1648,0,0,1314.261719,0,60.15625)">
<stop offset="0" style="stop-color:rgb(9.019608%,47.058824%,94.901961%);stop-opacity:1;"/>
<stop offset="1" style="stop-color:rgb(95.686275%,0%,3.529412%);stop-opacity:1;"/>
</linearGradient>
</defs>
<g id="surface1">
<path style=" stroke:none;fill-rule:nonzero;fill:url(#linear0);" d="M 0 130.257812 C 0 130.257812 99.964844 51.996094 367.875 60.839844 C 635.78125 69.679688 751.601562 148.273438 1071.628906 165.628906 C 1391.65625 182.984375 1648 130.257812 1648 130.257812 L 1648 1312.789062 C 1648 1312.789062 1405.738281 1384.828125 1098.914062 1373.183594 C 792.09375 1361.535156 695.441406 1297.867188 420.710938 1292.707031 C 145.980469 1287.542969 0 1339.292969 0 1339.292969 Z M 0 130.257812 "/>
<path style=" stroke:none;fill-rule:nonzero;fill:rgb(95.686275%,0%,3.529412%);fill-opacity:1;" d="M 1612.273438 82.992188 C 1583.191406 105.875 1547.910156 124.4375 1507.410156 138.167969 C 1456.78125 155.328125 1397.808594 164.933594 1332.128906 166.71875 C 1322.035156 166.996094 1312.0625 167.109375 1302.222656 167.0625 C 1300.851562 167.195312 1299.488281 167.324219 1298.121094 167.453125 C 1300.71875 167.472656 1303.308594 167.503906 1305.921875 167.503906 C 1314.5625 167.503906 1323.304688 167.386719 1332.140625 167.148438 C 1397.871094 165.359375 1456.894531 155.742188 1507.570312 138.558594 C 1548.121094 124.816406 1583.449219 106.222656 1612.566406 83.304688 C 1625.425781 73.25 1637.289062 61.988281 1648 49.667969 L 1648 49.011719 C 1637.21875 61.464844 1625.253906 72.847656 1612.273438 82.992188 Z M 1612.273438 82.992188 "/>
<path style=" stroke:none;fill-rule:nonzero;fill:rgb(95.686275%,0%,3.529412%);fill-opacity:1;" d="M 295.847656 41.558594 C 371.832031 34.964844 448.171875 33.375 524.367188 36.800781 C 688.445312 44.015625 814.066406 76.289062 935.554688 107.492188 C 1051.902344 137.378906 1162.359375 165.75 1293.679688 167.425781 C 1295.101562 167.300781 1296.523438 167.175781 1297.949219 167.046875 C 1164.800781 165.941406 1053.238281 137.28125 935.660156 107.078125 C 814.152344 75.863281 688.507812 43.589844 524.382812 36.371094 C 448.167969 32.945312 371.808594 34.535156 295.800781 41.132812 C 237.886719 46.148438 180.3125 54.5 123.359375 66.144531 C 66.074219 77.984375 24.070312 90.605469 0 98.660156 L 0 99.113281 C 24.03125 91.066406 66.074219 78.421875 123.460938 66.5625 C 180.394531 54.921875 237.953125 46.574219 295.847656 41.558594 Z M 295.847656 41.558594 "/>
<path style=" stroke:none;fill-rule:nonzero;fill:rgb(9.019608%,47.058824%,94.901961%);fill-opacity:1;" d="M 294.320312 148.90625 C 369.234375 134.207031 445.03125 124.449219 521.226562 119.691406 C 685.234375 109.296875 813.558594 127.953125 937.65625 145.992188 C 1027.488281 159.050781 1113.871094 171.609375 1207.207031 171.609375 C 1236.703125 171.609375 1266.90625 170.34375 1298.117188 167.457031 C 1296.640625 167.445312 1295.148438 167.445312 1293.675781 167.425781 C 1165.617188 178.6875 1054.574219 162.554688 937.714844 145.566406 C 813.601562 127.523438 685.253906 108.871094 521.199219 119.261719 C 444.984375 124.023438 369.167969 133.785156 294.238281 148.484375 C 237.117188 159.683594 180.6875 174.160156 125.230469 191.84375 C 64.417969 211.371094 21.773438 229.886719 0 240.113281 L 0 240.585938 C 21.703125 230.382812 64.394531 211.828125 125.363281 192.253906 C 180.804688 174.578125 237.21875 160.101562 294.320312 148.90625 Z M 294.320312 148.90625 "/>
<path style=" stroke:none;fill-rule:nonzero;fill:rgb(9.019608%,47.058824%,94.901961%);fill-opacity:1;" d="M 1608.515625 49.109375 C 1581.933594 75 1548.734375 97.25 1509.851562 115.253906 C 1461.234375 137.757812 1403.535156 153.632812 1338.359375 162.449219 C 1324.6875 164.296875 1311.21875 165.828125 1297.949219 167.046875 C 1299.371094 167.058594 1300.800781 167.0625 1302.222656 167.066406 C 1314.132812 165.910156 1326.199219 164.515625 1338.414062 162.875 C 1403.636719 154.054688 1461.375 138.164062 1510.03125 115.640625 C 1548.964844 97.621094 1582.199219 75.339844 1608.820312 49.417969 C 1623.863281 34.925781 1637.03125 18.597656 1648.003906 0.820312 L 1648.003906 0 C 1636.976562 17.980469 1623.710938 34.480469 1608.515625 49.109375 Z M 1608.515625 49.109375 "/>
<path style=" stroke:none;fill-rule:nonzero;fill:rgb(9.019608%,47.058824%,94.901961%);fill-opacity:1;" d="M 1297.949219 167.042969 C 1296.523438 167.175781 1295.101562 167.300781 1293.679688 167.425781 C 1295.152344 167.445312 1296.640625 167.441406 1298.121094 167.453125 C 1299.484375 167.328125 1300.851562 167.199219 1302.222656 167.066406 C 1300.796875 167.0625 1299.367188 167.058594 1297.949219 167.042969 Z M 1297.949219 167.042969 "/>
<path style=" stroke:none;fill-rule:nonzero;fill:rgb(95.686275%,0%,3.529412%);fill-opacity:1;" d="M 1612.273438 1322.621094 C 1583.191406 1345.503906 1547.910156 1364.066406 1507.410156 1377.796875 C 1456.78125 1394.957031 1397.808594 1404.5625 1332.128906 1406.347656 C 1322.035156 1406.625 1312.0625 1406.738281 1302.222656 1406.691406 C 1300.851562 1406.824219 1299.488281 1406.953125 1298.121094 1407.082031 C 1300.71875 1407.101562 1303.308594 1407.132812 1305.921875 1407.132812 C 1314.5625 1407.132812 1323.304688 1407.015625 1332.140625 1406.777344 C 1397.871094 1404.988281 1456.894531 1395.371094 1507.570312 1378.1875 C 1548.121094 1364.445312 1583.449219 1345.851562 1612.566406 1322.933594 C 1625.425781 1312.878906 1637.289062 1301.617188 1648 1289.296875 L 1648 1288.640625 C 1637.21875 1301.09375 1625.253906 1312.476562 1612.273438 1322.621094 Z M 1612.273438 1322.621094 "/>
<path style=" stroke:none;fill-rule:nonzero;fill:rgb(95.686275%,0%,3.529412%);fill-opacity:1;" d="M 295.847656 1281.1875 C 371.832031 1274.59375 448.171875 1273.003906 524.367188 1276.429688 C 688.445312 1283.644531 814.066406 1315.917969 935.554688 1347.121094 C 1051.902344 1377.007812 1162.359375 1405.378906 1293.679688 1407.054688 C 1295.101562 1406.929688 1296.523438 1406.804688 1297.949219 1406.675781 C 1164.800781 1405.570312 1053.238281 1376.910156 935.660156 1346.707031 C 814.152344 1315.492188 688.507812 1283.21875 524.382812 1276 C 448.167969 1272.574219 371.808594 1274.164062 295.800781 1280.761719 C 237.886719 1285.777344 180.3125 1294.128906 123.359375 1305.773438 C 66.074219 1317.609375 24.070312 1330.234375 0 1338.289062 L 0 1338.742188 C 24.03125 1330.695312 66.074219 1318.050781 123.460938 1306.191406 C 180.394531 1294.550781 237.953125 1286.203125 295.847656 1281.1875 Z M 295.847656 1281.1875 "/>
<path style=" stroke:none;fill-rule:nonzero;fill:rgb(9.019608%,47.058824%,94.901961%);fill-opacity:1;" d="M 294.320312 1388.535156 C 369.234375 1373.835938 445.03125 1364.078125 521.226562 1359.320312 C 685.234375 1348.925781 813.558594 1367.582031 937.65625 1385.621094 C 1027.488281 1398.679688 1113.871094 1411.238281 1207.207031 1411.238281 C 1236.703125 1411.238281 1266.90625 1409.972656 1298.117188 1407.085938 C 1296.640625 1407.070312 1295.148438 1407.074219 1293.675781 1407.054688 C 1165.617188 1418.316406 1054.574219 1402.179688 937.714844 1385.195312 C 813.601562 1367.152344 685.253906 1348.5 521.199219 1358.890625 C 444.984375 1363.652344 369.167969 1373.414062 294.238281 1388.113281 C 237.117188 1399.3125 180.6875 1413.789062 125.230469 1431.472656 C 64.417969 1451 21.773438 1469.515625 0 1479.742188 L 0 1480.214844 C 21.703125 1470.011719 64.394531 1451.457031 125.363281 1431.882812 C 180.804688 1414.203125 237.21875 1399.730469 294.320312 1388.535156 Z M 294.320312 1388.535156 "/>
<path style=" stroke:none;fill-rule:nonzero;fill:rgb(9.019608%,47.058824%,94.901961%);fill-opacity:1;" d="M 1608.515625 1288.738281 C 1581.933594 1314.628906 1548.734375 1336.878906 1509.851562 1354.878906 C 1461.234375 1377.382812 1403.535156 1393.261719 1338.359375 1402.078125 C 1324.6875 1403.925781 1311.21875 1405.457031 1297.949219 1406.675781 C 1299.371094 1406.6875 1300.800781 1406.6875 1302.222656 1406.695312 C 1314.132812 1405.539062 1326.199219 1404.144531 1338.414062 1402.503906 C 1403.636719 1393.683594 1461.375 1377.792969 1510.03125 1355.269531 C 1548.964844 1337.25 1582.199219 1314.96875 1608.820312 1289.046875 C 1623.863281 1274.554688 1637.03125 1258.226562 1648.003906 1240.449219 L 1648.003906 1239.628906 C 1636.976562 1257.609375 1623.710938 1274.109375 1608.515625 1288.738281 Z M 1608.515625 1288.738281 "/>
<path style=" stroke:none;fill-rule:nonzero;fill:rgb(9.019608%,47.058824%,94.901961%);fill-opacity:1;" d="M 1297.949219 1406.671875 C 1296.523438 1406.804688 1295.101562 1406.929688 1293.679688 1407.054688 C 1295.152344 1407.074219 1296.640625 1407.070312 1298.121094 1407.082031 C 1299.484375 1406.957031 1300.851562 1406.828125 1302.222656 1406.695312 C 1300.796875 1406.6875 1299.367188 1406.6875 1297.949219 1406.671875 Z M 1297.949219 1406.671875 "/>
</g>
</svg>
