<svg width="70" height="108" viewBox="0 0 70 108" fill="none" xmlns="http://www.w3.org/2000/svg">
<path d="M8.61034 100.372C8.32986 99.0795 8.11868 97.7729 7.97739 96.4578C7.50552 92.5267 7.43588 88.5577 7.76988 84.6124C8.33968 79.402 7.65132 79.4098 8.39047 76.1319C9.12962 72.854 9.67395 68.1818 9.67395 68.1818L17.9297 66.618L60.5979 65.6494L60.2339 71.1891C61.2163 76.047 61.7141 80.9904 61.72 85.9467C61.4795 92.3395 60.4379 103.303 60.4379 103.303L8.61034 100.372Z" fill="white"/>
<path d="M3.37985 59.8424L1.42188 63.9577C3.26738 64.9802 5.30913 66.0025 7.54716 66.9648C11.056 68.4822 14.6839 69.7083 18.3939 70.6306C18.9415 67.1485 19.4896 63.6706 20.0383 60.1969L10.1081 55.7178L3.37985 59.8424Z" fill="white"/>
<path d="M59.6895 66.9602C60.5151 70.881 61.0924 74.8499 61.4179 78.8435C62.0458 86.5687 61.7381 94.3417 60.5015 101.993" fill="white"/>
<path d="M59.6895 66.9602C60.5151 70.881 61.0924 74.8499 61.4179 78.8435C62.0458 86.5687 61.7381 94.3417 60.5015 101.993" stroke="#2D2D2D" stroke-width="0.5" stroke-miterlimit="10" stroke-linecap="round"/>
<path d="M9.57748 67.2292C8.75109 71.1499 8.17375 75.1191 7.84904 79.1127C7.22038 86.8379 7.52806 94.6108 8.76543 102.262" fill="white"/>
<path d="M9.57748 67.2292C8.75109 71.1499 8.17375 75.1191 7.84904 79.1127C7.22038 86.8379 7.52806 94.6108 8.76543 102.262" stroke="#2D2D2D" stroke-width="0.5" stroke-miterlimit="10" stroke-linecap="round"/>
<path d="M17.865 26.1722C17.2917 25.5333 16.4979 25.135 15.6429 25.0572C14.788 24.9794 13.9353 25.2279 13.256 25.7528C12.9283 26.1611 12.7242 26.6548 12.6681 27.1754C12.612 27.6959 12.7063 28.2215 12.9396 28.6903C13.3747 29.4462 14.0474 30.0371 14.8531 30.3712C16.6183 31.396 18.1322 32.802 19.2847 34.4866" fill="white"/>
<path d="M18.9436 34.7304C17.8199 33.1012 16.3517 31.7391 14.6431 30.7402L14.4849 30.6485C13.6639 30.286 12.9867 29.6606 12.5602 28.8709C12.2915 28.3246 12.1862 27.7126 12.2566 27.1079C12.3271 26.5032 12.5706 25.9317 12.9576 25.4618C13.7157 24.8581 14.6745 24.564 15.6407 24.6389C16.6069 24.7138 17.5087 25.1521 18.1647 25.8654L17.584 26.4794C17.091 25.9175 16.4051 25.561 15.6619 25.4801C14.9188 25.3993 14.1724 25.5999 13.5701 26.0426C13.3018 26.3895 13.1367 26.805 13.0936 27.2414C13.0505 27.6778 13.131 28.1175 13.3262 28.5102C13.6797 29.1351 14.2302 29.6254 14.8916 29.9046L15.0641 29.9995C16.8816 31.0586 18.4434 32.5053 19.6383 34.2365L18.9436 34.7304Z" fill="#2D2D2D"/>
<path d="M22.9286 39.3555C15.7428 44.7516 9.29415 51.065 3.74707 58.1349C4.74722 59.6157 5.62087 61.1783 6.35867 62.8057C7.07566 64.3885 8.83735 66.5174 9.20772 67.8247C12.1548 68.1254 13.8546 67.7755 16.8049 68.0778C16.6197 73.6349 16.2732 79.4737 15.7192 85.5531C15.0228 93.1836 14.0761 100.382 12.973 107.112L56.8757 107.045C56.586 104.633 56.1697 100.901 55.7899 96.2986C55.5002 92.7912 55.3784 90.5452 55.0872 85.9552C54.8846 82.7691 54.5775 78.1236 54.1659 72.3972C54.0735 72.0389 54.0859 71.6617 54.2015 71.3102C54.3171 70.9587 54.531 70.6476 54.818 70.4141C58.764 70.4427 62.5975 69.0999 65.6632 66.6154C66.8097 65.6443 67.8078 64.5107 68.626 63.2505C68.0742 62.7029 67.5218 62.1505 66.9689 61.5934C65.4516 60.0676 63.9622 58.5443 62.5008 57.0238C57.647 52.1046 52.7932 47.1839 47.9394 42.2615L22.9286 39.3555Z" fill="white"/>
<path d="M48.9102 25.0826C51.0802 23.3638 53.4227 23.1405 54.3819 24.0743C55.2476 24.9147 54.8677 26.5735 54.8139 26.803C54.4688 28.2275 53.4717 28.9287 52.1422 30.2044C50.837 31.4612 49.654 32.8391 48.6094 34.3195" fill="white"/>
<path d="M48.9538 34.5629L48.2637 34.0737C49.3258 32.5731 50.526 31.1754 51.8487 29.8985C52.0734 29.6848 52.2886 29.4855 52.4928 29.2939C53.3892 28.6567 54.0581 27.7493 54.4017 26.7046C54.4429 26.5368 54.7785 25.0488 54.0852 24.3778C53.3049 23.6212 51.2044 23.8017 49.1785 25.4145L48.6532 24.7514C50.8295 23.0294 53.4758 22.6004 54.6819 23.7717C55.0158 24.2122 55.2395 24.7262 55.3345 25.2708C55.4295 25.8154 55.393 26.3748 55.2279 26.9024C54.8481 28.1085 54.0935 29.1618 53.0738 29.9095C52.8728 30.0947 52.6606 30.2909 52.4406 30.503C51.1537 31.744 49.9862 33.1033 48.9538 34.5629Z" fill="#2D2D2D"/>
<path d="M33.8743 47.0839C42.5125 47.0839 49.5151 38.343 49.5151 27.5605C49.5151 16.778 42.5125 8.03711 33.8743 8.03711C25.2361 8.03711 18.2334 16.778 18.2334 27.5605C18.2334 38.343 25.2361 47.0839 33.8743 47.0839Z" fill="white"/>
<path d="M33.8612 47.5032C24.9977 47.5032 17.7979 38.5557 17.7979 27.5602C17.7979 16.5647 25.0041 7.61743 33.8612 7.61743C42.7183 7.61743 49.9247 16.5632 49.9247 27.5602C49.9247 38.5572 42.7247 47.5032 33.8612 47.5032ZM33.8612 8.45634C25.4726 8.45634 18.6429 17.0254 18.6429 27.5571C18.6429 38.0888 25.4694 46.6563 33.8612 46.6563C42.253 46.6563 49.0794 38.0888 49.0794 27.5571C49.0794 17.0254 42.2657 8.45634 33.8612 8.45634Z" fill="#2D2D2D"/>
<path d="M18.1049 26.2974C19.9583 26.9574 21.0013 25.2592 24.4359 24.6609C28.0636 24.0278 28.8266 25.5851 32.5366 24.9963C34.7028 24.5933 36.7586 23.7351 38.5683 22.4782C43.4828 19.4409 44.5828 16.0728 46.1529 16.4748C48.383 17.0478 47.3986 24.2096 49.1254 24.5357C50.3821 24.7731 52.7864 21.3607 53.1314 17.6919C53.793 10.6565 46.6325 5.31623 45.6338 4.59291C40.9095 1.3669 35.1108 0.117214 29.4771 1.1109C27.103 1.51609 20.9618 2.56384 17.1125 7.95473C15.6017 10.0062 14.6386 12.4089 14.3143 14.9359C13.99 17.463 14.3152 20.031 15.2591 22.3974C15.8495 23.7206 16.4303 25.7022 18.1049 26.2974Z" fill="#474747"/>
<path d="M18.9384 26.8735C18.6051 26.8725 18.2747 26.8131 17.9619 26.6978C17.2695 26.3456 16.6598 25.8504 16.173 25.2449C15.6863 24.6395 15.3335 23.9376 15.1382 23.1857C15.048 22.9689 14.9609 22.7615 14.8739 22.5684C13.8946 20.1352 13.5551 17.4917 13.8875 14.8899C14.22 12.2882 15.2135 9.81497 16.7733 7.70624C20.7302 2.16657 27.0359 1.09657 29.4132 0.692969C35.1592 -0.338844 41.08 0.939964 45.8881 4.25109C47.2856 5.2609 54.223 10.6612 53.5582 17.733C53.3548 20.3163 52.215 22.7366 50.3531 24.5389C50.1778 24.6963 49.9713 24.815 49.7472 24.8875C49.5231 24.96 49.2863 24.9847 49.052 24.9599C47.9441 24.7494 47.7163 23.0179 47.4583 21.011C47.2351 19.2794 46.9565 17.1253 46.0511 16.8958C45.5526 16.7708 45.005 17.3263 43.9937 18.4152C42.4842 20.1376 40.7314 21.6306 38.7909 22.847C36.9329 24.1316 34.8247 25.0096 32.604 25.4236C31.1993 25.6564 29.7615 25.5929 28.3828 25.237C27.1184 24.9016 25.7958 24.8474 24.5082 25.0786C23.3448 25.2952 22.217 25.6723 21.1574 26.1992C20.4756 26.5828 19.7183 26.813 18.9384 26.8735ZM33.3668 1.20903C32.0877 1.2083 30.8107 1.3141 29.5492 1.5255C27.2684 1.91486 21.2051 2.95009 17.4571 8.19853C15.9829 10.1872 15.0423 12.5199 14.7251 14.9749C14.4079 17.4299 14.7246 19.9253 15.6448 22.2233C15.735 22.4228 15.8252 22.6396 15.9186 22.8565C16.4235 24.0736 16.9964 25.4521 18.2452 25.8953C19.1109 26.2118 19.7473 25.9128 20.8046 25.4205C21.9298 24.8628 23.1273 24.4648 24.3625 24.2381C25.7565 23.9848 27.189 24.0389 28.56 24.3965C29.8358 24.7321 31.1687 24.792 32.4696 24.5722C34.5795 24.18 36.5814 23.342 38.3415 22.1142C40.2178 20.9346 41.9122 19.4881 43.3715 17.8201C44.4985 16.603 45.2392 15.7926 46.2554 16.0569C47.7178 16.432 48.0091 18.6969 48.2908 20.8875C48.4602 22.2075 48.6927 24.0181 49.2008 24.1131C49.2705 24.1258 49.4668 24.1274 49.834 23.8472C51.4992 22.1882 52.5173 19.9892 52.705 17.646C53.3255 11.0333 46.7128 5.89238 45.3817 4.92848C41.8699 2.45116 37.664 1.14917 33.3668 1.20903Z" fill="#2D2D2D"/>
<path d="M54.2351 71.1276L54.0483 70.303C65.5565 67.6946 68.0795 65.1623 68.1697 63.4972C68.2298 62.5001 67.4227 61.7768 65.43 60.0912C63.0422 58.1149 60.7916 55.9785 58.6938 53.6968C57.1347 52.0048 56.3449 50.987 55.6453 50.0896C54.7741 48.9289 53.8056 47.8445 52.7505 46.8481C50.5385 44.5675 48.0326 42.5916 45.2988 40.9728L45.7088 40.2354C48.5074 41.8871 51.0721 43.9061 53.3346 46.2387C54.4196 47.2635 55.4155 48.3787 56.3117 49.5721C56.9986 50.4569 57.7774 51.4571 59.319 53.1237C61.3924 55.3807 63.6183 57.4929 65.9808 59.4453C67.9941 61.1499 69.1036 62.0871 69.0165 63.5448C68.8582 66.427 64.0229 68.9023 54.2351 71.1276Z" fill="#2D2D2D"/>
<path d="M16.3357 70.1541C5.38771 67.5789 0.0428408 64.9438 0.000106189 62.1027C-0.0109731 60.9235 0.845288 60.1797 2.39956 58.8296C4.1072 57.374 5.72451 55.8158 7.24271 54.1636C8.37813 52.9534 9.42605 51.6637 10.3783 50.3046C11.0785 49.2939 11.8479 48.3331 12.6811 47.4289C15.3073 44.4424 18.4652 41.9693 21.9942 40.1355L22.3725 40.8936C18.9357 42.6816 15.861 45.0923 13.3048 48.0033C12.4946 48.8816 11.7462 49.8151 11.0651 50.7969C10.0914 52.1835 9.02204 53.5004 7.86484 54.738C6.32673 56.4129 4.68822 57.9928 2.95832 59.4689C1.50693 60.7351 0.843699 61.308 0.85003 62.093C0.875354 63.717 3.6166 66.2937 16.5335 69.331L16.3357 70.1541Z" fill="#2D2D2D"/>
<path d="M12.8678 106.584H12.8108C12.7557 106.577 12.7025 106.559 12.6544 106.531C12.6064 106.504 12.5643 106.467 12.5306 106.422C12.4969 106.378 12.4723 106.328 12.4581 106.274C12.444 106.221 12.4407 106.165 12.4483 106.11C13.4692 98.5123 14.4141 90.9484 15.2577 83.6012C15.7499 79.8713 15.9794 76.1114 15.9446 72.3493C15.8798 68.3728 15.4917 64.4081 14.7844 60.4944C14.7741 60.44 14.7748 60.3839 14.7863 60.3296C14.7978 60.2754 14.8199 60.224 14.8514 60.1784C14.8829 60.1327 14.9232 60.0938 14.9699 60.0638C15.0165 60.0338 15.0685 60.0134 15.1231 60.0037C15.2298 59.982 15.3408 60.0031 15.4322 60.0622C15.5236 60.1214 15.5884 60.2139 15.6123 60.3202V60.3378C16.3287 64.2962 16.7209 68.3064 16.785 72.3287C16.82 76.1282 16.5889 79.9257 16.0934 83.693C15.2482 91.0449 14.3033 98.6231 13.2808 106.219C13.2678 106.319 13.2188 106.412 13.1429 106.479C13.0669 106.546 12.9692 106.584 12.8678 106.584Z" fill="#2D2D2D"/>
<path d="M57.5783 106.197C57.4826 106.197 57.3898 106.165 57.3152 106.105C57.2405 106.045 57.1888 105.961 57.1685 105.868C55.6743 99.391 54.6564 92.8132 54.1232 86.1876C53.8937 83.2722 53.7862 80.6211 53.6231 76.6072C53.4079 71.3271 53.2716 66.1198 53.2178 61.0518C53.2169 60.9403 53.2604 60.8329 53.3383 60.7531C53.4163 60.6734 53.5226 60.6276 53.6341 60.626C53.7453 60.6264 53.8519 60.6705 53.9309 60.7487C54.0099 60.8268 54.055 60.9328 54.0567 61.0439C54.1121 66.1087 54.2467 71.3019 54.4572 76.4965C54.6155 80.5784 54.7309 83.2231 54.9572 86.1212C55.4886 92.7056 56.5007 99.2425 57.9852 105.679C58.0103 105.789 57.991 105.903 57.9317 105.998C57.8723 106.093 57.7776 106.161 57.6685 106.186C57.6392 106.194 57.6088 106.198 57.5783 106.197Z" fill="#2D2D2D"/>
<path d="M19.8692 88.8375C16.9079 86.7704 17.0202 80.1181 20.0275 76.4017C21.2986 74.889 23.0108 73.8116 24.9246 73.3202C28.9844 72.2122 29.9736 74.8507 35.0542 74.0657C36.8237 73.5885 38.6861 73.5743 40.4625 74.0245C41.2401 74.2249 41.9245 74.6879 42.3998 75.335C42.7015 75.7799 42.8846 76.2944 42.9317 76.8298C42.9787 77.3652 42.8883 77.9038 42.6689 78.3945C42.2621 79.0821 41.6483 79.6233 40.9152 79.9408C39.7286 80.5116 38.4927 80.9736 37.2226 81.321C36.235 81.6376 35.7348 81.7832 35.4167 81.8639C34.9222 81.9535 34.4409 82.105 33.9843 82.315C32.1799 83.1633 31.941 83.969 29.418 86.1278C28.0953 87.5391 26.4581 88.6182 24.6397 89.2775C23.856 89.53 23.0293 89.6212 22.2094 89.5456C21.3896 89.47 20.5935 89.2291 19.8692 88.8375Z" fill="#FF8E93" stroke="#2D2D2D" stroke-width="0.5" stroke-miterlimit="10"/>
<path d="M41.529 79.6416C41.4306 80.2808 41.1934 80.8908 40.8342 81.4286C40.1216 82.3536 39.1359 83.0308 38.0169 83.3642C34.7041 84.7191 34.8371 87.1423 32.034 88.532C29.9981 89.4294 27.6992 89.5282 25.5938 88.809C26.8203 88.0191 27.9917 87.1466 29.0996 86.1975C31.4136 84.2142 31.537 83.5368 33.1087 82.6678C34.5981 81.8464 35.0872 82.1234 37.9662 81.1215C39.1818 80.6984 40.3714 80.2043 41.529 79.6416Z" fill="white" stroke="#2D2D2D" stroke-width="0.5" stroke-miterlimit="10" stroke-linecap="round"/>
<path d="M27.5127 81.5693C27.968 82.4347 28.7182 83.1085 29.6273 83.4687C30.4946 83.7678 31.0185 83.5161 31.8241 83.8421C32.2646 84.0514 32.6592 84.3459 32.9852 84.7086C33.3112 85.0713 33.5622 85.495 33.7235 85.9552C33.2293 87.0385 33.1698 88.2702 33.5573 89.3961C33.8406 90.1621 34.3284 90.8359 34.9675 91.3444" stroke="#2D2D2D" stroke-width="0.5" stroke-miterlimit="10" stroke-linecap="round"/>
<path d="M34.4769 77.0093C33.9908 78.0577 33.8041 79.22 33.9372 80.3679C34.0654 81.3287 34.3804 81.7228 34.4769 82.6471C34.5697 83.8049 34.3098 84.9636 33.7314 85.9709" stroke="#2D2D2D" stroke-width="0.5" stroke-miterlimit="10" stroke-linecap="round"/>
<g style="mix-blend-mode:multiply" opacity="0.5">
<path d="M46.592 76.0595C46.9085 77.484 47.7601 81.3016 45.5173 84.3912C42.4341 88.6377 36.1252 87.8859 35.2816 87.7719C30.6029 87.1388 23.6926 83.4621 23.5691 76.4615C23.5427 74.9498 23.8143 73.4477 24.3684 72.041C24.9225 70.6342 25.7483 69.3504 26.7986 68.2628C27.8488 67.1752 29.1031 66.3051 30.4896 65.7022C31.8761 65.0993 33.3678 64.7755 34.8796 64.7491C42.0875 64.6256 45.6946 72.0488 46.592 76.0595Z" fill="#FF8E93"/>
</g>
</svg>
