<svg width="119" height="122" viewBox="0 0 119 122" fill="none" xmlns="http://www.w3.org/2000/svg">
<path opacity="0.05" d="M43.3738 112.105C28.951 102.217 16.4807 89.7479 6.59117 75.3271C2.41346 71.0508 0.0516923 65.3246 7.16885e-05 59.3469C-0.00741101 56.3808 0.570948 53.4424 1.70202 50.7004C2.83309 47.9584 4.49461 45.4666 6.59117 43.3682C17.143 29.5124 29.5153 17.1426 43.3738 6.59333C47.6498 2.41542 53.3761 0.0528779 59.3545 7.13195e-05C62.321 -0.00739364 65.2598 0.571227 68.002 1.7027C70.7443 2.83418 73.2359 4.49621 75.3338 6.59333C88.9983 17.3628 101.344 29.7064 112.116 43.3682C116.296 47.643 118.659 53.369 118.711 59.3469C118.718 62.3135 118.139 65.2523 117.008 67.9946C115.876 70.737 114.214 73.2288 112.116 75.3271C101.355 88.9994 89.0079 101.345 75.3338 112.105C72.6108 114.784 69.2705 116.753 65.6073 117.837C63.5725 118.428 61.463 118.722 59.3441 118.71C56.6828 118.65 54.0513 118.135 51.5634 117.189C48.5293 116.042 45.7475 114.315 43.3738 112.105Z" fill="url(#paint0_linear_2657_9058)"/>
<path d="M107.5 69C107.5 95.7907 86.0048 117.5 59.5 117.5C32.9952 117.5 11.5 95.7907 11.5 69C11.5 42.2093 32.9952 20.5 59.5 20.5C86.0048 20.5 107.5 42.2093 107.5 69Z" fill="#FACACD" stroke="#050A4E"/>
<path d="M6.90177 98.0334L6.902 98.0339C8.6408 101.822 9.50117 103.697 9.63684 104.023C9.69561 104.165 9.75173 104.3 9.80532 104.428C10.4222 105.911 10.7055 106.592 10.8606 107.302C11.0157 108.011 11.0422 108.748 11.1001 110.353C11.1051 110.492 11.1103 110.638 11.1159 110.791C11.1289 111.145 11.129 111.794 11.129 113.125L11.129 119.83L11.129 119.859C11.1289 119.988 11.1288 120.099 11.1423 120.2C11.2323 120.87 11.7593 121.397 12.4293 121.487C12.537 121.501 12.6573 121.5 12.799 121.5L106.785 121.5L106.814 121.5C106.943 121.5 107.054 121.5 107.155 121.487C107.825 121.397 108.352 120.87 108.442 120.2C108.455 120.099 108.455 119.988 108.455 119.859L108.455 119.83L108.455 114.737C108.455 113.643 108.455 113.111 108.466 112.783C108.499 111.83 108.504 111.177 108.508 110.704C108.509 110.62 108.51 110.542 108.51 110.469C108.515 109.974 108.525 109.744 108.569 109.53C108.612 109.315 108.692 109.099 108.879 108.641C108.907 108.573 108.937 108.501 108.968 108.424C109.148 107.986 109.397 107.382 109.737 106.491L109.27 106.312L109.737 106.491C109.854 106.185 111.157 103.088 113.781 96.8548L113.781 96.8546C113.782 96.8539 113.782 96.8532 113.782 96.8525C118.059 86.6904 117.877 73.4145 116.98 66.6697C114.977 50.4708 108.946 36.4286 99.2049 26.4303C89.4564 16.4242 76.0224 10.5 59.2903 10.5C27.4445 10.5 1.60522 35.6561 1.59672 66.718C1.19043 73.3556 1.90242 87.1418 6.90139 98.0326L6.90177 98.0334Z" stroke="#050A4E"/>
<g style="mix-blend-mode:multiply" opacity="0.703">
<path d="M79.2073 47.2079C79.8284 49.9993 81.4985 57.4995 77.0947 63.568C71.0407 71.9043 58.6529 70.4291 56.999 70.2052C47.8087 68.9684 34.249 61.7426 34.0034 47.9969C33.8995 42.0028 36.181 36.2129 40.3458 31.9008C44.5106 27.5887 50.2176 25.1076 56.2117 25.0032C70.3691 24.754 77.4523 39.3284 79.2073 47.2079Z" fill="#FF8E93"/>
</g>
<path d="M83.6002 38.4751C84.5992 41.6246 84.9363 44.9465 84.5903 48.2325L83.6002 38.4751Z" fill="white"/>
<path d="M84.1795 48.3952C84.1529 48.3276 84.1428 48.2546 84.1499 48.1823C84.4903 44.9576 84.162 41.6973 83.1853 38.6052C83.1675 38.5494 83.1608 38.4906 83.1657 38.4322C83.1707 38.3739 83.187 38.317 83.2139 38.265C83.2408 38.213 83.2778 38.167 83.3225 38.1293C83.3673 38.0915 83.419 38.0627 83.4748 38.045C83.5304 38.0252 83.5896 38.0173 83.6485 38.0214C83.7073 38.0255 83.7647 38.0415 83.8171 38.0687C83.8695 38.0959 83.9158 38.1339 83.953 38.1797C83.9902 38.2255 84.0176 38.2784 84.0334 38.3353C85.0494 41.5436 85.3928 44.9268 85.0423 48.2739C85.0297 48.3709 84.9856 48.461 84.9167 48.5305C84.8478 48.6 84.7581 48.6451 84.6611 48.6584C84.5642 48.6717 84.4655 48.6526 84.3804 48.6042C84.2954 48.5559 84.2286 48.4809 84.1904 48.3908L84.1795 48.3952Z" fill="#050A4E"/>
<path d="M86.835 46.066C86.8099 46.0045 86.7992 45.938 86.8039 45.8718C86.8794 44.7164 86.8317 43.5562 86.6617 42.4108C86.5018 41.3403 86.2371 40.2883 85.8711 39.2696C85.8317 39.1586 85.8377 39.0364 85.8879 38.9298C85.938 38.8232 86.0282 38.7406 86.1389 38.7001C86.1936 38.6766 86.2528 38.665 86.3124 38.6661C86.3721 38.6671 86.4307 38.6808 86.4847 38.7063C86.5386 38.7317 86.5864 38.7683 86.625 38.8137C86.6637 38.8591 86.6923 38.9124 86.7089 38.9696C87.5138 41.1973 87.8485 43.5672 87.6921 45.9307C87.6857 46.0317 87.6451 46.1276 87.577 46.2025C87.5088 46.2773 87.4172 46.3268 87.3172 46.3426C87.2173 46.3584 87.1149 46.3398 87.027 46.2896C86.9391 46.2395 86.8708 46.1607 86.8335 46.0666L86.835 46.066Z" fill="#050A4E"/>
<path d="M33.5551 47.3945C33.3098 44.0995 33.7484 40.7895 34.8434 37.672L33.5551 47.3945Z" fill="white"/>
<path d="M35.2806 37.6085C35.2909 37.6804 35.2839 37.7538 35.2603 37.8225C34.1849 40.8816 33.752 44.1297 33.9888 47.3637C33.9932 47.4221 33.9861 47.4809 33.9679 47.5365C33.9497 47.5922 33.9206 47.6437 33.8825 47.6881C33.8443 47.7325 33.7977 47.7687 33.7454 47.7951C33.6932 47.8215 33.6362 47.8376 33.5779 47.842C33.5192 47.8484 33.4598 47.8424 33.4034 47.8249C33.3471 47.8073 33.2949 47.7784 33.2502 47.7399C33.2055 47.7013 33.1692 47.6537 33.1436 47.6006C33.118 47.5474 33.1036 47.4896 33.1013 47.4306C32.8531 44.0744 33.2997 40.7033 34.4132 37.5275C34.4478 37.4359 34.5115 37.3584 34.5946 37.3067C34.6776 37.2551 34.7754 37.2318 34.8728 37.2412C34.9701 37.2506 35.0617 37.2921 35.1334 37.3587C35.205 37.4254 35.2527 37.5138 35.2691 37.6103L35.2806 37.6085Z" fill="#050A4E"/>
<path d="M32.1594 39.2622C32.1696 39.3278 32.1646 39.3949 32.1449 39.4583C31.8047 40.5651 31.5834 41.705 31.4845 42.8586C31.393 43.9372 31.4078 45.0219 31.5289 46.0975C31.5415 46.2146 31.5075 46.3321 31.4341 46.4243C31.3607 46.5164 31.2539 46.576 31.1369 46.5898C31.0782 46.6001 31.0179 46.5977 30.9602 46.5829C30.9024 46.5681 30.8484 46.5413 30.8019 46.5041C30.7553 46.4668 30.7172 46.4202 30.6901 46.3672C30.6629 46.3141 30.6473 46.2556 30.6444 46.1961C30.3753 43.8428 30.5966 41.4596 31.2941 39.196C31.3237 39.0992 31.3853 39.0152 31.4689 38.9581C31.5525 38.901 31.653 38.874 31.754 38.8817C31.8549 38.8894 31.9502 38.9312 32.0242 39.0003C32.0982 39.0693 32.1464 39.1617 32.161 39.2619L32.1594 39.2622Z" fill="#050A4E"/>
<path d="M38.7296 118.308L38.9037 119.638C38.9037 119.638 44.2499 120.803 61.4999 120.5C78.7499 120.197 80.116 118.407 80.116 118.407C80.116 118.407 82.3106 98.78 77.8786 92.0323C73.4466 85.2847 39.0563 110.245 38.7296 118.308Z" fill="white"/>
<path d="M41.653 112.6L62.2578 105.231L74.9737 90.8892L68.6422 76.8036C68.6422 76.8036 63.5544 66.1247 63.813 63.4345C64.0715 60.7443 53.0697 65.0577 53.0697 65.0577C53.0697 65.0577 55.432 67.6899 51.8274 69.7054C48.2228 71.7209 45.8428 87.9833 45.8428 87.9833L41.653 112.6Z" fill="white"/>
<path d="M53.4194 62.6472C54.2982 67.7751 54.1804 73.0242 53.0725 78.1075L65.9851 77.5286C65.6408 75.5195 64.6999 69.7884 64.5649 67.4059C64.2837 62.4593 65.3343 61.6041 65.9271 58.0146L53.4194 62.6472Z" fill="white"/>
<path d="M48.2267 50.3994C48.0097 50.4196 45.771 50.6517 45.1921 52.0743C44.5817 53.5689 45.8518 56.2667 48.938 57.4674C48.2308 55.1844 47.9889 52.7826 48.2267 50.4044V50.3994Z" fill="white" stroke="#050A4E" stroke-miterlimit="10" stroke-linecap="round"/>
<path d="M68.9166 49.4971C69.1335 49.4971 71.3798 49.5677 72.047 50.9438C72.747 52.3917 71.6484 55.1765 68.6416 56.6029C69.2055 54.2762 69.2981 51.8601 68.914 49.4971H68.9166Z" fill="white" stroke="#050A4E" stroke-miterlimit="10" stroke-linecap="round"/>
<path d="M59.0669 67.3847C65.0395 67.2336 69.7054 60.1644 69.4887 51.5952C69.2719 43.0261 64.2545 36.2018 58.282 36.3529C52.3095 36.504 47.6435 43.5732 47.8603 52.1423C48.077 60.7115 53.0944 67.5357 59.0669 67.3847Z" fill="white" stroke="#050A4E" stroke-miterlimit="10" stroke-linecap="round"/>
<path d="M62.2342 30.4954C59.0776 29.62 55.7113 29.9115 52.7522 31.3164C51.109 32.0584 49.6353 33.1291 48.4219 34.4624C47.2084 35.7958 46.281 37.3637 45.6968 39.0692C43.9853 44.6591 46.6364 50.7534 47.9368 50.6928C49.0958 50.6386 48.4412 45.7072 51.5628 43.6665C53.6792 42.2791 54.9001 43.9313 58.7418 42.6032C61.7133 41.5741 62.4485 40.0807 64.2004 40.5146C65.8299 40.917 66.786 42.5995 67.515 43.8796C69.3955 47.1854 68.9023 49.8806 69.5002 49.9588C70.4247 50.085 73.7884 43.8065 71.7578 38.1031C69.7385 32.4263 63.6354 30.8561 62.2342 30.4954Z" fill="#050A4E" stroke="#050A4E" stroke-miterlimit="10"/>
<path d="M72.7617 93.9961C72.5649 97.9778 72.5283 102.354 72.7617 107.065C72.9748 111.353 73.3822 115.348 73.8968 118.996C73.072 120.168 72.3247 119.829 71.4999 121L67.6511 101.59L72.7617 93.9961Z" fill="white"/>
<path d="M39.2933 121.374C39.7499 108.607 39.9127 104.901 39.9972 102.814C40.0211 102.206 40.0778 100.882 40.3112 99.1564C40.4651 98.0112 40.6417 97.0956 40.7527 96.5596C38.476 97.3222 36.0137 97.3274 33.7338 96.5747C32.6731 96.1963 30.4433 95.408 30.0523 93.7457C29.8 92.685 30.4849 92.0317 31.5405 89.682C32.2673 88.1992 32.8135 86.6346 33.1675 85.0217C34.1097 80.9618 34.715 78.742 35.0102 77.7393C35.7947 75.0605 39.2732 71.9287 51.1087 69.9284C51.817 69.8109 52.4608 69.4461 52.9256 68.8989C53.3904 68.3516 53.6462 67.6573 53.6476 66.9393C53.6402 66.4022 53.5814 65.8672 53.4722 65.3413" fill="white"/>
<path d="M39.2933 121.374C39.7499 108.607 39.9127 104.901 39.9972 102.814C40.0211 102.206 40.0778 100.882 40.3112 99.1564C40.4651 98.0112 40.6417 97.0956 40.7527 96.5596C38.476 97.3222 36.0137 97.3274 33.7338 96.5747C32.6731 96.1963 30.4433 95.408 30.0523 93.7457C29.8 92.685 30.4849 92.0317 31.5405 89.682C32.2673 88.1992 32.8135 86.6346 33.1675 85.0217C34.1097 80.9618 34.715 78.742 35.0102 77.7393C35.7947 75.0605 39.2732 71.9287 51.1087 69.9284C51.817 69.8109 52.4608 69.4461 52.9256 68.8989C53.3904 68.3516 53.6462 67.6573 53.6476 66.9393C53.6402 66.4022 53.5814 65.8672 53.4722 65.3413" stroke="#050A4E" stroke-miterlimit="10" stroke-linecap="round"/>
<path d="M34.9999 110.5L35.4999 110H35.9999L38.9999 110.5V112V113.5V116.5L37.9999 116L35.4999 114.5L34.9999 110.5Z" fill="white"/>
<path d="M36.0687 97.3877C35.5195 100.002 35.135 102.647 34.9173 105.31C34.4526 109.675 34.611 114.083 35.3877 118.404" fill="white"/>
<path d="M36.0687 97.3877C35.5195 100.002 35.135 102.647 34.9173 105.31C34.4526 109.675 34.611 114.083 35.3877 118.404" stroke="#050A4E" stroke-miterlimit="10" stroke-linecap="round"/>
<path d="M79.2975 95.0542C80.9141 102.738 81.0976 110.655 79.8387 118.406L79.2975 95.0542Z" fill="white"/>
<path d="M79.2975 95.0542C80.9141 102.738 81.0976 110.655 79.8387 118.406" stroke="#050A4E" stroke-miterlimit="10" stroke-linecap="round"/>
<path d="M64.5509 65.0537C64.459 65.6647 64.4352 66.284 64.4803 66.9002C64.541 67.5668 64.8066 68.1982 65.2407 68.7076C65.6748 69.2171 66.2559 69.5798 66.9044 69.7456C73.2522 71.4091 77.6552 73.2405 78.4851 74.0868C78.9076 74.5169 79.2722 74.9696 79.2722 74.9696C79.7263 75.5501 80.1329 76.1663 80.488 76.8123C81.3152 78.6873 81.9852 80.6279 82.4908 82.614C83.1223 84.5504 83.8877 86.4405 84.7813 88.2707C86.117 91.1173 86.8132 91.9422 86.397 92.8944C86.1624 93.4317 85.6326 93.8782 82.7153 94.6904C80.7675 95.2337 78.7878 95.6549 76.7875 95.9517C76.69 98.2042 76.6101 100.477 76.5478 102.769C76.3208 111.07 76.2098 112.942 76.4217 120.75" fill="white"/>
<path d="M64.5509 65.0537C64.459 65.6647 64.4352 66.284 64.4803 66.9002C64.541 67.5668 64.8066 68.1982 65.2407 68.7076C65.6748 69.2171 66.2559 69.5798 66.9044 69.7456C73.2522 71.4091 77.6552 73.2405 78.4851 74.0868C78.9076 74.5169 79.2722 74.9696 79.2722 74.9696C79.7263 75.5501 80.1329 76.1663 80.488 76.8123C81.3152 78.6873 81.9852 80.6279 82.4908 82.614C83.1223 84.5504 83.8877 86.4404 84.7813 88.2707C86.117 91.1173 86.8132 91.9422 86.397 92.8944C86.1624 93.4317 85.6326 93.8782 82.7153 94.6904C80.7675 95.2337 78.7878 95.6549 76.7875 95.9517C76.69 98.2042 76.6101 100.477 76.5478 102.769C76.3208 111.07 76.2098 112.942 76.4217 120.75" stroke="#050A4E" stroke-miterlimit="10" stroke-linecap="round"/>
<defs>
<linearGradient id="paint0_linear_2657_9058" x1="59.3553" y1="0" x2="59.3553" y2="118.711" gradientUnits="userSpaceOnUse">
<stop stop-color="#1778F2"/>
<stop offset="1" stop-color="#F40009"/>
</linearGradient>
</defs>
</svg>
