<?xml version="1.0" encoding="UTF-8"?>
<svg xmlns="http://www.w3.org/2000/svg" xmlns:xlink="http://www.w3.org/1999/xlink" width="1460pt" height="860pt" viewBox="0 0 1460 860" version="1.1">
<defs>
<linearGradient id="linear0" gradientUnits="userSpaceOnUse" x1="0.01" y1="0.016" x2="1.013" y2="1.032" gradientTransform="matrix(1460.19989,0,0,716.117188,0,62.414063)">
<stop offset="0" style="stop-color:rgb(9.019608%,47.058824%,94.901961%);stop-opacity:1;"/>
<stop offset="1" style="stop-color:rgb(95.686275%,0%,3.529412%);stop-opacity:1;"/>
</linearGradient>
</defs>
<g id="surface1">
<path style=" stroke:none;fill-rule:nonzero;fill:url(#linear0);" d="M 0 124.570312 C 0 124.570312 88.578125 55.183594 325.953125 63.023438 C 563.332031 70.863281 665.953125 140.539062 949.511719 155.925781 C 1233.070312 171.3125 1460.199219 124.570312 1460.199219 124.570312 L 1460.199219 723.898438 C 1460.199219 723.898438 1245.546875 787.761719 973.6875 777.4375 C 701.832031 767.113281 616.191406 710.667969 372.769531 706.089844 C 129.347656 701.515625 0 747.390625 0 747.390625 Z M 0 124.570312 "/>
<path style=" stroke:none;fill-rule:nonzero;fill:rgb(95.686275%,0%,3.529412%);fill-opacity:1;" d="M 1428.546875 73.578125 C 1402.773438 93.863281 1371.515625 110.320312 1335.632812 122.488281 C 1290.769531 137.703125 1238.515625 146.21875 1180.324219 147.804688 C 1171.378906 148.046875 1162.546875 148.148438 1153.824219 148.109375 C 1152.613281 148.226562 1151.398438 148.339844 1150.191406 148.453125 C 1152.492188 148.472656 1154.789062 148.5 1157.105469 148.5 C 1164.761719 148.5 1172.503906 148.394531 1180.335938 148.183594 C 1238.574219 146.597656 1290.875 138.070312 1335.777344 122.839844 C 1371.703125 110.652344 1403.003906 94.171875 1428.808594 73.851562 C 1440.199219 64.9375 1450.714844 54.953125 1460.199219 44.035156 L 1460.199219 43.449219 C 1450.648438 54.492188 1440.046875 64.582031 1428.546875 73.578125 Z M 1428.546875 73.578125 "/>
<path style=" stroke:none;fill-rule:nonzero;fill:rgb(95.686275%,0%,3.529412%);fill-opacity:1;" d="M 262.132812 36.84375 C 329.460938 31 397.097656 29.589844 464.609375 32.625 C 609.992188 39.019531 721.300781 67.632812 828.941406 95.296875 C 932.03125 121.792969 1029.902344 146.945312 1146.257812 148.429688 C 1147.515625 148.316406 1148.777344 148.207031 1150.039062 148.089844 C 1032.0625 147.113281 933.214844 121.703125 829.039062 94.925781 C 721.375 67.253906 610.046875 38.644531 464.628906 32.242188 C 397.09375 29.207031 329.4375 30.617188 262.089844 36.464844 C 210.777344 40.914062 159.765625 48.316406 109.304688 58.640625 C 58.546875 69.132812 21.328125 80.324219 0 87.464844 L 0 87.867188 C 21.292969 80.734375 58.546875 69.523438 109.394531 59.011719 C 159.839844 48.691406 210.835938 41.289062 262.132812 36.84375 Z M 262.132812 36.84375 "/>
<path style=" stroke:none;fill-rule:nonzero;fill:rgb(9.019608%,47.058824%,94.901961%);fill-opacity:1;" d="M 260.78125 132.011719 C 327.15625 118.980469 394.320312 110.328125 461.828125 106.109375 C 607.148438 96.898438 720.847656 113.433594 830.800781 129.425781 C 910.398438 141.003906 986.9375 152.136719 1069.640625 152.136719 C 1095.773438 152.136719 1122.535156 151.015625 1150.191406 148.453125 C 1148.878906 148.445312 1147.558594 148.445312 1146.253906 148.429688 C 1032.789062 158.414062 934.398438 144.109375 830.855469 129.050781 C 720.886719 113.054688 607.167969 96.515625 461.804688 105.730469 C 394.277344 109.949219 327.097656 118.605469 260.703125 131.636719 C 210.097656 141.566406 160.097656 154.398438 110.957031 170.074219 C 57.078125 187.390625 19.292969 203.800781 0 212.867188 L 0 213.289062 C 19.226562 204.242188 57.054688 187.792969 111.074219 170.441406 C 160.203125 154.769531 210.1875 141.9375 260.78125 132.011719 Z M 260.78125 132.011719 "/>
<path style=" stroke:none;fill-rule:nonzero;fill:rgb(9.019608%,47.058824%,94.901961%);fill-opacity:1;" d="M 1425.214844 43.535156 C 1401.660156 66.488281 1372.25 86.214844 1337.792969 102.175781 C 1294.714844 122.125 1243.597656 136.203125 1185.84375 144.015625 C 1173.730469 145.65625 1161.796875 147.011719 1150.042969 148.089844 C 1151.300781 148.101562 1152.5625 148.105469 1153.828125 148.109375 C 1164.382812 147.085938 1175.070312 145.847656 1185.894531 144.394531 C 1243.683594 136.574219 1294.839844 122.488281 1337.953125 102.519531 C 1372.445312 86.542969 1401.898438 66.792969 1425.484375 43.808594 C 1438.8125 30.960938 1450.480469 16.488281 1460.203125 0.726562 L 1460.203125 0 C 1450.4375 15.9375 1438.675781 30.570312 1425.214844 43.535156 Z M 1425.214844 43.535156 "/>
<path style=" stroke:none;fill-rule:nonzero;fill:rgb(9.019608%,47.058824%,94.901961%);fill-opacity:1;" d="M 1150.039062 148.089844 C 1148.777344 148.207031 1147.515625 148.320312 1146.257812 148.429688 C 1147.5625 148.445312 1148.882812 148.445312 1150.191406 148.453125 C 1151.398438 148.34375 1152.609375 148.226562 1153.824219 148.109375 C 1152.5625 148.105469 1151.300781 148.101562 1150.039062 148.089844 Z M 1150.039062 148.089844 "/>
<path style=" stroke:none;fill-rule:nonzero;fill:rgb(95.686275%,0%,3.529412%);fill-opacity:1;" d="M 1428.546875 720.480469 C 1402.773438 740.765625 1371.515625 757.222656 1335.632812 769.390625 C 1290.769531 784.605469 1238.515625 793.121094 1180.324219 794.707031 C 1171.378906 794.949219 1162.546875 795.050781 1153.824219 795.011719 C 1152.613281 795.128906 1151.398438 795.242188 1150.191406 795.355469 C 1152.492188 795.375 1154.789062 795.402344 1157.105469 795.402344 C 1164.761719 795.402344 1172.503906 795.296875 1180.335938 795.085938 C 1238.574219 793.5 1290.875 784.972656 1335.777344 769.742188 C 1371.703125 757.554688 1403.003906 741.074219 1428.808594 720.757812 C 1440.199219 711.84375 1450.714844 701.855469 1460.199219 690.9375 L 1460.199219 690.351562 C 1450.648438 701.394531 1440.046875 711.484375 1428.546875 720.480469 Z M 1428.546875 720.480469 "/>
<path style=" stroke:none;fill-rule:nonzero;fill:rgb(95.686275%,0%,3.529412%);fill-opacity:1;" d="M 262.132812 683.746094 C 329.460938 677.902344 397.097656 676.492188 464.609375 679.527344 C 609.992188 685.921875 721.300781 714.535156 828.941406 742.199219 C 932.03125 768.695312 1029.902344 793.847656 1146.257812 795.332031 C 1147.515625 795.21875 1148.777344 795.109375 1150.039062 794.992188 C 1032.0625 794.015625 933.214844 768.605469 829.039062 741.828125 C 721.375 714.160156 610.046875 685.546875 464.628906 679.144531 C 397.09375 676.109375 329.4375 677.519531 262.089844 683.367188 C 210.777344 687.816406 159.765625 695.21875 109.304688 705.542969 C 58.546875 716.035156 21.328125 727.226562 0 734.371094 L 0 734.769531 C 21.292969 727.636719 58.546875 716.425781 109.394531 705.914062 C 159.839844 695.59375 210.835938 688.191406 262.132812 683.746094 Z M 262.132812 683.746094 "/>
<path style=" stroke:none;fill-rule:nonzero;fill:rgb(9.019608%,47.058824%,94.901961%);fill-opacity:1;" d="M 260.78125 778.914062 C 327.15625 765.882812 394.320312 757.230469 461.828125 753.011719 C 607.148438 743.800781 720.847656 760.335938 830.800781 776.328125 C 910.398438 787.90625 986.9375 799.039062 1069.640625 799.039062 C 1095.773438 799.039062 1122.535156 797.917969 1150.191406 795.359375 C 1148.878906 795.347656 1147.558594 795.347656 1146.253906 795.332031 C 1032.789062 805.316406 934.398438 791.011719 830.855469 775.953125 C 720.886719 759.957031 607.167969 743.417969 461.804688 752.632812 C 394.277344 756.851562 327.097656 765.507812 260.703125 778.539062 C 210.097656 788.46875 160.097656 801.300781 110.957031 816.976562 C 57.078125 834.292969 19.292969 850.703125 0 859.769531 L 0 860.191406 C 19.226562 851.148438 57.054688 834.695312 111.074219 817.34375 C 160.203125 801.671875 210.1875 788.839844 260.78125 778.914062 Z M 260.78125 778.914062 "/>
<path style=" stroke:none;fill-rule:nonzero;fill:rgb(9.019608%,47.058824%,94.901961%);fill-opacity:1;" d="M 1425.214844 690.4375 C 1401.660156 713.390625 1372.25 733.117188 1337.792969 749.078125 C 1294.714844 769.027344 1243.597656 783.105469 1185.84375 790.917969 C 1173.730469 792.558594 1161.796875 793.914062 1150.042969 794.992188 C 1151.300781 795.003906 1152.5625 795.007812 1153.828125 795.011719 C 1164.382812 793.988281 1175.070312 792.75 1185.894531 791.296875 C 1243.683594 783.476562 1294.839844 769.390625 1337.953125 749.421875 C 1372.445312 733.449219 1401.898438 713.695312 1425.484375 690.710938 C 1438.8125 677.863281 1450.480469 663.390625 1460.203125 647.628906 L 1460.203125 646.902344 C 1450.4375 662.84375 1438.675781 677.472656 1425.214844 690.4375 Z M 1425.214844 690.4375 "/>
<path style=" stroke:none;fill-rule:nonzero;fill:rgb(9.019608%,47.058824%,94.901961%);fill-opacity:1;" d="M 1150.039062 794.992188 C 1148.777344 795.109375 1147.515625 795.222656 1146.257812 795.332031 C 1147.5625 795.347656 1148.882812 795.347656 1150.191406 795.355469 C 1151.398438 795.246094 1152.609375 795.128906 1153.824219 795.011719 C 1152.5625 795.007812 1151.300781 795.003906 1150.039062 794.992188 Z M 1150.039062 794.992188 "/>
</g>
</svg>
