<svg xmlns="http://www.w3.org/2000/svg" width="99.491" height="85.802" viewBox="0 0 99.491 85.802">
    <defs>
        <style>
            .cls-1,.cls-4{fill:#fff}.cls-1,.cls-4,.cls-5{stroke:#2d2d2d}.cls-1,.cls-5{stroke-linecap:round}.cls-1,.cls-4,.cls-5{stroke-miterlimit:10}.cls-5{fill:#f40009}
        </style>
    </defs>
    <g id="Group_125355" transform="translate(-241.444 -26.035)">
        <path id="Path_229008" d="M324.7 109.556q-18.3.266-37.071.269-18.565 0-36.674-.269a8.889 8.889 0 0 1-6.308-2.613 9.132 9.132 0 0 1-1.684-2.342 9.28 9.28 0 0 1-.927-3.965c-.476-20.438-.264-27.088-.264-27.088.234-7.373.029-24.1.264-35.946a8.547 8.547 0 0 1 1.149-4.385c1.769-2.925 5.23-4.054 7.77-4.536H324.7a8.921 8.921 0 0 1 8.921 8.921q.5 15.938.5 32.808-.02 15.5-.5 30.227a8.89 8.89 0 0 1-2.613 6.308 9.716 9.716 0 0 1-6.308 2.611z" class="cls-1" transform="translate(3.344 1.512)"/>
        <path id="Path_229009" d="M275.483 96.374q-6.664.166-13.679.159-6.183-.008-12.093-.159c.009-.909 0-1.6 0-1.935-.043-6.036-.677-35.16 0-42.4a4.676 4.676 0 0 1 1.335-3.051 6.682 6.682 0 0 1 4.018-1.568h15.066c2.956 0 5.353 2.07 5.353 4.62.372 6.926.585 14.148.595 21.64.008 7.872-.207 15.444-.595 22.694z" class="cls-1" transform="translate(8.753 14.719)"/>
        <path id="Path_229010" fill="#1778f2" stroke="#2d2d2d" stroke-linecap="round" stroke-miterlimit="10" d="M333.569 49.7q-21.411.54-43.721.563-23.129.01-45.307-.563a4.486 4.486 0 0 1-3.195-1.389 4.847 4.847 0 0 1-1.323-3.352c-.083-2.071-.131-4.224-.131-6.458s.048-4.376.131-6.441a5.464 5.464 0 0 1 1.323-3.353 4.4 4.4 0 0 1 3.195-1.389q21.725-.765 44.778-.784 22.761.005 44.25.784a4.491 4.491 0 0 1 3.193 1.389 4.844 4.844 0 0 1 1.323 3.353c.181 1.94.295 4.073.3 6.372 0 2.358-.114 4.543-.3 6.526a5.126 5.126 0 0 1-.806 2.705 4.507 4.507 0 0 1-.517.646 5.016 5.016 0 0 1-3.193 1.391z" transform="translate(2.052 0)"/>
        <g id="Group_125352" transform="translate(302.262 61.102)">
            <path id="Path_38819" d="M290.732 65.372c-.155 10.061.043 12.653-.639 14.247a4.009 4.009 0 0 1-.54.909c-.8 1.064-2 1.725-6.9 1.63-4.463-.084-5.586-.675-6.352-1.722a4.962 4.962 0 0 1-.646-1.185c-.5-1.34-.413-3.04-.293-6.71 2.046-2.278 3.326-2.525 4.156-2.175 1.26.527 2.24 2.75 3.07 2.308a.777.777 0 0 0 .2-.176 5.939 5.939 0 0 0 1.112-3.568c.266-2.388.251-4.412-.794-5.631-.251-.285-.731-.735-3.536-1.026a29.709 29.709 0 0 0-4.085-.143c-.048-5.334-.109-8.256 1.584-9.843 1.27-1.2 2.375-.561 3.184-2.015a4.21 4.21 0 0 0 .252-.576q1.394.013 2.811.009 1.473 0 2.922-.026a3.979 3.979 0 0 0 .324.919c.648 1.362 1.463 1.084 2.533 2.255 1.966 2.081 1.751 5.647 1.637 12.519z" class="cls-4" transform="translate(-275.274 -44.792)"/>
            <path id="Path_38820" d="M284.471 63.076c-.061 2.308-.1 3.478-.595 4.093-.629.789-1.481.685-4.763.489-1.7-.1-3.038-.169-3.785-.2.063-1.9.143-4.311.15-7.468 0-1.045 0-2.027-.026-2.944 1.3-.068 2.91-.126 4.765-.143 2.532-.02 3.132.063 3.633.656.75.884.705 2.428.621 5.517z" class="cls-5" transform="translate(-275.236 -39.706)"/>
            <path id="Path_38821" d="M278.479 51.712a11.63 11.63 0 0 1-.309-2.414c-.024-1.088-.036-1.631.3-2.024.159-.188.494-.472 3.012-.462 2.337.009 2.656.259 2.821.445.4.459.372 1.1.319 2.192a8.835 8.835 0 0 1-.407 2.245z" class="cls-5" transform="translate(-273.241 -46.812)"/>
            <path id="Path_38822" d="M288.816 67.761a12.328 12.328 0 0 1-.44 3.691h-.087c-1.66.012-3.188-.063-4.576-.174a3.262 3.262 0 1 1-.017-6.461c1.289-.118 2.728-.2 4.281-.215.114 0 .22 0 .336.009a12.18 12.18 0 0 1 .503 3.15z" class="cls-4" transform="translate(-271.949 -34.274)"/>
            <path id="Path_38823" d="M292.732 68.008a3.5 3.5 0 0 1-3.7 3.239c-1.253.111-2.622.193-4.1.2a12.513 12.513 0 0 0-.063-6.834c1.5 0 2.886.072 4.141.184a3.5 3.5 0 0 1 3.722 3.211z" class="cls-5" transform="translate(-268.511 -34.269)"/>
        </g>
        <text id="Pharmacy" fill="#fff" font-family="Nunito-Bold, Nunito" font-size="12px" font-weight="700" transform="translate(263.767 42.191)">
            <tspan x="0" y="0">Pharmacy</tspan>
        </text>
    </g>
</svg>
