<svg width="98" height="111" viewBox="0 0 98 111" fill="none" xmlns="http://www.w3.org/2000/svg">
<path d="M11.4309 57.1086C10.5724 66.358 13.1182 75.6028 18.5907 83.1089L23.2508 65.5698L11.4309 57.1086Z" fill="white"/>
<path d="M18.7697 84.0697L18.2494 83.3546C12.7165 75.7672 10.1418 66.4219 11.0084 57.0714L11.0745 56.3376L23.7264 65.397L18.7697 84.0697ZM11.7896 57.8831C11.1589 66.4861 13.4969 75.0452 18.4138 82.1328L22.7689 65.7427L11.7896 57.8831Z" fill="#050A4E"/>
<path d="M47.6904 94.5107C48.1423 98.8749 48.5897 103.239 49.0325 107.603L79.049 104.18L82.3382 99.6182C82.9067 96.4675 82.5336 93.2191 81.2655 90.2793L47.6904 94.5107Z" fill="white"/>
<path d="M19.6223 86.4811L18.0107 99.5634L45.4073 101.15L41.042 85.9524L19.6223 86.4811Z" fill="white"/>
<path d="M51.5505 64.6443C51.7417 70.088 51.2337 75.5337 50.0389 80.848C45.96 92.8932 46.7564 102.369 51.1471 104.683C54.8973 106.665 60.5979 103.074 63.233 101.412C73.0735 95.2114 76.4408 84.7388 77.5863 80.1532C74.2214 75.9114 72.2355 70.7411 71.8958 65.3374L51.5505 64.6443Z" fill="white"/>
<path d="M75.8612 49.3069C70.6266 48.7341 62.535 47.6496 56.3565 43.1318C54.1219 41.5246 52.2415 39.4752 50.8321 37.1109C49.3205 34.7173 48.4138 31.992 48.1902 29.17C47.6445 20.4208 54.3687 10.7988 63.0196 9.50077C65.4208 9.13123 67.8772 9.40669 70.1369 10.2989C72.3534 11.1937 76.1341 13.4339 81.5382 28.121C85.5239 38.9664 88.0082 45.7177 84.9189 48.6257C84.6156 48.912 83.8157 49.5679 80.8518 49.6136" fill="#050A4E"/>
<path d="M79.6535 50.1928L79.3485 49.3929C81.1644 49.433 82.9666 49.0701 84.6255 48.3304C87.5064 45.6191 84.9797 38.7322 81.1516 28.3138C75.49 12.9252 71.6245 11.3678 69.9672 10.7002C67.7791 9.83339 65.3991 9.5672 63.0736 9.92913C54.9497 11.1492 48.0527 20.3136 48.6034 29.156C48.8217 31.9107 49.7082 34.5706 51.1861 36.9054C52.5691 39.2198 54.411 41.2267 56.5986 42.8026C63.0058 47.4882 71.7161 48.4406 75.9017 48.9032L75.8102 49.7386C71.55 49.2726 62.6889 48.305 56.1004 43.4856C53.8214 41.8429 51.9028 39.7512 50.4625 37.3393C48.9146 34.8879 47.9885 32.0957 47.7646 29.2052C47.1884 19.9595 54.4278 10.3714 62.9499 9.092C65.424 8.71169 67.9548 8.99653 70.2825 9.91727C73.1802 11.0882 76.8304 14.1538 81.9209 27.9834C86.0185 39.1355 88.4824 45.8444 85.1949 48.9405C83.4932 49.8463 81.5794 50.2788 79.6535 50.1928Z" fill="#050A4E"/>
<path d="M51.0646 73.3006C49.77 71.9363 48.6179 70.4436 47.6262 68.8455C45.8786 66.2274 44.6966 63.2735 44.1557 60.1725C43.6327 56.933 43.8947 53.6153 44.92 50.4981C45.3995 48.6128 46.5427 46.9637 48.1397 45.8532C48.3092 45.7413 48.4532 45.6668 48.5786 45.599C50.2232 44.7853 52.0293 44.3505 53.8641 44.3263C55.3265 44.1755 58.8072 43.818 60.412 41.7014C61.1649 40.5989 61.4874 39.2586 61.3186 37.9343L67.9666 38.48C67.8326 39.8326 68.119 41.1936 68.7866 42.3776C70.1711 44.7195 73.1029 45.843 76.426 47.1106C76.8338 47.2307 77.2306 47.3855 77.6121 47.5732C80.5167 49.3695 79.8795 55.2379 79.4389 58.9101C78.7282 64.6117 77.0419 70.1485 74.4535 75.2782" fill="white"/>
<path d="M74.8414 75.458L74.0873 75.0852C76.6493 69.9966 78.3218 64.5071 79.0321 58.8543C79.4185 55.6244 80.1353 49.6137 77.4019 47.9242C77.3051 47.8634 77.1993 47.8182 77.0884 47.7903C76.9342 47.7378 76.7003 47.6564 76.2817 47.4971C72.9976 46.2465 69.8948 45.0654 68.429 42.5828C67.7879 41.4513 67.4779 40.1624 67.5342 38.8632L61.7727 38.3921C61.8552 39.6601 61.4959 40.9177 60.7558 41.9507C59.0375 44.2147 55.445 44.5875 53.9198 44.7417L53.2928 44.7993C51.7251 44.8487 50.1882 45.247 48.7937 45.9652C48.6599 46.0381 48.5362 46.1042 48.3836 46.2042C46.8621 47.2592 45.7775 48.833 45.3333 50.6304C44.331 53.6824 44.0748 56.9302 44.586 60.1016C45.1154 63.148 46.2782 66.0495 47.999 68.6186C48.9769 70.1923 50.1125 71.6623 51.3882 73.0059L50.778 73.5855C49.4643 72.1998 48.2952 70.6837 47.2889 69.0609C45.5069 66.3983 44.3043 63.3909 43.7591 60.2337C43.2275 56.9276 43.4954 53.5423 44.5403 50.361C45.0406 48.381 46.2456 46.6513 47.9295 45.4958C48.0989 45.384 48.2463 45.306 48.3717 45.2382C49.8739 44.4539 51.5331 44.0173 53.2268 43.9605C53.4403 43.9436 53.6436 43.9266 53.8368 43.9046C55.2619 43.7572 58.5987 43.4132 60.0916 41.444C60.7895 40.4268 61.0792 39.1843 60.9033 37.9633L60.8626 37.4685L68.4171 38.0887L68.3918 38.4988C68.2716 39.7646 68.5374 41.0372 69.1543 42.149C70.4693 44.374 73.3009 45.4534 76.5817 46.7024C76.985 46.8549 77.2121 46.9328 77.3612 46.9837C77.5322 47.0328 77.6953 47.1059 77.8459 47.2006C81.0368 49.1731 80.3065 55.2906 79.871 58.9458C79.1484 64.6965 77.4473 70.2811 74.8414 75.458Z" fill="#050A4E"/>
<path d="M81.5481 103.685C81.5104 103.684 81.4728 103.679 81.4362 103.67C81.329 103.639 81.2382 103.568 81.1836 103.471C81.129 103.373 81.115 103.259 81.1447 103.151C82.3587 98.909 82.5053 94.4325 81.5717 90.12C80.6381 85.8074 78.6531 81.7924 75.7933 78.4321C74.3402 76.5002 73.2947 74.2932 72.7199 71.9451C72.1452 69.597 72.0533 67.1567 72.4498 64.772C72.4712 64.6642 72.5334 64.5688 72.6233 64.5057C72.7133 64.4426 72.8242 64.4166 72.9328 64.4331C73.0416 64.4525 73.1383 64.5142 73.2018 64.6047C73.2653 64.6952 73.2904 64.8071 73.2716 64.916C72.8949 67.1847 72.9818 69.5062 73.527 71.7404C74.0722 73.9746 75.0645 76.0752 76.4439 77.9153C78.801 80.6928 80.5864 83.9086 81.6973 87.3779C83.3359 92.5746 83.4225 98.1365 81.9463 103.382C81.921 103.468 81.8687 103.544 81.7971 103.599C81.7254 103.653 81.6382 103.684 81.5481 103.685Z" fill="#050A4E"/>
<path d="M63.6234 97.3571C63.5369 97.3568 63.4524 97.3301 63.3815 97.2804C63.3106 97.2307 63.2567 97.1605 63.2269 97.0792C62.2837 94.4917 60.8402 92.1152 58.9786 90.0856C57.3981 88.3595 55.5442 86.9053 53.4914 85.7813C53.3937 85.7276 53.3213 85.6373 53.2902 85.5302C53.259 85.4231 53.2717 85.308 53.3254 85.2102C53.3791 85.1125 53.4695 85.0401 53.5766 85.0089C53.6837 84.9778 53.7987 84.9904 53.8965 85.0441C56.0301 86.2128 57.9571 87.7242 59.6004 89.5179C61.5353 91.6295 63.0364 94.1007 64.0183 96.7911C64.0373 96.843 64.0457 96.898 64.0434 96.9532C64.041 97.0083 64.0278 97.0625 64.0045 97.1125C63.9812 97.1625 63.9483 97.2075 63.9077 97.2448C63.867 97.2821 63.8194 97.3111 63.7675 97.33C63.7216 97.3477 63.6727 97.3569 63.6234 97.3571Z" fill="#050A4E"/>
<path d="M62.6508 109.362C62.5538 109.361 62.46 109.327 62.3853 109.266C62.3105 109.204 62.2594 109.118 62.2407 109.023C61.3904 104.765 61.8065 100.351 63.4377 96.3265C65.0688 92.3023 67.8434 88.8442 71.4185 86.3798C71.5098 86.3157 71.6227 86.2905 71.7325 86.3098C71.8423 86.329 71.94 86.3911 72.004 86.4823C72.0681 86.5735 72.0933 86.6865 72.0741 86.7963C72.0548 86.9061 71.9928 87.0037 71.9015 87.0678C68.4605 89.4396 65.7899 92.7676 64.2196 96.6406C62.6493 100.514 62.2482 104.762 63.0659 108.86C63.0879 108.97 63.0656 109.083 63.004 109.176C62.9423 109.269 62.8463 109.333 62.7371 109.355C62.7086 109.36 62.6797 109.362 62.6508 109.362Z" fill="#050A4E"/>
<path d="M51.5997 54.3412C55.4259 53.4137 59.3439 52.9169 63.2806 52.8601C68.8727 52.7873 72.8991 52.7347 74.6666 55.3732C75.2754 56.2957 75.6406 57.3573 75.7281 58.4591C75.8155 59.5609 75.6223 60.6668 75.1665 61.6737C74.0602 62.8471 73.2427 64.2623 72.7789 65.8069C72.7323 66.051 72.7005 66.2977 72.6839 66.5457C69.6902 66.7741 66.6861 66.8347 63.6856 66.727C55.4939 66.4322 53.8671 65.1036 53.118 64.1953C52.3798 63.1865 51.7829 62.0816 51.3438 60.9112C50.8284 59.8404 50.5637 58.6663 50.5694 57.4779C50.6335 56.3604 50.9886 55.2791 51.5997 54.3412Z" fill="white"/>
<path d="M66.5347 67.2068C65.5755 67.2068 64.622 67.1893 63.6742 67.1543C55.8028 66.8713 53.7574 65.6291 52.7932 64.4666C52.025 63.4278 51.4051 62.2871 50.9512 61.0774C50.4156 59.95 50.1415 58.7161 50.1496 57.468C50.2121 56.2749 50.5905 55.1199 51.246 54.1211L51.3375 53.9771L51.507 53.9381C55.3647 53.005 59.3142 52.5042 63.2827 52.4452C69.002 52.3672 73.1317 52.3181 75.0263 55.1565C75.6803 56.1455 76.0705 57.2854 76.1595 58.4677C76.2484 59.65 76.0334 60.8355 75.5347 61.9112C75.313 62.2566 75.0666 62.5857 74.7976 62.8957C74.0039 63.7367 73.4523 64.7766 73.2012 65.9053C73.1586 66.1294 73.1292 66.3557 73.1131 66.5832L73.0894 66.9509L72.7216 66.978C70.6542 67.1272 68.5851 67.2068 66.5347 67.2068ZM51.8696 54.7159C51.3487 55.557 51.048 56.5156 50.9952 57.5035C50.9961 58.6318 51.2503 59.7454 51.7391 60.7622C52.1634 61.8905 52.7381 62.9564 53.4474 63.9311C53.9557 64.5514 55.1538 66.0019 63.7047 66.3036C66.5704 66.4056 69.4396 66.3535 72.2998 66.1477C72.3133 66.0206 72.3353 65.8782 72.3658 65.724C72.6415 64.4552 73.2544 63.2843 74.1401 62.3348C74.3824 62.0548 74.6054 61.7587 74.8077 61.4486C75.2179 60.5106 75.3879 59.4852 75.3024 58.4651C75.2169 57.4449 74.8786 56.4622 74.318 55.6056C72.6793 53.1586 68.7461 53.2145 63.3031 53.2789C59.4509 53.3382 55.6167 53.8201 51.8696 54.7159Z" fill="#050A4E"/>
<path d="M48.9857 79.3135C58.2006 77.1755 67.7825 77.1755 76.9974 79.3135C78.9085 81.7176 80.368 84.4482 81.305 87.373C82.1306 89.958 82.5313 92.6598 82.4913 95.3732C70.3606 98.6273 57.6278 98.9347 45.3542 96.2696C44.7134 92.8107 44.6522 89.2693 45.1729 85.7902C45.3324 84.4701 45.7444 83.1929 46.3862 82.0282C47.0498 80.9487 47.936 80.0232 48.9857 79.3135Z" fill="white"/>
<path d="M62.0791 98.4944C56.4245 98.4929 50.7863 97.8879 45.2602 96.6896L44.9823 96.6303L44.9348 96.3507C44.2841 92.8425 44.2228 89.2505 44.7535 85.7222L44.7907 85.5256C44.9594 84.2228 45.3771 82.9646 46.021 81.8195C46.7141 80.6849 47.6428 79.7123 48.7442 78.9675L48.8867 78.9048C58.1639 76.7521 67.8109 76.7521 77.0881 78.9048L77.2304 78.937L77.322 79.0522C81.0165 83.6858 82.9893 89.4575 82.904 95.3831V95.7L82.5956 95.783C76.1467 97.5107 69.5057 98.4183 62.8298 98.4842C62.5801 98.491 62.3299 98.4944 62.0791 98.4944ZM45.7177 95.927C51.3403 97.1187 57.0757 97.6966 62.823 97.6505C69.3212 97.5858 75.7863 96.7154 82.0702 95.0594C82.0776 89.4887 80.2059 84.0783 76.7577 79.703C72.6638 78.7638 68.4847 78.2448 64.2854 78.1541C59.1969 78.0521 54.115 78.5722 49.1527 79.703C48.1777 80.3713 47.3544 81.2374 46.7362 82.2449C46.1451 83.3031 45.7637 84.4653 45.6127 85.6679L45.5754 85.8662C45.0733 89.2051 45.1214 92.6037 45.7177 95.927Z" fill="#050A4E"/>
<path d="M14.9214 109.17H14.8672C14.8125 109.163 14.7596 109.145 14.7118 109.118C14.6639 109.09 14.622 109.054 14.5883 109.01C14.5546 108.966 14.5298 108.916 14.5155 108.863C14.5011 108.81 14.4974 108.754 14.5045 108.699L17.1024 88.5166L47.4018 88.1099L49.1811 108.445C49.191 108.556 49.1564 108.666 49.0849 108.752C49.0134 108.837 48.9108 108.891 48.7998 108.901C48.7446 108.907 48.6886 108.901 48.6355 108.885C48.5823 108.869 48.533 108.842 48.4905 108.806C48.4479 108.771 48.4131 108.727 48.3879 108.677C48.3627 108.627 48.3477 108.573 48.3439 108.518L46.6341 88.9504L17.8446 89.3351L15.34 108.794C15.3291 108.897 15.2803 108.993 15.203 109.063C15.1257 109.132 15.0254 109.17 14.9214 109.17Z" fill="#050A4E"/>
<path d="M49.5048 59.3269C51.0682 63.8654 51.5736 68.7012 50.9825 73.4649C50.3166 78.5962 47.9137 86.6472 44.9396 86.6828C42.3977 86.7099 39.8168 80.8432 38.2256 73.0718L49.5048 59.3269Z" fill="white"/>
<path d="M44.9176 87.1014C40.9742 87.1014 38.4781 76.4255 37.8121 73.1532L37.7715 72.9566L49.6608 58.4746L49.9031 59.1931C51.4955 63.7914 52.0075 68.6946 51.3994 73.5226C50.8267 77.9286 48.4932 87.0625 44.943 87.1014H44.9176ZM38.6764 73.1803C40.3032 81.0178 42.8027 86.2592 44.9176 86.2592H44.9311C47.4866 86.2304 49.8827 78.6454 50.5623 73.4125C51.124 68.9702 50.707 64.4587 49.3404 60.1946L38.6764 73.1803Z" fill="#050A4E"/>
<path d="M26.4668 43.74L27.3395 36.2736L36.1363 35.7449C36.4051 38.3873 36.6734 41.0303 36.9412 43.6739C35.3305 44.5303 33.5363 44.9837 31.7121 44.9952C29.888 45.0067 28.0881 44.576 26.4668 43.74Z" fill="white"/>
<path d="M31.6449 45.411C29.7783 45.41 27.9389 44.9632 26.2798 44.1078L26.0205 43.9739L26.9678 35.8687L36.5203 35.2959L37.3947 43.9062L37.1455 44.04C35.4714 44.9278 33.6076 45.3982 31.7127 45.411H31.6449ZM26.9238 43.4893C28.3966 44.1987 30.0102 44.5676 31.6449 44.5687H31.706C33.3696 44.5586 35.0089 44.1679 36.4983 43.4266L35.7611 36.1839L27.7185 36.6668L26.9238 43.4893Z" fill="#050A4E"/>
<path d="M19.8249 21.1033C19.3535 20.5914 18.7118 20.2687 18.0197 20.1957C17.3276 20.1227 16.6325 20.3044 16.0646 20.7068C15.8715 20.9828 15.7504 21.3027 15.7122 21.6374C15.6741 21.9721 15.7201 22.311 15.8461 22.6234C16.0925 23.1994 16.5243 23.6766 17.073 23.9791C18.5168 24.9646 19.7673 26.207 20.7621 27.6445" fill="white"/>
<path d="M20.4225 27.897C19.4503 26.507 18.2377 25.3019 16.8417 24.3383C16.2141 23.9887 15.7227 23.4377 15.4471 22.7742C15.2935 22.3918 15.2399 21.9765 15.2915 21.5676C15.3431 21.1586 15.4982 20.7697 15.742 20.4374C16.3808 19.9459 17.1796 19.7096 17.983 19.7744C18.7864 19.8393 19.5369 20.2006 20.0886 20.7881L19.5497 21.4338C18.2703 20.3696 16.8384 20.4577 16.3758 20.9898C16.2345 21.2098 16.148 21.4605 16.1235 21.7209C16.099 21.9812 16.1374 22.2436 16.2351 22.4861C16.444 22.9657 16.8064 23.3621 17.2654 23.613C18.7599 24.6355 20.0579 25.9191 21.0969 27.4022L20.4225 27.897Z" fill="#050A4E"/>
<path d="M55.8777 28.6652C54.522 28.0382 53.2324 28.067 52.8155 28.6364C52.2478 29.4125 53.4273 30.9868 53.7222 31.3799C54.5947 32.4961 55.7909 33.3152 57.1469 33.7253" fill="white"/>
<path d="M57.0362 34.0589C55.6094 33.6292 54.3519 32.7656 53.4386 31.5882C52.3574 30.1444 52.0507 29.0819 52.5303 28.4278C53.0742 27.6839 54.5113 27.6483 56.0245 28.3448L55.7297 28.9836C54.4655 28.4007 53.3776 28.4583 53.0963 28.843C52.9997 28.9752 52.7777 29.5344 53.9978 31.1663C54.8247 32.2277 55.962 33.0049 57.2514 33.3896L57.0362 34.0589Z" fill="#050A4E"/>
<path d="M43.4624 20.4699C45.2959 19.204 47.082 18.9854 47.726 19.6768C48.3309 20.3241 47.8785 21.7103 47.7769 22.0221C47.3895 22.9823 46.7728 23.833 45.9806 24.4996C45.0028 25.5256 44.0839 26.6062 43.2285 27.7363" fill="white"/>
<path d="M43.5616 27.9974L42.8838 27.489C43.749 26.3458 44.6786 25.2527 45.668 24.215L45.929 23.9439C46.5694 23.3901 47.0635 22.687 47.3677 21.8968C47.7981 20.5784 47.5371 20.109 47.41 19.9701C46.9999 19.5295 45.4816 19.5837 43.6921 20.8174L43.2141 20.126C45.1494 18.7872 47.1727 18.4771 48.0234 19.3922C48.3759 19.7684 48.6878 20.5547 48.1675 22.1527C47.8282 23.0672 47.2661 23.8826 46.5322 24.5252L46.2746 24.7946C45.31 25.8096 44.4041 26.879 43.5616 27.9974Z" fill="#050A4E"/>
<path d="M32.3487 37.5888C39.0797 37.5888 44.5362 30.7112 44.5362 22.2273C44.5362 13.7433 39.0797 6.86572 32.3487 6.86572C25.6177 6.86572 20.1611 13.7433 20.1611 22.2273C20.1611 30.7112 25.6177 37.5888 32.3487 37.5888Z" fill="white"/>
<path d="M32.349 38.0089C25.4012 38.0089 19.7412 30.9305 19.7412 22.2271C19.7412 13.5236 25.3961 6.4436 32.349 6.4436C39.302 6.4436 44.9568 13.5236 44.9568 22.2271C44.9568 30.9305 39.3003 38.0089 32.349 38.0089ZM32.349 7.28752C25.8604 7.28752 20.5817 13.9897 20.5817 22.2288C20.5817 30.4679 25.8604 37.1684 32.349 37.1684C38.8376 37.1684 44.1146 30.4679 44.1146 22.2288C44.1146 13.9897 38.8376 7.2926 32.349 7.2926V7.28752Z" fill="#050A4E"/>
<path d="M14.6719 109.211C14.9746 106.688 15.3107 104.122 15.6801 101.514C16.019 99.0996 16.3794 96.7271 16.7613 94.3965C20.8283 94.3784 24.9676 94.4038 29.1793 94.4728C35.4583 94.5767 41.5844 94.7744 47.5572 95.0659C47.7968 97.3185 48.0318 99.582 48.2622 101.856C48.5108 104.318 48.7513 106.768 48.9841 109.207" fill="white"/>
<path d="M14.6736 109.631H14.6228C14.5125 109.617 14.4121 109.56 14.3436 109.472C14.275 109.385 14.2438 109.274 14.2568 109.163C14.5618 106.611 14.9007 104.019 15.265 101.456C15.6039 99.0737 15.9683 96.6792 16.3496 94.3389L16.4072 93.9865H16.7631C20.8911 93.9695 25.0666 93.9865 29.1896 94.0627C35.3105 94.1644 41.4974 94.3644 47.5793 94.6558L47.9386 94.6745L47.9776 95.032C48.2171 97.2847 48.4521 99.5481 48.6825 101.822C48.9322 104.284 49.1728 106.735 49.4044 109.175C49.4148 109.286 49.3807 109.397 49.3095 109.483C49.2384 109.569 49.136 109.624 49.0248 109.634C48.9142 109.643 48.8046 109.608 48.7192 109.537C48.6337 109.466 48.5793 109.365 48.5673 109.255C48.3346 106.816 48.0945 104.367 47.8471 101.909C47.6291 99.7543 47.4065 97.6112 47.1794 95.4794C41.2212 95.1964 35.1664 95.0015 29.176 94.9033C25.1836 94.8389 21.1334 94.8151 17.1223 94.827C16.7631 97.0503 16.4191 99.3194 16.1056 101.578C15.7429 104.135 15.404 106.72 15.1007 109.267C15.0869 109.369 15.0357 109.463 14.9569 109.531C14.8781 109.598 14.7772 109.634 14.6736 109.631Z" fill="#050A4E"/>
<path d="M20.0588 21.2377C21.245 21.6173 22.2618 20.7497 23.6006 20.1481C27.3287 18.4772 29.33 20.8039 32.9666 20.0481C38.2571 18.9466 39.8754 12.802 41.914 13.507C43.8035 14.1594 42.8867 19.594 44.2305 19.8499C45.21 20.0363 47.0842 17.3537 47.3537 14.4661C47.8621 8.92987 42.2902 4.72727 41.5124 4.15788C37.841 1.61973 33.3158 0.634293 28.9215 1.41602C27.0375 1.62532 25.2145 2.20947 23.5597 3.13407C21.9049 4.05867 20.4519 5.30504 19.2861 6.79976C18.108 8.41947 17.358 10.3104 17.1056 12.2973C16.8532 14.2842 17.1066 16.3026 17.8423 18.1654C18.2558 19.0941 18.7184 20.8107 20.0588 21.2377Z" fill="#050A4E"/>
<path d="M20.6576 21.7512C20.412 21.7516 20.1679 21.7138 19.934 21.6393C18.6139 21.2191 18.0614 19.8261 17.6564 18.8127C17.5886 18.6433 17.5243 18.4738 17.4616 18.3349C16.6914 16.4067 16.4235 14.3145 16.6831 12.2545C16.9428 10.1945 17.7214 8.23416 18.946 6.55742C20.1439 5.0177 21.6376 3.73297 23.3392 2.77874C25.0407 1.82451 26.9159 1.22003 28.8544 1.00083C31.0857 0.597912 33.3745 0.639289 35.5897 1.12259C37.805 1.60588 39.9031 2.5216 41.7638 3.81726C42.8585 4.6188 48.2981 8.90105 47.7762 14.5034C47.6183 16.5604 46.7144 18.4889 45.2343 19.9261C45.0898 20.0565 44.9189 20.1543 44.7332 20.2128C44.5475 20.2713 44.3514 20.2891 44.1582 20.265C43.238 20.0956 43.0839 18.767 42.906 17.2317C42.7501 15.876 42.5535 14.1814 41.7824 13.9069C41.169 13.7001 40.4267 14.6102 39.4845 15.771C37.9679 18.0491 35.69 19.713 33.0586 20.465C31.6263 20.7197 30.1554 20.6548 28.751 20.2752C27.1143 19.7685 25.3508 19.8604 23.7757 20.5345C23.4503 20.6819 23.1469 20.8412 22.8554 20.9971C22.1951 21.4236 21.4406 21.6824 20.6576 21.7512ZM20.1898 20.8361C20.9185 21.0666 21.598 20.7073 22.4589 20.2498C22.7673 20.0803 23.0893 19.9109 23.4299 19.7634C25.1649 19.014 27.109 18.9018 28.9187 19.4465C30.2103 19.8015 31.5645 19.8663 32.8841 19.6363C35.3272 18.9226 37.4352 17.3602 38.8288 15.2304C39.9794 13.8171 40.8893 12.702 42.0484 13.1053C43.3211 13.5442 43.5397 15.449 43.7329 17.1283C43.8295 17.9671 43.9922 19.3703 44.3057 19.4313C44.46 19.4166 44.6053 19.3517 44.7192 19.2466C46.0076 17.9525 46.7918 16.2411 46.9306 14.4204C47.4085 9.27217 42.2908 5.2458 41.2587 4.4917C39.4894 3.26251 37.4951 2.39423 35.3899 1.93654C33.2847 1.47886 31.1098 1.44075 28.9899 1.8244C27.1611 2.02825 25.3914 2.59414 23.7836 3.48908C22.1759 4.38402 20.7623 5.5901 19.6255 7.03699C18.484 8.59435 17.7565 10.416 17.5111 12.3312C17.2657 14.2464 17.5104 16.1926 18.2224 17.9875C18.2902 18.1383 18.358 18.3095 18.4326 18.4959C18.7935 19.4025 19.2426 20.5294 20.1831 20.831L20.1898 20.8361Z" fill="#050A4E"/>
<path d="M15.8799 93.8563C14.0938 92.2396 15.7511 88.9589 16.5849 81.8653C17.1256 77.2563 17.1528 72.6015 16.6662 67.9865C9.49293 68.6983 8.00683 66.5783 7.66961 65.9734C6.70369 64.2415 8.21861 62.5418 12.2348 53.2147C14.3785 48.2394 14.4734 47.5005 15.68 46.1872C18.5756 43.411 22.4447 41.8814 26.4559 41.927C26.9764 42.829 27.7251 43.578 28.6269 44.0988C29.5287 44.6196 30.5517 44.8938 31.5931 44.8938C32.6344 44.8938 33.6574 44.6196 34.5591 44.0988C35.4609 43.578 36.2098 42.829 36.7302 41.927C45.9743 43.4047 49.5126 46.7058 51.0327 49.4595C52.773 52.6115 51.4173 54.2315 53.8525 60.1626C56.2249 65.9446 57.9432 67.934 57.0721 69.1812C56.6705 69.7608 56.0028 69.7015 52.8577 69.9862C50.3395 70.2132 48.2823 70.4759 46.9012 70.664C47.1283 73.6024 47.4892 77.9508 48.0077 83.2498C48.5161 88.3692 50.3802 91.8414 48.4111 94.1528C47.3867 95.182 46.03 95.8138 44.583 95.9356C39.0332 96.9388 36.5946 93.0225 30.8855 91.9719C23.0514 90.5315 18.4862 96.2185 15.8799 93.8563Z" fill="white"/>
<path d="M42.835 96.5218C40.5984 96.4039 38.4269 95.7275 36.5191 94.5544C34.7392 93.5448 32.8149 92.8144 30.8134 92.3887C27.491 91.8897 24.0954 92.3998 21.0661 93.8528C18.7971 94.7391 16.999 95.4406 15.601 94.1697C14.2301 92.9292 14.608 90.95 15.2317 87.6557C15.5265 86.0932 15.8959 84.1495 16.1704 81.8161C16.6908 77.376 16.7323 72.8929 16.2941 68.444C9.8919 68.9897 7.91602 67.2713 7.31274 66.1766C6.52475 64.765 7.14324 63.4246 8.98696 59.4457C9.74445 57.8053 10.6901 55.7667 11.8678 53.0469C12.388 51.8352 12.788 50.8761 13.1151 50.0983C13.585 48.5629 14.357 47.137 15.3858 45.9041C16.8466 44.4722 18.5778 43.3451 20.4785 42.5887C22.3791 41.8323 24.4113 41.4616 26.4566 41.4982L26.7143 41.488L26.8396 41.7117C27.3224 42.5501 28.0177 43.2465 28.8553 43.7307C29.6929 44.2149 30.6432 44.4698 31.6107 44.4698C32.5782 44.4698 33.5286 44.2149 34.3662 43.7307C35.2038 43.2465 35.899 42.5501 36.3819 41.7117L36.5242 41.4575L36.814 41.5033C44.3312 42.7047 49.2455 45.3093 51.418 49.2476C52.106 50.544 52.5039 51.9745 52.584 53.44C52.8002 55.6988 53.365 57.9105 54.2582 59.9964C55.0648 61.9622 55.7935 63.4788 56.3764 64.6989C57.5627 67.1595 58.1473 68.3948 57.4372 69.415C56.9898 70.0556 56.3747 70.1064 54.3344 70.2758L52.9144 70.3979C51.0504 70.5673 49.1863 70.7775 47.3697 71.0232C47.6848 75.0411 48.0475 79.1369 48.4474 83.2056C48.6108 84.6834 48.8535 86.1514 49.1744 87.6031C49.7573 90.4484 50.2183 92.6988 48.7508 94.4222C47.6665 95.5265 46.225 96.2094 44.6837 96.3489C44.0738 96.4616 43.4552 96.5195 42.835 96.5218ZM28.324 91.3177C29.2102 91.3185 30.0945 91.3996 30.966 91.56C33.0462 92.0005 35.0466 92.7578 36.897 93.8053C39.1385 95.2908 41.8468 95.9028 44.5092 95.5254C45.8591 95.4176 47.1274 94.8359 48.0898 93.8833C49.2896 92.47 48.8863 90.4941 48.3305 87.7827C48.0032 86.3031 47.756 84.8068 47.59 83.3005C47.1765 79.0928 46.8037 74.8564 46.4817 70.7063L46.4512 70.3114L46.8427 70.2572C48.7915 69.9844 50.8029 69.7488 52.8211 69.5794C53.3668 69.5302 53.8379 69.4913 54.2463 69.4591C56.0765 69.3082 56.5154 69.2608 56.7289 68.9507C57.1594 68.3321 56.6374 67.2442 55.6003 65.0768C55.0123 63.8482 54.2785 62.3197 53.46 60.332C52.5364 58.1754 51.9522 55.8889 51.7282 53.5536C51.6597 52.1965 51.2953 50.8709 50.6606 49.6695C48.6457 46.0194 44.0313 43.569 36.9343 42.3963C36.3586 43.2976 35.5647 44.0389 34.626 44.5513C33.6874 45.0638 32.6346 45.331 31.5651 45.3279C30.4957 45.3249 29.4444 45.0518 28.5087 44.5339C27.573 44.0161 26.7832 43.2704 26.2126 42.3658C22.392 42.3342 18.7136 43.8137 15.9789 46.482C15.0182 47.6445 14.2986 48.9868 13.8623 50.4304C13.537 51.2099 13.1371 52.1742 12.6118 53.3909C11.4374 56.1175 10.4901 58.1629 9.73094 59.8083C7.97703 63.5958 7.44831 64.7396 8.03634 65.7767C8.4566 66.5325 10.1376 68.222 16.6245 67.5781L17.0397 67.5374L17.0838 67.9526C17.5729 72.5986 17.5456 77.2845 17.0025 81.9245C16.7246 84.2885 16.3518 86.2474 16.0535 87.8234C15.4655 90.9245 15.1418 92.631 16.1619 93.5545C17.1329 94.4357 18.4716 93.9731 20.756 93.0801C23.1403 92.0067 25.7108 91.4081 28.324 91.3177Z" fill="#050A4E"/>
<path d="M68.1926 17.3909C70.1774 18.3777 71.8201 19.9378 72.9078 21.8692C73.9955 23.8005 74.4782 26.0139 74.2932 28.2227C73.9746 32.9507 70.3787 39.6494 64.9881 39.4715C60.6466 39.3291 56.1966 34.7588 56.0898 28.5295" fill="white"/>
<path d="M65.2035 39.8954H64.9731C60.5671 39.7513 55.7815 35.1505 55.668 28.5416L56.5153 28.5263C56.6203 34.6608 60.9907 38.9227 65.0069 39.0565H65.1984C70.1263 39.0565 73.5697 32.7865 73.8798 28.1976C74.0726 25.7822 73.4464 23.3724 72.1022 21.3565C71.0611 19.8353 69.6537 18.601 68.0098 17.7673L68.391 17.0166C70.1619 17.9148 71.6774 19.2455 72.797 20.8854C74.2474 23.0556 74.9232 25.6516 74.7152 28.2535C74.3865 33.0611 70.8211 39.8937 65.2035 39.8954Z" fill="#050A4E"/>
<path d="M55.7217 28.9451C55.6143 28.9468 55.5103 28.9072 55.4312 28.8346C55.352 28.762 55.3036 28.6618 55.296 28.5546C55.2884 28.4475 55.3222 28.3415 55.3903 28.2584C55.4584 28.1753 55.5557 28.1215 55.6623 28.108C58.794 27.6741 61.808 26.6211 64.5284 25.0103C65.6845 24.331 66.7734 23.5434 67.7804 22.6582C70.517 20.119 72.4674 16.8477 73.3997 13.2328C73.4302 13.1259 73.5014 13.0351 73.598 12.98C73.6946 12.9248 73.809 12.9098 73.9166 12.938C73.9699 12.9525 74.0199 12.9774 74.0636 13.0112C74.1073 13.0451 74.1438 13.0872 74.1712 13.1352C74.1986 13.1832 74.2163 13.2362 74.2232 13.291C74.2301 13.3459 74.2261 13.4015 74.2115 13.4548C73.2362 17.2247 71.2001 20.6358 68.3447 23.2835C67.294 24.2044 66.1593 25.0248 64.9555 25.7339C62.1393 27.401 59.0193 28.4909 55.7775 28.9401L55.7217 28.9451Z" fill="#050A4E"/>
<path d="M56.584 27.9349C58.9532 27.5256 61.2466 26.7594 63.3861 25.6625C64.905 24.9076 66.3181 23.9561 67.5887 22.8325C68.9272 21.6392 70.0858 20.2585 71.0287 18.7333C70.2746 17.703 69.1969 16.4998 68.2598 16.7099C67.6718 16.8404 67.3972 17.4691 67.1481 17.8961C65.7924 20.2499 63.1387 20.4685 60.9035 21.8937C58.8029 23.3418 57.2749 25.4789 56.584 27.9349Z" fill="#050A4E"/>
<path d="M46.9512 71.855C46.8476 71.8547 46.7477 71.8161 46.6707 71.7467C46.5938 71.6773 46.5452 71.5818 46.5343 71.4788L45.1786 58.993C45.1682 58.883 45.2015 58.7734 45.2712 58.6878C45.3409 58.6022 45.4415 58.5475 45.5513 58.5355C45.6611 58.5234 45.7711 58.5551 45.8577 58.6236C45.9443 58.6921 46.0004 58.7919 46.014 58.9014L47.3698 71.3889C47.3817 71.4997 47.349 71.6107 47.2791 71.6974C47.2092 71.7842 47.1077 71.8396 46.9969 71.8516L46.9512 71.855Z" fill="#050A4E"/>
<path d="M16.6036 66.6032C16.5344 65.3652 16.5401 64.1242 16.6206 62.8869C16.6663 62.1701 16.7357 61.4872 16.8222 60.8381" fill="white"/>
<path d="M16.602 67.0302C16.4946 67.0299 16.3914 66.9885 16.3136 66.9144C16.2357 66.8403 16.1892 66.7393 16.1835 66.632C16.1146 65.377 16.1202 64.1191 16.2004 62.8649C16.2445 62.1735 16.314 61.4736 16.4055 60.7873C16.4203 60.6767 16.4785 60.5766 16.5672 60.5089C16.6558 60.4412 16.7677 60.4115 16.8783 60.4263C16.9888 60.4412 17.089 60.4993 17.1567 60.588C17.2244 60.6767 17.2541 60.7886 17.2393 60.8991C17.1545 61.538 17.0867 62.2124 17.041 62.9208C16.9627 64.1412 16.957 65.3651 17.024 66.5862C17.0274 66.6415 17.0199 66.6969 17.0018 66.7492C16.9837 66.8015 16.9553 66.8497 16.9184 66.891C16.8815 66.9323 16.8369 66.9658 16.787 66.9897C16.737 67.0136 16.6828 67.0274 16.6275 67.0302H16.602Z" fill="#050A4E"/>
<path d="M5.38706 105.468C5.30433 105.467 5.2237 105.442 5.15507 105.396C5.08644 105.349 5.03285 105.284 5.00106 105.208C4.96928 105.131 4.96074 105.047 4.97634 104.966C4.99195 104.885 5.03106 104.81 5.08888 104.751C6.84035 102.991 8.05821 100.771 8.60177 98.3485C9.12195 96.0103 8.98712 93.574 8.21205 91.3075C8.17609 91.2018 8.18348 91.0863 8.23273 90.9862C8.28199 90.8861 8.36904 90.8096 8.47466 90.7737C8.58028 90.7377 8.69581 90.7452 8.79591 90.7944C8.89602 90.8437 8.97251 90.9307 9.00846 91.0363C9.83393 93.4489 9.97759 96.0425 9.42363 98.5315C8.84506 101.109 7.54906 103.47 5.68536 105.342C5.64645 105.382 5.60003 105.413 5.54883 105.435C5.49762 105.456 5.44261 105.467 5.38706 105.468Z" fill="#050A4E"/>
<path d="M0.421168 104.148C0.336589 104.148 0.253949 104.122 0.184003 104.075C0.114057 104.027 0.0601064 103.96 0.0291684 103.881C-0.00176969 103.802 -0.00829987 103.716 0.010551 103.634C0.0294018 103.551 0.0726997 103.476 0.13477 103.419C2.90713 100.833 4.08993 98.7536 3.64426 97.237C3.4415 96.6888 3.1184 96.1931 2.6987 95.7864C2.04026 95.1709 1.61063 94.3498 1.48029 93.458C1.47687 92.7083 1.64272 91.9676 1.96548 91.291C2.28824 90.6143 2.75953 90.0193 3.34431 89.5503C3.42431 89.4723 3.53203 89.4293 3.64374 89.4307C3.75544 89.4321 3.86198 89.4779 3.93996 89.5579C4.01794 89.6379 4.06096 89.7456 4.05953 89.8573C4.0581 89.969 4.01241 90.0756 3.93241 90.1535C3.44017 90.5363 3.03918 91.0238 2.75869 91.5807C2.47819 92.1376 2.32516 92.7499 2.31063 93.3733C2.42699 94.0886 2.78608 94.742 3.32745 95.2238C3.83242 95.7207 4.21624 96.3272 4.44925 96.9963C4.9983 98.8688 3.77144 101.168 0.705911 104.029C0.629864 104.104 0.527813 104.146 0.421168 104.148Z" fill="#050A4E"/>
<path d="M92.1934 105.469C92.1378 105.47 92.0827 105.459 92.0315 105.437C91.9802 105.415 91.9338 105.384 91.8951 105.344C90.0597 103.508 88.7754 101.194 88.1878 98.6653C87.6002 96.1365 87.7327 93.4936 88.5704 91.0363C88.6063 90.9307 88.6827 90.8437 88.7828 90.7944C88.8829 90.7452 88.9986 90.7377 89.1042 90.7737C89.2098 90.8096 89.2968 90.8861 89.346 90.9862C89.3953 91.0863 89.4028 91.2018 89.3668 91.3075C88.5778 93.6158 88.4523 96.0992 89.0044 98.4753C89.5565 100.851 90.7641 103.025 92.49 104.749C92.5484 104.808 92.588 104.883 92.604 104.965C92.6199 105.046 92.6114 105.131 92.5795 105.207C92.5477 105.284 92.4939 105.35 92.4249 105.396C92.3559 105.442 92.2748 105.467 92.1917 105.468L92.1934 105.469Z" fill="#050A4E"/>
<path d="M97.1599 104.147C97.0535 104.147 96.951 104.107 96.8735 104.034C93.8046 101.175 92.5811 98.8738 93.1319 97.0029C93.3648 96.3338 93.7486 95.7273 94.2537 95.2304C94.7947 94.7483 95.1537 94.095 95.2705 93.3799C95.2557 92.7567 95.1027 92.1446 94.8225 91.5878C94.5424 91.031 94.142 90.5434 93.6505 90.1601C93.611 90.1215 93.5794 90.0755 93.5577 90.0247C93.536 89.9739 93.5245 89.9194 93.5239 89.8641C93.5232 89.8089 93.5335 89.7541 93.5541 89.7028C93.5746 89.6515 93.605 89.6048 93.6436 89.5653C93.6822 89.5258 93.7282 89.4943 93.779 89.4726C93.8298 89.4509 93.8844 89.4394 93.9396 89.4387C93.9949 89.4381 94.0497 89.4484 94.101 89.4689C94.1523 89.4895 94.199 89.5199 94.2385 89.5585C94.8234 90.0275 95.2949 90.6224 95.6177 91.2991C95.9405 91.9758 96.1061 92.7166 96.1025 93.4663C95.9723 94.3577 95.5426 95.1783 94.8841 95.793C94.4642 96.2003 94.1411 96.6965 93.9385 97.2452C93.4928 98.7602 94.6739 100.841 97.448 103.427C97.5101 103.485 97.5534 103.559 97.5722 103.642C97.5911 103.724 97.5846 103.811 97.5537 103.889C97.5228 103.968 97.4688 104.036 97.3989 104.083C97.3289 104.131 97.2462 104.156 97.1616 104.156L97.1599 104.147Z" fill="#050A4E"/>
<g style="mix-blend-mode:multiply" opacity="0.4">
<g style="mix-blend-mode:multiply" opacity="0.4">
<path d="M43.9418 97.6419C44.2807 99.167 45.1958 103.276 42.7861 106.594C39.4731 111.156 32.6931 110.348 31.7882 110.226C26.7586 109.548 19.3345 105.595 19.204 98.0706C19.1757 96.4463 19.4676 94.8323 20.0631 93.3208C20.6586 91.8093 21.5459 90.43 22.6745 89.2614C23.8031 88.0929 25.1508 87.1581 26.6406 86.5104C28.1305 85.8627 29.7334 85.5148 31.3577 85.4865C39.1088 85.3527 42.9844 93.3291 43.9418 97.6419Z" fill="#F40009"/>
</g>
</g>
<g style="mix-blend-mode:multiply">
<g style="mix-blend-mode:multiply" opacity="0.4">
<path d="M75.7726 94.4189C76.1115 95.944 77.0266 100.052 74.6168 103.371C71.3039 107.933 64.5255 107.125 63.6189 107.003C58.5893 106.325 51.1636 102.373 51.0331 94.8493C51.0048 93.225 51.2967 91.611 51.8922 90.0995C52.4877 88.588 53.375 87.2087 54.5036 86.0401C55.6322 84.8716 56.9799 83.9368 58.4697 83.2891C59.9596 82.6414 61.5625 82.2935 63.1868 82.2652C70.9362 82.1263 74.8117 90.1061 75.7726 94.4189Z" fill="#F40009"/>
</g>
</g>
</svg>
